VotoSerifGX-ExtendedLightDisplay.ufo
<glyph name="comma" format="2">
  <advance width="231"/>
  <unicode hex="002C"/>
  <outline>
    <contour>
      <point x="40" y="-154" type="line"/>
      <point x="123" y="-130"/>
      <point x="158" y="-76"/>
      <point x="158" y="0" type="curve" smooth="yes"/>
      <point x="158" y="36"/>
      <point x="150" y="73"/>
      <point x="118" y="73" type="curve" smooth="yes"/>
      <point x="99" y="73"/>
      <point x="94" y="57"/>
      <point x="94" y="40" type="curve" smooth="yes"/>
      <point x="94" y="20"/>
      <point x="138" y="-6"/>
      <point x="138" y="-28" type="curve" smooth="yes"/>
      <point x="138" y="-72"/>
      <point x="103" y="-129"/>
      <point x="40" y="-142" type="curve"/>
    </contour>
  </outline>
</glyph>
<glyph name="four" format="2">
  <advance width="693"/>
  <unicode hex="0034"/>
  <outline>
    <contour>
      <point x="341" y="0" type="line"/>
      <point x="615" y="0" type="line"/>
      <point x="615" y="10" type="line"/>
      <point x="552" y="10" type="line" smooth="yes"/>
      <point x="506" y="10"/>
      <point x="501" y="23"/>
      <point x="501" y="105" type="curve" smooth="yes"/>
      <point x="501" y="208" type="line"/>
      <point x="675" y="208" type="line"/>
      <point x="675" y="233" type="line"/>
      <point x="501" y="233" type="line"/>
      <point x="501" y="714" type="line"/>
      <point x="472" y="714" type="line"/>
      <point x="29" y="229" type="line"/>
      <point x="29" y="208" type="line"/>
      <point x="473" y="208" type="line"/>
      <point x="473" y="105" type="line" smooth="yes"/>
      <point x="473" y="23"/>
      <point x="469" y="10"/>
      <point x="422" y="10" type="curve" smooth="yes"/>
      <point x="341" y="10" type="line"/>
    </contour>
    <contour>
      <point x="48" y="233" type="line"/>
      <point x="370" y="599" type="line" smooth="yes"/>
      <point x="410" y="643"/>
      <point x="423" y="635"/>
      <point x="475" y="700" type="curve"/>
      <point x="475" y="640"/>
      <point x="473" y="472"/>
      <point x="473" y="453" type="curve" smooth="yes"/>
      <point x="473" y="233" type="line"/>
    </contour>
  </outline>
</glyph>
<glyph name="nine" format="2">
  <advance width="693"/>
  <unicode hex="0039"/>
  <outline>
    <contour>
      <point x="282" y="-11" type="curve" smooth="yes"/>
      <point x="518" y="-11"/>
      <point x="590" y="158"/>
      <point x="590" y="408" type="curve" smooth="yes"/>
      <point x="590" y="589"/>
      <point x="499" y="724"/>
      <point x="314" y="724" type="curve" smooth="yes"/>
      <point x="164" y="724"/>
      <point x="91" y="616"/>
      <point x="91" y="484" type="curve" smooth="yes"/>
      <point x="91" y="414"/>
      <point x="162" y="301"/>
      <point x="339" y="301" type="curve" smooth="yes"/>
      <point x="435" y="301"/>
      <point x="532" y="358"/>
      <point x="562" y="370" type="curve"/>
      <point x="562" y="145"/>
      <point x="480" y="-1"/>
      <point x="280" y="-1" type="curve" smooth="yes"/>
      <point x="208" y="-1"/>
      <point x="166" y="17"/>
      <point x="150" y="88" type="curve"/>
      <point x="135" y="85"/>
      <point x="130" y="69"/>
      <point x="130" y="60" type="curve" smooth="yes"/>
      <point x="130" y="36"/>
      <point x="168" y="-11"/>
    </contour>
    <contour>
      <point x="337" y="311" type="curve" smooth="yes"/>
      <point x="199" y="311"/>
      <point x="119" y="400"/>
      <point x="119" y="484" type="curve" smooth="yes"/>
      <point x="119" y="606"/>
      <point x="172" y="714"/>
      <point x="327" y="714" type="curve" smooth="yes"/>
      <point x="483" y="714"/>
      <point x="562" y="575"/>
      <point x="562" y="378" type="curve"/>
      <point x="538" y="371"/>
      <point x="436" y="311"/>
    </contour>
  </outline>
</glyph>
<glyph name="F" format="2">
  <advance width="676"/>
  <unicode hex="0046"/>
  <anchor x="203" y="0" name="bottom"/>
  <anchor x="338" y="714" name="top"/>
  <anchor x="656" y="714" name="topright"/>
  <outline>
    <contour>
      <point x="64" y="0" type="line"/>
      <point x="376" y="0" type="line"/>
      <point x="376" y="10" type="line"/>
      <point x="273" y="10" type="line" smooth="yes"/>
      <point x="223" y="10"/>
      <point x="217" y="21"/>
      <point x="217" y="98" type="curve" smooth="yes"/>
      <point x="217" y="346" type="line"/>
      <point x="518" y="346" type="line"/>
      <point x="518" y="356" type="line"/>
      <point x="217" y="356" type="line"/>
      <point x="217" y="704" type="line"/>
      <point x="536" y="704" type="line" smooth="yes"/>
      <point x="588" y="704"/>
      <point x="594" y="690"/>
      <point x="596" y="635" type="curve" smooth="yes"/>
      <point x="599" y="551" type="line"/>
      <point x="609" y="551" type="line"/>
      <point x="604" y="714" type="line"/>
      <point x="64" y="714" type="line"/>
      <point x="64" y="704" type="line"/>
      <point x="133" y="704" type="line" smooth="yes"/>
      <point x="183" y="704"/>
      <point x="189" y="693"/>
      <point x="189" y="616" type="curve" smooth="yes"/>
      <point x="189" y="98" type="line" smooth="yes"/>
      <point x="189" y="21"/>
      <point x="183" y="10"/>
      <point x="133" y="10" type="curve" smooth="yes"/>
      <point x="64" y="10" type="line"/>
    </contour>
  </outline>
</glyph>
<glyph name="bracketleft" format="2">
  <advance width="351"/>
  <unicode hex="005B"/>
  <outline>
    <contour>
      <point x="125" y="-128" type="line"/>
      <point x="306" y="-128" type="line"/>
      <point x="306" y="-118" type="line"/>
      <point x="209" y="-118" type="line" smooth="yes"/>
      <point x="159" y="-118"/>
      <point x="153" y="-107"/>
      <point x="153" y="-30" type="curve" smooth="yes"/>
      <point x="153" y="662" type="line" smooth="yes"/>
      <point x="153" y="739"/>
      <point x="159" y="750"/>
      <point x="209" y="750" type="curve" smooth="yes"/>
      <point x="306" y="750" type="line"/>
      <point x="306" y="760" type="line"/>
      <point x="125" y="760" type="line"/>
    </contour>
  </outline>
</glyph>
<glyph name="w" format="2">
  <advance width="1082"/>
  <unicode hex="0077"/>
  <anchor x="541" y="0" name="bottom"/>
  <anchor x="541" y="536" name="top"/>
  <anchor x="1072" y="536" name="topright"/>
  <outline>
    <contour>
      <point x="270" y="0" type="line"/>
      <point x="286" y="0" type="line"/>
      <point x="507" y="508" type="line"/>
      <point x="720" y="0" type="line"/>
      <point x="741" y="0" type="line"/>
      <point x="941" y="477" type="line" smooth="yes"/>
      <point x="958" y="517"/>
      <point x="958" y="526"/>
      <point x="999" y="526" type="curve" smooth="yes"/>
      <point x="1018" y="526" type="line"/>
      <point x="1018" y="536" type="line"/>
      <point x="839" y="536" type="line"/>
      <point x="839" y="526" type="line"/>
      <point x="896" y="526" type="line" smooth="yes"/>
      <point x="933" y="526"/>
      <point x="937" y="519"/>
      <point x="937" y="506" type="curve" smooth="yes"/>
      <point x="937" y="488"/>
      <point x="925" y="462"/>
      <point x="914" y="438" type="curve" smooth="yes"/>
      <point x="815" y="202" type="line" smooth="yes"/>
      <point x="782" y="124"/>
      <point x="751" y="44"/>
      <point x="738" y="15" type="curve"/>
      <point x="736" y="15" type="line"/>
      <point x="722" y="51"/>
      <point x="668" y="179"/>
      <point x="648" y="225" type="curve" smooth="yes"/>
      <point x="521" y="536" type="line"/>
      <point x="508" y="536" type="line"/>
      <point x="360" y="205" type="line" smooth="yes"/>
      <point x="338" y="156"/>
      <point x="297" y="59"/>
      <point x="286" y="33" type="curve"/>
      <point x="284" y="33" type="line"/>
      <point x="276" y="60"/>
      <point x="245" y="154"/>
      <point x="230" y="203" type="curve" smooth="yes"/>
      <point x="154" y="435" type="line" smooth="yes"/>
      <point x="147" y="452"/>
      <point x="133" y="493"/>
      <point x="133" y="506" type="curve" smooth="yes"/>
      <point x="133" y="519"/>
      <point x="137" y="526"/>
      <point x="171" y="526" type="curve" smooth="yes"/>
      <point x="209" y="526" type="line"/>
      <point x="209" y="536" type="line"/>
      <point x="9" y="536" type="line"/>
      <point x="9" y="526" type="line"/>
      <point x="48" y="526" type="line" smooth="yes"/>
      <point x="92" y="526"/>
      <point x="95" y="519"/>
      <point x="110" y="473" type="curve" smooth="yes"/>
    </contour>
  </outline>
</glyph>
<glyph name="bar" format="2">
  <advance width="695"/>
  <unicode hex="007C"/>
  <outline>
    <contour>
      <point x="337" y="-240" type="line"/>
      <point x="357" y="-240" type="line"/>
      <point x="357" y="760" type="line"/>
      <point x="337" y="760" type="line"/>
    </contour>
  </outline>
</glyph>
<glyph name="registered" format="2">
  <advance width="1048"/>
  <unicode hex="00AE"/>
  <outline>
    <contour>
      <point x="522" y="-10" type="curve" smooth="yes"/>
      <point x="771" y="-10"/>
      <point x="975" y="137"/>
      <point x="975" y="356" type="curve" smooth="yes"/>
      <point x="975" y="579"/>
      <point x="769" y="725"/>
      <point x="521" y="725" type="curve" smooth="yes"/>
      <point x="273" y="725"/>
      <point x="73" y="577"/>
      <point x="73" y="358" type="curve" smooth="yes"/>
      <point x="73" y="132"/>
      <point x="278" y="-10"/>
    </contour>
    <contour>
      <point x="523" y="0" type="curve" smooth="yes"/>
      <point x="292" y="0"/>
      <point x="85" y="141"/>
      <point x="85" y="357" type="curve" smooth="yes"/>
      <point x="85" y="567"/>
      <point x="281" y="715"/>
      <point x="521" y="715" type="curve" smooth="yes"/>
      <point x="764" y="715"/>
      <point x="963" y="562"/>
      <point x="963" y="358" type="curve" smooth="yes"/>
      <point x="963" y="151"/>
      <point x="761" y="0"/>
    </contour>
    <contour>
      <point x="330" y="141" type="line"/>
      <point x="516" y="141" type="line"/>
      <point x="516" y="151" type="line"/>
      <point x="498" y="151" type="line" smooth="yes"/>
      <point x="477" y="151"/>
      <point x="436" y="155"/>
      <point x="436" y="168" type="curve" smooth="yes"/>
      <point x="436" y="341" type="line"/>
      <point x="565" y="341" type="line"/>
      <point x="696" y="141" type="line"/>
      <point x="772" y="141" type="line"/>
      <point x="772" y="151" type="line"/>
      <point x="748" y="151"/>
      <point x="729" y="151"/>
      <point x="718" y="167" type="curve" smooth="yes"/>
      <point x="600" y="350" type="line"/>
      <point x="658" y="366"/>
      <point x="707" y="395"/>
      <point x="707" y="453" type="curve" smooth="yes"/>
      <point x="707" y="533"/>
      <point x="643" y="573"/>
      <point x="503" y="573" type="curve" smooth="yes"/>
      <point x="330" y="573" type="line"/>
      <point x="330" y="563" type="line"/>
      <point x="347" y="563" type="line" smooth="yes"/>
      <point x="367" y="563"/>
      <point x="408" y="559"/>
      <point x="408" y="528" type="curve" smooth="yes"/>
      <point x="408" y="168" type="line" smooth="yes"/>
      <point x="408" y="155"/>
      <point x="367" y="151"/>
      <point x="347" y="151" type="curve" smooth="yes"/>
      <point x="330" y="151" type="line"/>
    </contour>
    <contour>
      <point x="436" y="351" type="line"/>
      <point x="436" y="563" type="line"/>
      <point x="486" y="563" type="line" smooth="yes"/>
      <point x="606" y="563"/>
      <point x="677" y="539"/>
      <point x="677" y="454" type="curve" smooth="yes"/>
      <point x="677" y="388"/>
      <point x="625" y="351"/>
      <point x="533" y="351" type="curve" smooth="yes"/>
    </contour>
  </outline>
</glyph>
<glyph name="oslash" format="2">
  <advance width="652"/>
  <unicode hex="00F8"/>
  <anchor x="323" y="0" name="bottom"/>
  <anchor x="323" y="536" name="top"/>
  <outline>
    <contour>
      <point x="91" y="-40" type="line"/>
      <point x="102" y="-40" type="line"/>
      <point x="164" y="44" type="line"/>
      <point x="204" y="8"/>
      <point x="259" y="-10"/>
      <point x="325" y="-10" type="curve" smooth="yes"/>
      <point x="486" y="-10"/>
      <point x="570" y="85"/>
      <point x="570" y="267" type="curve" smooth="yes"/>
      <point x="570" y="377"/>
      <point x="542" y="448"/>
      <point x="496" y="490" type="curve"/>
      <point x="559" y="576" type="line"/>
      <point x="548" y="576" type="line"/>
      <point x="488" y="495" type="line"/>
      <point x="449" y="528"/>
      <point x="396" y="542"/>
      <point x="333" y="542" type="curve" smooth="yes"/>
      <point x="173" y="542"/>
      <point x="82" y="457"/>
      <point x="82" y="267" type="curve" smooth="yes"/>
      <point x="82" y="168"/>
      <point x="110" y="96"/>
      <point x="157" y="49" type="curve"/>
    </contour>
    <contour>
      <point x="324" y="0" type="curve" smooth="yes"/>
      <point x="258" y="0"/>
      <point x="207" y="19"/>
      <point x="172" y="56" type="curve"/>
      <point x="484" y="480" type="line"/>
      <point x="524" y="437"/>
      <point x="542" y="368"/>
      <point x="542" y="267" type="curve" smooth="yes"/>
      <point x="542" y="112"/>
      <point x="485" y="0"/>
    </contour>
    <contour>
      <point x="166" y="61" type="line"/>
      <point x="128" y="106"/>
      <point x="110" y="177"/>
      <point x="110" y="267" type="curve" smooth="yes"/>
      <point x="110" y="447"/>
      <point x="178" y="532"/>
      <point x="335" y="532" type="curve" smooth="yes"/>
      <point x="395" y="532"/>
      <point x="444" y="517"/>
      <point x="480" y="484" type="curve"/>
    </contour>
  </outline>
</glyph>
<glyph name="Eng" format="2">
  <advance width="903"/>
  <unicode hex="014A"/>
  <anchor x="422" y="-240" name="bottom"/>
  <anchor x="422" y="714" name="top"/>
  <outline>
    <contour>
      <point x="520" y="-240" type="line"/>
      <point x="545" y="-240" type="line" smooth="yes"/>
      <point x="636" y="-240"/>
      <point x="674" y="-175"/>
      <point x="674" y="-4" type="curve" smooth="yes"/>
      <point x="674" y="616" type="line" smooth="yes"/>
      <point x="674" y="693"/>
      <point x="678" y="704"/>
      <point x="736" y="704" type="curve" smooth="yes"/>
      <point x="787" y="704" type="line"/>
      <point x="787" y="714" type="line"/>
      <point x="562" y="714" type="line"/>
      <point x="562" y="704" type="line"/>
      <point x="610" y="704" type="line" smooth="yes"/>
      <point x="660" y="704"/>
      <point x="664" y="693"/>
      <point x="664" y="614" type="curve" smooth="yes"/>
      <point x="664" y="46" type="line"/>
      <point x="179" y="714" type="line"/>
      <point x="64" y="714" type="line"/>
      <point x="64" y="704" type="line"/>
      <point x="132" y="704" type="line" smooth="yes"/>
      <point x="172" y="704"/>
      <point x="180" y="693"/>
      <point x="180" y="618" type="curve" smooth="yes"/>
      <point x="180" y="98" type="line" smooth="yes"/>
      <point x="180" y="21"/>
      <point x="172" y="10"/>
      <point x="128" y="10" type="curve" smooth="yes"/>
      <point x="64" y="10" type="line"/>
      <point x="64" y="0" type="line"/>
      <point x="293" y="0" type="line"/>
      <point x="293" y="10" type="line"/>
      <point x="224" y="10" type="line" smooth="yes"/>
      <point x="204" y="10"/>
      <point x="190" y="21"/>
      <point x="190" y="98" type="curve" smooth="yes"/>
      <point x="190" y="650" type="line"/>
      <point x="664" y="2" type="line"/>
      <point x="664" y="-6" type="line" smooth="yes"/>
      <point x="664" y="-167"/>
      <point x="632" y="-230"/>
      <point x="544" y="-230" type="curve" smooth="yes"/>
      <point x="520" y="-230" type="line"/>
    </contour>
  </outline>
</glyph>
<glyph name="OE" format="2">
  <advance width="1083"/>
  <unicode hex="0152"/>
  <anchor x="542" y="0" name="bottom"/>
  <anchor x="542" y="714" name="top"/>
  <outline>
    <contour>
      <point x="420" y="-4" type="curve" smooth="yes"/>
      <point x="479" y="-4"/>
      <point x="519" y="-1"/>
      <point x="546" y="0" type="curve"/>
      <point x="1005" y="0" type="line"/>
      <point x="1015" y="162" type="line"/>
      <point x="1005" y="162" type="line"/>
      <point x="999" y="55" type="line" smooth="yes"/>
      <point x="996" y="8"/>
      <point x="964" y="10"/>
      <point x="935" y="10" type="curve" smooth="yes"/>
      <point x="580" y="10" type="line"/>
      <point x="578" y="370" type="line"/>
      <point x="878" y="370" type="line"/>
      <point x="878" y="380" type="line"/>
      <point x="578" y="380" type="line"/>
      <point x="578" y="704" type="line"/>
      <point x="896" y="704" type="line" smooth="yes"/>
      <point x="934" y="704"/>
      <point x="951" y="699"/>
      <point x="954" y="669" type="curve" smooth="yes"/>
      <point x="962" y="552" type="line"/>
      <point x="972" y="552" type="line"/>
      <point x="963" y="714" type="line"/>
      <point x="554" y="714" type="line"/>
      <point x="505" y="719"/>
      <point x="455" y="719"/>
      <point x="421" y="719" type="curve" smooth="yes"/>
      <point x="194" y="719"/>
      <point x="72" y="588"/>
      <point x="72" y="359" type="curve" smooth="yes"/>
      <point x="72" y="113"/>
      <point x="188" y="-4"/>
    </contour>
    <contour>
      <point x="420" y="6" type="curve" smooth="yes"/>
      <point x="205" y="6"/>
      <point x="100" y="118"/>
      <point x="100" y="358" type="curve" smooth="yes"/>
      <point x="100" y="587"/>
      <point x="211" y="709"/>
      <point x="421" y="709" type="curve" smooth="yes"/>
      <point x="457" y="709"/>
      <point x="507" y="710"/>
      <point x="552" y="706" type="curve"/>
      <point x="552" y="12" type="line"/>
      <point x="516" y="7"/>
      <point x="477" y="6"/>
    </contour>
  </outline>
</glyph>
<glyph name="uni0184" format="2">
  <advance width="619"/>
  <unicode hex="0184"/>
  <anchor x="310" y="0" name="bottom"/>
  <anchor x="310" y="714" name="top"/>
  <outline>
    <contour>
      <point x="329" y="-10" type="curve" smooth="yes"/>
      <point x="503" y="-10"/>
      <point x="588" y="78"/>
      <point x="588" y="207" type="curve" smooth="yes"/>
      <point x="588" y="349"/>
      <point x="504" y="388"/>
      <point x="337" y="388" type="curve" smooth="yes"/>
      <point x="165" y="388" type="line"/>
      <point x="165" y="614" type="line" smooth="yes"/>
      <point x="165" y="693"/>
      <point x="167" y="704"/>
      <point x="227" y="704" type="curve" smooth="yes"/>
      <point x="264" y="704" type="line"/>
      <point x="264" y="714" type="line"/>
      <point x="13" y="714" type="line"/>
      <point x="13" y="704" type="line"/>
      <point x="83" y="704" type="line" smooth="yes"/>
      <point x="129" y="704"/>
      <point x="137" y="693"/>
      <point x="137" y="614" type="curve" smooth="yes"/>
      <point x="137" y="166" type="line" smooth="yes"/>
      <point x="137" y="65"/>
      <point x="163" y="-10"/>
    </contour>
    <contour>
      <point x="339" y="0" type="curve" smooth="yes"/>
      <point x="196" y="0"/>
      <point x="165" y="44"/>
      <point x="165" y="147" type="curve" smooth="yes"/>
      <point x="165" y="378" type="line"/>
      <point x="320" y="378" type="line" smooth="yes"/>
      <point x="482" y="378"/>
      <point x="560" y="353"/>
      <point x="560" y="207" type="curve" smooth="yes"/>
      <point x="560" y="96"/>
      <point x="510" y="0"/>
    </contour>
  </outline>
</glyph>
<glyph name="uni018C" format="2">
  <advance width="701"/>
  <unicode hex="018C"/>
  <anchor x="356" y="0" name="bottom"/>
  <anchor x="356" y="760" name="top"/>
  <outline>
    <contour>
      <point x="324" y="-10" type="curve" smooth="yes"/>
      <point x="425" y="-10"/>
      <point x="511" y="62"/>
      <point x="538" y="166" type="curve"/>
      <point x="540" y="166" type="line"/>
      <point x="540" y="0" type="line"/>
      <point x="681" y="0" type="line"/>
      <point x="681" y="10" type="line"/>
      <point x="659" y="10" type="line" smooth="yes"/>
      <point x="567" y="10"/>
      <point x="568" y="11"/>
      <point x="568" y="92" type="curve" smooth="yes"/>
      <point x="568" y="760" type="line"/>
      <point x="177" y="760" type="line"/>
      <point x="165" y="626" type="line"/>
      <point x="175" y="626" type="line"/>
      <point x="181" y="642" type="line" smooth="yes"/>
      <point x="195" y="706"/>
      <point x="207" y="740"/>
      <point x="227" y="740" type="curve" smooth="yes"/>
      <point x="540" y="740" type="line"/>
      <point x="540" y="542" type="line" smooth="yes"/>
      <point x="540" y="521"/>
      <point x="540" y="388"/>
      <point x="542" y="373" type="curve"/>
      <point x="540" y="373" type="line"/>
      <point x="517" y="483"/>
      <point x="434" y="542"/>
      <point x="310" y="542" type="curve" smooth="yes"/>
      <point x="140" y="542"/>
      <point x="83" y="410"/>
      <point x="83" y="267" type="curve" smooth="yes"/>
      <point x="83" y="116"/>
      <point x="176" y="-10"/>
    </contour>
    <contour>
      <point x="323" y="10" type="curve" smooth="yes"/>
      <point x="205" y="6"/>
      <point x="111" y="114"/>
      <point x="111" y="263" type="curve" smooth="yes"/>
      <point x="111" y="405"/>
      <point x="156" y="522"/>
      <point x="308" y="522" type="curve" smooth="yes"/>
      <point x="490" y="522"/>
      <point x="541" y="440"/>
      <point x="541" y="265" type="curve" smooth="yes"/>
      <point x="541" y="116"/>
      <point x="471" y="14"/>
    </contour>
  </outline>
</glyph>
<glyph name="uni0194" format="2">
  <advance width="796"/>
  <unicode hex="0194"/>
  <anchor x="399" y="-240" name="bottom"/>
  <anchor x="399" y="714" name="top"/>
  <outline>
    <contour>
      <point x="399" y="-240" type="curve" smooth="yes"/>
      <point x="458" y="-240"/>
      <point x="509" y="-208"/>
      <point x="509" y="-109" type="curve" smooth="yes"/>
      <point x="509" y="-12"/>
      <point x="465" y="90"/>
      <point x="400" y="171" type="curve"/>
      <point x="661" y="648" type="line" smooth="yes"/>
      <point x="686" y="688"/>
      <point x="688" y="704"/>
      <point x="734" y="704" type="curve" smooth="yes"/>
      <point x="764" y="704" type="line"/>
      <point x="764" y="714" type="line"/>
      <point x="539" y="714" type="line"/>
      <point x="539" y="704" type="line"/>
      <point x="555" y="704" type="line" smooth="yes"/>
      <point x="622" y="704"/>
      <point x="646" y="700"/>
      <point x="646" y="672" type="curve" smooth="yes"/>
      <point x="646" y="657"/>
      <point x="652" y="650"/>
      <point x="634" y="618" type="curve" smooth="yes"/>
      <point x="393" y="178" type="line"/>
      <point x="138" y="635" type="line" smooth="yes"/>
      <point x="131" y="640"/>
      <point x="116" y="669"/>
      <point x="116" y="673" type="curve" smooth="yes"/>
      <point x="116" y="698"/>
      <point x="122" y="704"/>
      <point x="158" y="704" type="curve" smooth="yes"/>
      <point x="258" y="704" type="line"/>
      <point x="258" y="714" type="line"/>
      <point x="0" y="714" type="line"/>
      <point x="0" y="704" type="line"/>
      <point x="27" y="704" type="line" smooth="yes"/>
      <point x="54" y="704"/>
      <point x="63" y="709"/>
      <point x="88" y="662" type="curve" smooth="yes"/>
      <point x="374" y="165" type="line"/>
      <point x="326" y="96"/>
      <point x="269" y="-22"/>
      <point x="269" y="-101" type="curve" smooth="yes"/>
      <point x="269" y="-197"/>
      <point x="309" y="-240"/>
    </contour>
    <contour>
      <point x="394" y="-230" type="curve" smooth="yes"/>
      <point x="311" y="-230"/>
      <point x="279" y="-189"/>
      <point x="279" y="-101" type="curve" smooth="yes"/>
      <point x="279" y="-43"/>
      <point x="320" y="69"/>
      <point x="380" y="161" type="curve"/>
      <point x="410" y="140"/>
      <point x="479" y="-13"/>
      <point x="479" y="-106" type="curve" smooth="yes"/>
      <point x="479" y="-185"/>
      <point x="460" y="-230"/>
    </contour>
  </outline>
</glyph>
<glyph name="uni01A8" format="2">
  <advance width="496"/>
  <unicode hex="01A8"/>
  <anchor x="249" y="0" name="bottom"/>
  <anchor x="249" y="536" name="top"/>
  <outline>
    <contour>
      <point x="239" y="-10" type="curve" smooth="yes"/>
      <point x="348" y="-10"/>
      <point x="419" y="60"/>
      <point x="419" y="80" type="curve" smooth="yes"/>
      <point x="419" y="112"/>
      <point x="403" y="122"/>
      <point x="382" y="120" type="curve"/>
      <point x="394" y="56"/>
      <point x="330" y="0"/>
      <point x="240" y="0" type="curve" smooth="yes"/>
      <point x="135" y="0"/>
      <point x="88" y="65"/>
      <point x="88" y="132" type="curve" smooth="yes"/>
      <point x="88" y="190"/>
      <point x="104" y="210"/>
      <point x="258" y="275" type="curve" smooth="yes"/>
      <point x="357" y="308"/>
      <point x="418" y="346"/>
      <point x="418" y="423" type="curve" smooth="yes"/>
      <point x="418" y="493"/>
      <point x="352" y="543"/>
      <point x="269" y="543" type="curve" smooth="yes"/>
      <point x="132" y="543"/>
      <point x="82" y="467"/>
      <point x="82" y="442" type="curve" smooth="yes"/>
      <point x="82" y="413"/>
      <point x="103" y="403"/>
      <point x="114" y="403" type="curve"/>
      <point x="114" y="518"/>
      <point x="189" y="533"/>
      <point x="269" y="533" type="curve" smooth="yes"/>
      <point x="345" y="533"/>
      <point x="390" y="493"/>
      <point x="390" y="422" type="curve" smooth="yes"/>
      <point x="390" y="350"/>
      <point x="316" y="321"/>
      <point x="250" y="301" type="curve" smooth="yes"/>
      <point x="86" y="235"/>
      <point x="60" y="193"/>
      <point x="60" y="134" type="curve" smooth="yes"/>
      <point x="60" y="31"/>
      <point x="150" y="-10"/>
    </contour>
  </outline>
</glyph>
<glyph name="uni01AA" format="2">
  <advance width="440"/>
  <unicode hex="01AA"/>
  <anchor x="220" y="-240" name="bottom"/>
  <anchor x="220" y="751" name="top"/>
  <outline>
    <contour>
      <point x="270" y="-240" type="curve" smooth="yes"/>
      <point x="301" y="-240"/>
      <point x="326" y="-239"/>
      <point x="347" y="-237" type="curve"/>
      <point x="347" y="-227" type="line"/>
      <point x="325" y="-229"/>
      <point x="301" y="-230"/>
      <point x="274" y="-230" type="curve" smooth="yes"/>
      <point x="202" y="-230"/>
      <point x="186" y="-198"/>
      <point x="186" y="-83" type="curve" smooth="yes"/>
      <point x="186" y="646" type="line" smooth="yes"/>
      <point x="186" y="704"/>
      <point x="156" y="751"/>
      <point x="72" y="751" type="curve" smooth="yes"/>
      <point x="7" y="751"/>
      <point x="-37" y="714"/>
      <point x="-37" y="655" type="curve" smooth="yes"/>
      <point x="-37" y="598"/>
      <point x="12" y="564"/>
      <point x="71" y="564" type="curve" smooth="yes"/>
      <point x="108" y="564"/>
      <point x="134" y="569"/>
      <point x="158" y="591" type="curve"/>
      <point x="158" y="-89" type="line" smooth="yes"/>
      <point x="158" y="-193"/>
      <point x="185" y="-240"/>
    </contour>
    <contour>
      <point x="73" y="574" type="curve" smooth="yes"/>
      <point x="19" y="574"/>
      <point x="-27" y="604"/>
      <point x="-27" y="655" type="curve" smooth="yes"/>
      <point x="-27" y="708"/>
      <point x="16" y="741"/>
      <point x="80" y="741" type="curve" smooth="yes"/>
      <point x="141" y="741"/>
      <point x="158" y="709"/>
      <point x="158" y="648" type="curve" smooth="yes"/>
      <point x="158" y="601"/>
      <point x="140" y="574"/>
    </contour>
  </outline>
</glyph>
<glyph name="uni01B9" format="2">
  <advance width="544"/>
  <unicode hex="01B9"/>
  <anchor x="273" y="-240" name="bottom"/>
  <anchor x="273" y="536" name="top"/>
  <outline>
    <contour>
      <point x="307" y="-240" type="curve" smooth="yes"/>
      <point x="407" y="-240"/>
      <point x="488" y="-192"/>
      <point x="488" y="-163" type="curve" smooth="yes"/>
      <point x="488" y="-150"/>
      <point x="480" y="-146"/>
      <point x="468" y="-145" type="curve"/>
      <point x="462" y="-202"/>
      <point x="376" y="-230"/>
      <point x="309" y="-230" type="curve" smooth="yes"/>
      <point x="191" y="-230"/>
      <point x="101" y="-143"/>
      <point x="101" y="3" type="curve" smooth="yes"/>
      <point x="101" y="119"/>
      <point x="168" y="203"/>
      <point x="342" y="203" type="curve" smooth="yes"/>
      <point x="371" y="203" type="line"/>
      <point x="371" y="213" type="line"/>
      <point x="119" y="513" type="line"/>
      <point x="453" y="513" type="line" smooth="yes"/>
      <point x="481" y="513"/>
      <point x="480" y="517"/>
      <point x="484" y="512" type="curve" smooth="yes"/>
      <point x="495" y="429" type="line"/>
      <point x="505" y="429" type="line"/>
      <point x="502" y="538" type="line"/>
      <point x="99" y="538" type="line"/>
      <point x="99" y="522" type="line"/>
      <point x="358" y="215" type="line"/>
      <point x="108" y="213"/>
      <point x="73" y="65"/>
      <point x="73" y="-11" type="curve" smooth="yes"/>
      <point x="73" y="-142"/>
      <point x="165" y="-240"/>
    </contour>
  </outline>
</glyph>
<glyph name="uni01C1" format="2">
  <advance width="694"/>
  <unicode hex="01C1"/>
  <anchor x="347" y="0" name="bottom"/>
  <anchor x="347" y="760" name="top"/>
  <outline>
    <contour>
      <point x="454" y="0" type="line"/>
      <point x="474" y="0" type="line"/>
      <point x="474" y="760" type="line"/>
      <point x="454" y="760" type="line"/>
    </contour>
    <contour>
      <point x="220" y="0" type="line"/>
      <point x="240" y="0" type="line"/>
      <point x="240" y="760" type="line"/>
      <point x="220" y="760" type="line"/>
    </contour>
  </outline>
</glyph>
<glyph name="uni0221" format="2">
  <advance width="844"/>
  <unicode hex="0221"/>
  <anchor x="423" y="0" name="bottom"/>
  <anchor x="423" y="760" name="top"/>
  <outline>
    <contour>
      <point x="491" y="-65" type="line"/>
      <point x="501" y="-11"/>
      <point x="514" y="40"/>
      <point x="542" y="71" type="curve"/>
      <point x="549" y="30"/>
      <point x="618" y="-18"/>
      <point x="729" y="-18" type="curve" smooth="yes"/>
      <point x="828" y="-18"/>
      <point x="875" y="22"/>
      <point x="875" y="69" type="curve" smooth="yes"/>
      <point x="875" y="116"/>
      <point x="839" y="151"/>
      <point x="739" y="151" type="curve" smooth="yes"/>
      <point x="667" y="151"/>
      <point x="608" y="125"/>
      <point x="568" y="100" type="curve"/>
      <point x="568" y="760" type="line"/>
      <point x="423" y="760" type="line"/>
      <point x="423" y="750" type="line"/>
      <point x="468" y="750" type="line" smooth="yes"/>
      <point x="532" y="750"/>
      <point x="540" y="747"/>
      <point x="540" y="678" type="curve" smooth="yes"/>
      <point x="540" y="542" type="line" smooth="yes"/>
      <point x="540" y="521"/>
      <point x="540" y="388"/>
      <point x="542" y="373" type="curve"/>
      <point x="540" y="373" type="line"/>
      <point x="517" y="483"/>
      <point x="434" y="542"/>
      <point x="310" y="542" type="curve" smooth="yes"/>
      <point x="140" y="542"/>
      <point x="83" y="410"/>
      <point x="83" y="267" type="curve" smooth="yes"/>
      <point x="83" y="116"/>
      <point x="176" y="-10"/>
      <point x="324" y="-10" type="curve" smooth="yes"/>
      <point x="425" y="-10"/>
      <point x="511" y="62"/>
      <point x="538" y="166" type="curve"/>
      <point x="540" y="166" type="line"/>
      <point x="540" y="108"/>
      <point x="544" y="82"/>
      <point x="538" y="85" type="curve"/>
      <point x="508" y="41"/>
      <point x="495" y="15"/>
      <point x="481" y="-64" type="curve"/>
    </contour>
    <contour>
      <point x="323" y="10" type="curve" smooth="yes"/>
      <point x="205" y="6"/>
      <point x="111" y="114"/>
      <point x="111" y="263" type="curve" smooth="yes"/>
      <point x="111" y="405"/>
      <point x="156" y="522"/>
      <point x="308" y="522" type="curve" smooth="yes"/>
      <point x="490" y="522"/>
      <point x="541" y="440"/>
      <point x="541" y="265" type="curve" smooth="yes"/>
      <point x="541" y="116"/>
      <point x="471" y="14"/>
    </contour>
    <contour>
      <point x="729" y="-8" type="curve" smooth="yes"/>
      <point x="663" y="-8"/>
      <point x="577" y="10"/>
      <point x="569" y="93" type="curve"/>
      <point x="619" y="122"/>
      <point x="675" y="141"/>
      <point x="739" y="141" type="curve" smooth="yes"/>
      <point x="823" y="141"/>
      <point x="863" y="125"/>
      <point x="863" y="69" type="curve" smooth="yes"/>
      <point x="863" y="8"/>
      <point x="810" y="-8"/>
    </contour>
  </outline>
</glyph>
<glyph name="uni0222" format="2">
  <advance width="707"/>
  <unicode hex="0222"/>
  <anchor x="354" y="0" name="bottom"/>
  <anchor x="354" y="714" name="top"/>
  <outline>
    <contour>
      <point x="355" y="-10" type="curve" smooth="yes"/>
      <point x="534" y="-10"/>
      <point x="622" y="79"/>
      <point x="622" y="211" type="curve" smooth="yes"/>
      <point x="622" y="309"/>
      <point x="533" y="415"/>
      <point x="428" y="418" type="curve"/>
      <point x="524" y="434"/>
      <point x="593" y="484"/>
      <point x="593" y="598" type="curve" smooth="yes"/>
      <point x="593" y="678"/>
      <point x="559" y="724"/>
      <point x="519" y="724" type="curve"/>
      <point x="534" y="702"/>
      <point x="565" y="659"/>
      <point x="565" y="597" type="curve" smooth="yes"/>
      <point x="565" y="465"/>
      <point x="482" y="424"/>
      <point x="355" y="424" type="curve" smooth="yes"/>
      <point x="221" y="424"/>
      <point x="141" y="464"/>
      <point x="141" y="595" type="curve" smooth="yes"/>
      <point x="141" y="664"/>
      <point x="172" y="702"/>
      <point x="187" y="724" type="curve"/>
      <point x="143" y="724"/>
      <point x="113" y="669"/>
      <point x="113" y="598" type="curve" smooth="yes"/>
      <point x="113" y="483"/>
      <point x="180" y="434"/>
      <point x="278" y="419" type="curve"/>
      <point x="179" y="414"/>
      <point x="84" y="321"/>
      <point x="84" y="210" type="curve" smooth="yes"/>
      <point x="84" y="60"/>
      <point x="196" y="-10"/>
    </contour>
    <contour>
      <point x="353" y="0" type="curve" smooth="yes"/>
      <point x="204" y="0"/>
      <point x="112" y="73"/>
      <point x="112" y="210" type="curve" smooth="yes"/>
      <point x="112" y="352"/>
      <point x="194" y="414"/>
      <point x="354" y="414" type="curve" smooth="yes"/>
      <point x="515" y="414"/>
      <point x="594" y="353"/>
      <point x="594" y="211" type="curve" smooth="yes"/>
      <point x="594" y="80"/>
      <point x="513" y="0"/>
    </contour>
  </outline>
</glyph>
<glyph name="uni0224" format="2">
  <advance width="604"/>
  <unicode hex="0224"/>
  <anchor x="302" y="-134" name="bottom"/>
  <anchor x="302" y="714" name="top"/>
  <outline>
    <contour>
      <point x="495" y="-120" type="curve"/>
      <point x="518" y="-120"/>
      <point x="556" y="-111"/>
      <point x="556" y="-55" type="curve" smooth="yes"/>
      <point x="556" y="-8"/>
      <point x="517" y="15"/>
      <point x="442" y="15" type="curve" smooth="yes"/>
      <point x="63" y="15" type="line"/>
      <point x="546" y="677" type="line"/>
      <point x="546" y="714" type="line"/>
      <point x="63" y="714" type="line"/>
      <point x="57" y="582" type="line"/>
      <point x="67" y="582" type="line"/>
      <point x="72" y="630" type="line" smooth="yes"/>
      <point x="77" y="685"/>
      <point x="81" y="699"/>
      <point x="133" y="699" type="curve" smooth="yes"/>
      <point x="525" y="699" type="line"/>
      <point x="34" y="22" type="line"/>
      <point x="34" y="0" type="line"/>
      <point x="441" y="0" type="line" smooth="yes"/>
      <point x="491" y="0"/>
      <point x="528" y="-23"/>
      <point x="528" y="-55" type="curve" smooth="yes"/>
      <point x="528" y="-79"/>
      <point x="516" y="-94"/>
    </contour>
  </outline>
</glyph>
<glyph name="uni023F" format="2">
  <advance width="495"/>
  <unicode hex="023F"/>
  <anchor x="248" y="-238" name="bottom"/>
  <anchor x="248" y="536" name="top"/>
  <anchor x="405" y="536" name="topright"/>
  <outline>
    <contour>
      <point x="374" y="-238" type="curve" smooth="yes"/>
      <point x="434" y="-238"/>
      <point x="450" y="-192"/>
      <point x="450" y="-163" type="curve" smooth="yes"/>
      <point x="450" y="-153"/>
      <point x="441" y="-141"/>
      <point x="425" y="-141" type="curve"/>
      <point x="425" y="-198"/>
      <point x="407" y="-213"/>
      <point x="365" y="-213" type="curve" smooth="yes"/>
      <point x="319" y="-213"/>
      <point x="294" y="-184"/>
      <point x="280" y="-112" type="curve" smooth="yes"/>
      <point x="271" y="-63"/>
      <point x="249" y="-2"/>
      <point x="213" y="4" type="curve"/>
      <point x="169" y="3" type="line"/>
      <point x="231" y="-10"/>
      <point x="262" y="-53"/>
      <point x="272" y="-114" type="curve" smooth="yes"/>
      <point x="293" y="-237"/>
      <point x="339" y="-238"/>
    </contour>
    <component base="s"/>
  </outline>
</glyph>
<glyph name="uni0240" format="2">
  <advance width="621"/>
  <unicode hex="0240"/>
  <anchor x="323" y="-238" name="bottom"/>
  <anchor x="323" y="536" name="top"/>
  <outline>
    <contour>
      <point x="526" y="-238" type="curve" smooth="yes"/>
      <point x="578" y="-238"/>
      <point x="633" y="-220"/>
      <point x="633" y="-177" type="curve" smooth="yes"/>
      <point x="633" y="-168"/>
      <point x="626" y="-151"/>
      <point x="611" y="-152" type="curve"/>
      <point x="611" y="-183"/>
      <point x="577" y="-213"/>
      <point x="527" y="-213" type="curve" smooth="yes"/>
      <point x="443" y="-213"/>
      <point x="405" y="-176"/>
      <point x="361" y="-112" type="curve" smooth="yes"/>
      <point x="317" y="-50"/>
      <point x="269" y="18"/>
      <point x="127" y="15" type="curve"/>
      <point x="536" y="534" type="line"/>
      <point x="536" y="536" type="line"/>
      <point x="109" y="536" type="line"/>
      <point x="101" y="420" type="line"/>
      <point x="111" y="420" type="line"/>
      <point x="113" y="452" type="line" smooth="yes"/>
      <point x="116" y="507"/>
      <point x="124" y="521"/>
      <point x="176" y="521" type="curve" smooth="yes"/>
      <point x="493" y="521" type="line"/>
      <point x="88" y="2" type="line"/>
      <point x="88" y="0" type="line"/>
      <point x="137" y="0" type="line" smooth="yes"/>
      <point x="272" y="0"/>
      <point x="286" y="-50"/>
      <point x="331" y="-106" type="curve" smooth="yes"/>
      <point x="372" y="-161"/>
      <point x="418" y="-238"/>
    </contour>
  </outline>
</glyph>
<glyph name="uni024A" format="2">
  <advance width="898"/>
  <unicode hex="024A"/>
  <anchor x="449" y="-240" name="bottom"/>
  <anchor x="449" y="714" name="top"/>
  <outline>
    <contour>
      <point x="829" y="-240" type="curve" smooth="yes"/>
      <point x="876" y="-240"/>
      <point x="913" y="-233"/>
      <point x="947" y="-227" type="curve"/>
      <point x="947" y="-217" type="line"/>
      <point x="912" y="-225"/>
      <point x="878" y="-230"/>
      <point x="829" y="-230" type="curve" smooth="yes"/>
      <point x="762" y="-230"/>
      <point x="747" y="-148"/>
      <point x="747" y="-48" type="curve" smooth="yes"/>
      <point x="747" y="614" type="line" smooth="yes"/>
      <point x="747" y="692"/>
      <point x="781" y="704"/>
      <point x="801" y="704" type="curve" smooth="yes"/>
      <point x="862" y="704" type="line"/>
      <point x="862" y="714" type="line"/>
      <point x="720" y="714" type="line"/>
      <point x="720" y="508" type="line"/>
      <point x="718" y="508" type="line"/>
      <point x="696" y="590"/>
      <point x="648" y="723"/>
      <point x="434" y="723" type="curve" smooth="yes"/>
      <point x="158" y="723"/>
      <point x="72" y="521"/>
      <point x="72" y="362" type="curve" smooth="yes"/>
      <point x="72" y="177"/>
      <point x="163" y="-11"/>
      <point x="412" y="-11" type="curve" smooth="yes"/>
      <point x="564" y="-11"/>
      <point x="672" y="51"/>
      <point x="717" y="218" type="curve"/>
      <point x="719" y="218" type="line"/>
      <point x="721" y="140"/>
      <point x="719" y="58"/>
      <point x="719" y="30" type="curve" smooth="yes"/>
      <point x="719" y="-105" type="line" smooth="yes"/>
      <point x="719" y="-196"/>
      <point x="754" y="-240"/>
    </contour>
    <contour>
      <point x="412" y="-1" type="curve" smooth="yes"/>
      <point x="190" y="-1"/>
      <point x="100" y="169"/>
      <point x="100" y="361" type="curve" smooth="yes"/>
      <point x="100" y="525"/>
      <point x="194" y="713"/>
      <point x="434" y="713" type="curve" smooth="yes"/>
      <point x="683" y="713"/>
      <point x="720" y="530"/>
      <point x="720" y="358" type="curve" smooth="yes"/>
      <point x="720" y="77"/>
      <point x="585" y="-1"/>
    </contour>
  </outline>
</glyph>
<glyph name="uni0251" format="2">
  <advance width="702"/>
  <unicode hex="0251"/>
  <anchor x="351" y="0" name="bottom"/>
  <anchor x="351" y="536" name="top"/>
  <outline>
    <contour>
      <point x="315" y="-10" type="curve" smooth="yes"/>
      <point x="408" y="-10"/>
      <point x="500" y="37"/>
      <point x="536" y="162" type="curve"/>
      <point x="539" y="162" type="line"/>
      <point x="539" y="56"/>
      <point x="555" y="-6"/>
      <point x="610" y="-6" type="curve" smooth="yes"/>
      <point x="648" y="-6"/>
      <point x="674" y="1"/>
      <point x="689" y="3" type="curve"/>
      <point x="689" y="14" type="line"/>
      <point x="664" y="6"/>
      <point x="641" y="4"/>
      <point x="626" y="4" type="curve" smooth="yes"/>
      <point x="567" y="4"/>
      <point x="567" y="47"/>
      <point x="567" y="154" type="curve" smooth="yes"/>
      <point x="567" y="536" type="line"/>
      <point x="555" y="536" type="line"/>
      <point x="540" y="387" type="line"/>
      <point x="538" y="387" type="line"/>
      <point x="506" y="486"/>
      <point x="444" y="540"/>
      <point x="324" y="540" type="curve" smooth="yes"/>
      <point x="160" y="540"/>
      <point x="83" y="427"/>
      <point x="83" y="270" type="curve" smooth="yes"/>
      <point x="83" y="102"/>
      <point x="163" y="-10"/>
    </contour>
    <contour>
      <point x="315" y="10" type="curve" smooth="yes"/>
      <point x="203" y="6"/>
      <point x="111" y="107"/>
      <point x="111" y="264" type="curve" smooth="yes"/>
      <point x="111" y="416"/>
      <point x="176" y="520"/>
      <point x="324" y="520" type="curve" smooth="yes"/>
      <point x="472" y="520"/>
      <point x="541" y="464"/>
      <point x="541" y="264" type="curve" smooth="yes"/>
      <point x="541" y="126"/>
      <point x="463" y="14"/>
    </contour>
  </outline>
</glyph>
<glyph name="eopenreversedhook" format="2">
  <advance width="769"/>
  <unicode hex="025D"/>
  <anchor x="330" y="0" name="bottom"/>
  <anchor x="330" y="536" name="top"/>
  <outline>
    <contour>
      <point x="699" y="241" type="curve" smooth="yes"/>
      <point x="712" y="241"/>
      <point x="769" y="250"/>
      <point x="769" y="281" type="curve" smooth="yes"/>
      <point x="769" y="292"/>
      <point x="766" y="293"/>
      <point x="756" y="297" type="curve"/>
      <point x="744" y="274"/>
      <point x="719" y="265"/>
      <point x="692" y="265" type="curve" smooth="yes"/>
      <point x="631" y="265"/>
      <point x="614" y="317"/>
      <point x="605" y="341" type="curve" smooth="yes"/>
      <point x="572" y="447" type="line"/>
      <point x="443" y="402" type="line"/>
      <point x="446" y="393" type="line"/>
      <point x="565" y="434" type="line"/>
      <point x="607" y="293" type="line" smooth="yes"/>
      <point x="614" y="277"/>
      <point x="648" y="241"/>
    </contour>
    <component base="afii10073"/>
  </outline>
</glyph>
<glyph name="uni0264" format="2">
  <advance width="753"/>
  <unicode hex="0264"/>
  <anchor x="377" y="0" name="bottom"/>
  <anchor x="377" y="536" name="top"/>
  <outline>
    <contour>
      <point x="394" y="2" type="curve" smooth="yes"/>
      <point x="433" y="2"/>
      <point x="457" y="37"/>
      <point x="457" y="77" type="curve" smooth="yes"/>
      <point x="457" y="130"/>
      <point x="426" y="210"/>
      <point x="395" y="268" type="curve"/>
      <point x="456" y="444"/>
      <point x="500" y="516"/>
      <point x="608" y="516" type="curve" smooth="yes"/>
      <point x="674" y="516"/>
      <point x="716" y="490"/>
      <point x="716" y="429" type="curve"/>
      <point x="736" y="433"/>
      <point x="741" y="441"/>
      <point x="741" y="457" type="curve" smooth="yes"/>
      <point x="741" y="509"/>
      <point x="691" y="541"/>
      <point x="615" y="541" type="curve" smooth="yes"/>
      <point x="509" y="541"/>
      <point x="446" y="452"/>
      <point x="388" y="282" type="curve"/>
      <point x="376" y="275"/>
      <point x="330" y="541"/>
      <point x="141" y="541" type="curve" smooth="yes"/>
      <point x="45" y="541"/>
      <point x="25" y="489"/>
      <point x="25" y="461" type="curve" smooth="yes"/>
      <point x="25" y="440"/>
      <point x="38" y="426"/>
      <point x="61" y="426" type="curve"/>
      <point x="62" y="518"/>
      <point x="95" y="531"/>
      <point x="133" y="531" type="curve" smooth="yes"/>
      <point x="264" y="531"/>
      <point x="299" y="390"/>
      <point x="376" y="247" type="curve"/>
      <point x="359" y="201"/>
      <point x="341" y="129"/>
      <point x="341" y="83" type="curve" smooth="yes"/>
      <point x="341" y="35"/>
      <point x="362" y="2"/>
    </contour>
    <contour>
      <point x="398" y="12" type="curve" smooth="yes"/>
      <point x="366" y="12"/>
      <point x="351" y="43"/>
      <point x="351" y="79" type="curve" smooth="yes"/>
      <point x="351" y="114"/>
      <point x="365" y="185"/>
      <point x="383" y="238" type="curve"/>
      <point x="408" y="182"/>
      <point x="426" y="114"/>
      <point x="426" y="89" type="curve" smooth="yes"/>
      <point x="426" y="43"/>
      <point x="412" y="12"/>
    </contour>
  </outline>
</glyph>
<glyph name="uni0271" format="2">
  <advance width="1054"/>
  <unicode hex="0271"/>
  <anchor x="528" y="-238" name="bottom"/>
  <anchor x="528" y="536" name="top"/>
  <outline>
    <contour>
      <point x="834" y="-238" type="curve" smooth="yes"/>
      <point x="911" y="-238"/>
      <point x="957" y="-191"/>
      <point x="957" y="-189" type="curve" smooth="yes"/>
      <point x="957" y="358" type="line" smooth="yes"/>
      <point x="957" y="472"/>
      <point x="903" y="544"/>
      <point x="766" y="542" type="curve" smooth="yes"/>
      <point x="650" y="540"/>
      <point x="593" y="478"/>
      <point x="573" y="396" type="curve"/>
      <point x="571" y="396" type="line"/>
      <point x="560" y="481"/>
      <point x="516" y="542"/>
      <point x="393" y="542" type="curve" smooth="yes"/>
      <point x="308" y="542"/>
      <point x="234" y="489"/>
      <point x="204" y="418" type="curve"/>
      <point x="202" y="418" type="line"/>
      <point x="202" y="536" type="line"/>
      <point x="69" y="536" type="line"/>
      <point x="69" y="526" type="line"/>
      <point x="101" y="526" type="line" smooth="yes"/>
      <point x="162" y="526"/>
      <point x="173" y="525"/>
      <point x="173" y="462" type="curve" smooth="yes"/>
      <point x="173" y="80" type="line" smooth="yes"/>
      <point x="173" y="12"/>
      <point x="169" y="10"/>
      <point x="85" y="10" type="curve" smooth="yes"/>
      <point x="48" y="10" type="line"/>
      <point x="48" y="0" type="line"/>
      <point x="323" y="0" type="line"/>
      <point x="323" y="10" type="line"/>
      <point x="285" y="10" type="line" smooth="yes"/>
      <point x="205" y="10"/>
      <point x="201" y="12"/>
      <point x="201" y="80" type="curve" smooth="yes"/>
      <point x="201" y="353" type="line" smooth="yes"/>
      <point x="201" y="440"/>
      <point x="266" y="525"/>
      <point x="383" y="525" type="curve" smooth="yes"/>
      <point x="509" y="525"/>
      <point x="551" y="460"/>
      <point x="551" y="384" type="curve" smooth="yes"/>
      <point x="551" y="0" type="line"/>
      <point x="696" y="0" type="line"/>
      <point x="696" y="10" type="line"/>
      <point x="669" y="10" type="line" smooth="yes"/>
      <point x="581" y="10"/>
      <point x="579" y="12"/>
      <point x="579" y="82" type="curve" smooth="yes"/>
      <point x="579" y="368" type="line" smooth="yes"/>
      <point x="579" y="454"/>
      <point x="642" y="527"/>
      <point x="768" y="527" type="curve" smooth="yes"/>
      <point x="882" y="527"/>
      <point x="929" y="472"/>
      <point x="929" y="384" type="curve" smooth="yes"/>
      <point x="929" y="-215" type="line" smooth="yes"/>
      <point x="929" y="-222"/>
      <point x="867" y="-228"/>
      <point x="834" y="-228" type="curve" smooth="yes"/>
      <point x="811" y="-228"/>
      <point x="766" y="-225"/>
      <point x="746" y="-182" type="curve"/>
      <point x="745" y="-186"/>
      <point x="740" y="-184"/>
      <point x="740" y="-191" type="curve" smooth="yes"/>
      <point x="740" y="-217"/>
      <point x="778" y="-238"/>
    </contour>
  </outline>
</glyph>
<glyph name="uni0294" format="2">
  <advance width="561"/>
  <unicode hex="0294"/>
  <anchor x="281" y="0" name="bottom"/>
  <anchor x="281" y="762" name="top"/>
  <outline>
    <contour>
      <point x="84" y="0" type="line"/>
      <point x="382" y="0" type="line"/>
      <point x="382" y="10" type="line"/>
      <point x="344" y="10" type="line" smooth="yes"/>
      <point x="256" y="10"/>
      <point x="246" y="22"/>
      <point x="246" y="91" type="curve" smooth="yes"/>
      <point x="246" y="333" type="line"/>
      <point x="469" y="409"/>
      <point x="513" y="468"/>
      <point x="513" y="560" type="curve" smooth="yes"/>
      <point x="513" y="692"/>
      <point x="440" y="762"/>
      <point x="291" y="762" type="curve" smooth="yes"/>
      <point x="174" y="762"/>
      <point x="76" y="712"/>
      <point x="76" y="643" type="curve" smooth="yes"/>
      <point x="76" y="614"/>
      <point x="88" y="613"/>
      <point x="96" y="611" type="curve"/>
      <point x="97" y="700"/>
      <point x="174" y="752"/>
      <point x="292" y="752" type="curve" smooth="yes"/>
      <point x="416" y="752"/>
      <point x="485" y="677"/>
      <point x="485" y="572" type="curve" smooth="yes"/>
      <point x="485" y="485"/>
      <point x="461" y="436"/>
      <point x="218" y="354" type="curve"/>
      <point x="218" y="91" type="line" smooth="yes"/>
      <point x="218" y="22"/>
      <point x="206" y="10"/>
      <point x="115" y="10" type="curve" smooth="yes"/>
      <point x="84" y="10" type="line"/>
    </contour>
  </outline>
</glyph>
<glyph name="uni029B" format="2">
  <advance width="718"/>
  <unicode hex="029B"/>
  <anchor x="360" y="0" name="bottom"/>
  <anchor x="360" y="760" name="top"/>
  <outline>
    <contour>
      <point x="358" y="-9" type="curve" smooth="yes"/>
      <point x="389" y="-9"/>
      <point x="492" y="-6"/>
      <point x="564" y="29" type="curve"/>
      <point x="564" y="219" type="line" smooth="yes"/>
      <point x="564" y="235"/>
      <point x="576" y="245"/>
      <point x="595" y="245" type="curve" smooth="yes"/>
      <point x="675" y="245" type="line"/>
      <point x="675" y="255" type="line"/>
      <point x="415" y="255" type="line"/>
      <point x="415" y="245" type="line"/>
      <point x="497" y="245" type="line" smooth="yes"/>
      <point x="524" y="245"/>
      <point x="536" y="235"/>
      <point x="536" y="221" type="curve" smooth="yes"/>
      <point x="536" y="33" type="line"/>
      <point x="499" y="21"/>
      <point x="461" y="1"/>
      <point x="357" y="1" type="curve" smooth="yes"/>
      <point x="172" y="1"/>
      <point x="110" y="114"/>
      <point x="110" y="278" type="curve" smooth="yes"/>
      <point x="110" y="430"/>
      <point x="202" y="532"/>
      <point x="373" y="532" type="curve" smooth="yes"/>
      <point x="504" y="532"/>
      <point x="536" y="457"/>
      <point x="537" y="412" type="curve"/>
      <point x="558" y="412"/>
      <point x="564" y="423"/>
      <point x="564" y="428" type="curve" smooth="yes"/>
      <point x="564" y="691" type="line" smooth="yes"/>
      <point x="564" y="715"/>
      <point x="585" y="733"/>
      <point x="634" y="733" type="curve" smooth="yes"/>
      <point x="648" y="733"/>
      <point x="668" y="730"/>
      <point x="678" y="718" type="curve"/>
      <point x="688" y="716"/>
      <point x="693" y="725"/>
      <point x="693" y="725" type="curve" smooth="yes"/>
      <point x="693" y="742"/>
      <point x="663" y="760"/>
      <point x="634" y="760" type="curve" smooth="yes"/>
      <point x="578" y="760"/>
      <point x="554" y="737"/>
      <point x="554" y="707" type="curve" smooth="yes"/>
      <point x="554" y="468" type="line"/>
      <point x="493" y="529"/>
      <point x="434" y="542"/>
      <point x="377" y="542" type="curve" smooth="yes"/>
      <point x="182" y="542"/>
      <point x="82" y="420"/>
      <point x="82" y="278" type="curve" smooth="yes"/>
      <point x="82" y="92"/>
      <point x="169" y="-9"/>
    </contour>
  </outline>
</glyph>
<glyph name="uni02AC" format="2">
  <advance width="647"/>
  <unicode hex="02AC"/>
  <anchor x="323" y="0" name="bottom"/>
  <anchor x="323" y="714" name="top"/>
  <outline>
    <contour>
      <point x="201" y="380" type="line"/>
      <point x="197" y="380" type="line"/>
      <point x="331" y="685" type="line"/>
      <point x="333" y="685" type="line"/>
      <point x="350" y="640"/>
      <point x="362" y="615"/>
      <point x="378" y="572" type="curve" smooth="yes"/>
      <point x="452" y="380" type="line"/>
      <point x="451" y="380" type="line"/>
      <point x="567" y="690" type="line" smooth="yes"/>
      <point x="570" y="691"/>
      <point x="582" y="708"/>
      <point x="616" y="708" type="curve" smooth="yes"/>
      <point x="619" y="708" type="line"/>
      <point x="619" y="714" type="line"/>
      <point x="492" y="714" type="line"/>
      <point x="492" y="708" type="line"/>
      <point x="497" y="708" type="line" smooth="yes"/>
      <point x="539" y="708"/>
      <point x="554" y="700"/>
      <point x="554" y="684" type="curve" smooth="yes"/>
      <point x="554" y="676"/>
      <point x="552" y="682"/>
      <point x="552" y="685" type="curve" smooth="yes"/>
      <point x="518" y="599" type="line" smooth="yes"/>
      <point x="498" y="542"/>
      <point x="476" y="481"/>
      <point x="460" y="433" type="curve"/>
      <point x="458" y="433" type="line"/>
      <point x="455" y="435"/>
      <point x="453" y="442"/>
      <point x="441" y="476" type="curve" smooth="yes"/>
      <point x="351" y="709" type="line"/>
      <point x="333" y="709" type="line"/>
      <point x="244" y="504" type="line" smooth="yes"/>
      <point x="233" y="480"/>
      <point x="220" y="456"/>
      <point x="212" y="439" type="curve"/>
      <point x="210" y="439" type="line"/>
      <point x="204" y="436"/>
      <point x="167" y="581"/>
      <point x="169" y="552" type="curve" smooth="yes"/>
      <point x="127" y="694" type="line" smooth="yes"/>
      <point x="127" y="691"/>
      <point x="128" y="685"/>
      <point x="128" y="688" type="curve" smooth="yes"/>
      <point x="128" y="703"/>
      <point x="141" y="708"/>
      <point x="185" y="708" type="curve" smooth="yes"/>
      <point x="196" y="708" type="line"/>
      <point x="196" y="714" type="line"/>
      <point x="21" y="714" type="line"/>
      <point x="21" y="708" type="line"/>
      <point x="50" y="708"/>
      <point x="92" y="699"/>
      <point x="96" y="694" type="curve" smooth="yes"/>
    </contour>
    <contour>
      <point x="201" y="0" type="line"/>
      <point x="197" y="0" type="line"/>
      <point x="331" y="305" type="line"/>
      <point x="333" y="305" type="line"/>
      <point x="350" y="260"/>
      <point x="362" y="235"/>
      <point x="378" y="192" type="curve" smooth="yes"/>
      <point x="452" y="0" type="line"/>
      <point x="451" y="0" type="line"/>
      <point x="567" y="310" type="line" smooth="yes"/>
      <point x="570" y="311"/>
      <point x="582" y="328"/>
      <point x="616" y="328" type="curve" smooth="yes"/>
      <point x="619" y="328" type="line"/>
      <point x="619" y="334" type="line"/>
      <point x="492" y="334" type="line"/>
      <point x="492" y="328" type="line"/>
      <point x="497" y="328" type="line" smooth="yes"/>
      <point x="539" y="328"/>
      <point x="554" y="320"/>
      <point x="554" y="304" type="curve" smooth="yes"/>
      <point x="554" y="296"/>
      <point x="552" y="302"/>
      <point x="552" y="305" type="curve" smooth="yes"/>
      <point x="518" y="219" type="line" smooth="yes"/>
      <point x="498" y="162"/>
      <point x="476" y="101"/>
      <point x="460" y="53" type="curve"/>
      <point x="458" y="53" type="line"/>
      <point x="455" y="55"/>
      <point x="453" y="62"/>
      <point x="441" y="96" type="curve" smooth="yes"/>
      <point x="351" y="329" type="line"/>
      <point x="333" y="329" type="line"/>
      <point x="244" y="124" type="line" smooth="yes"/>
      <point x="233" y="100"/>
      <point x="220" y="76"/>
      <point x="212" y="59" type="curve"/>
      <point x="210" y="59" type="line"/>
      <point x="204" y="56"/>
      <point x="167" y="201"/>
      <point x="169" y="172" type="curve" smooth="yes"/>
      <point x="127" y="314" type="line" smooth="yes"/>
      <point x="127" y="311"/>
      <point x="128" y="305"/>
      <point x="128" y="308" type="curve" smooth="yes"/>
      <point x="128" y="323"/>
      <point x="141" y="328"/>
      <point x="185" y="328" type="curve" smooth="yes"/>
      <point x="196" y="328" type="line"/>
      <point x="196" y="334" type="line"/>
      <point x="21" y="334" type="line"/>
      <point x="21" y="328" type="line"/>
      <point x="50" y="328"/>
      <point x="92" y="319"/>
      <point x="96" y="314" type="curve" smooth="yes"/>
    </contour>
  </outline>
</glyph>
<glyph name="uni02C5" format="2">
  <advance width="335"/>
  <unicode hex="02C5"/>
  <outline>
    <contour>
      <point x="160" y="571" type="curve"/>
      <point x="180" y="571" type="line"/>
      <point x="211" y="614"/>
      <point x="262" y="692"/>
      <point x="309" y="775" type="curve"/>
      <point x="309" y="783" type="line"/>
      <point x="295" y="783" type="line"/>
      <point x="279" y="764"/>
      <point x="190" y="612"/>
      <point x="171" y="582" type="curve"/>
      <point x="150" y="612"/>
      <point x="58" y="764"/>
      <point x="42" y="783" type="curve"/>
      <point x="28" y="783" type="line"/>
      <point x="28" y="775" type="line"/>
      <point x="67" y="718"/>
      <point x="121" y="635"/>
    </contour>
  </outline>
</glyph>
<glyph name="caron" format="2">
  <advance width="328"/>
  <unicode hex="02C7"/>
  <outline>
    <contour>
      <point x="147" y="606" type="curve"/>
      <point x="180" y="606" type="line"/>
      <point x="204" y="651"/>
      <point x="252" y="712"/>
      <point x="288" y="754" type="curve"/>
      <point x="288" y="766" type="line"/>
      <point x="286" y="766" type="line"/>
      <point x="231" y="716"/>
      <point x="203" y="684"/>
      <point x="164" y="631" type="curve"/>
      <point x="127" y="684"/>
      <point x="97" y="716"/>
      <point x="42" y="766" type="curve"/>
      <point x="40" y="766" type="line"/>
      <point x="40" y="754" type="line"/>
      <point x="76" y="712"/>
      <point x="125" y="651"/>
    </contour>
  </outline>
</glyph>
<glyph name="uni02F8" format="2">
  <advance width="250"/>
  <unicode hex="02F8"/>
  <outline>
    <contour>
      <point x="111" y="711" type="curve" smooth="yes"/>
      <point x="116" y="711"/>
      <point x="126" y="717"/>
      <point x="126" y="752" type="curve" smooth="yes"/>
      <point x="126" y="785"/>
      <point x="116" y="789"/>
      <point x="111" y="789" type="curve" smooth="yes"/>
      <point x="110" y="789"/>
      <point x="98" y="785"/>
      <point x="98" y="752" type="curve" smooth="yes"/>
      <point x="98" y="717"/>
      <point x="110" y="711"/>
    </contour>
    <contour>
      <point x="111" y="202" type="curve" smooth="yes"/>
      <point x="116" y="202"/>
      <point x="126" y="208"/>
      <point x="126" y="243" type="curve" smooth="yes"/>
      <point x="126" y="276"/>
      <point x="116" y="280"/>
      <point x="111" y="280" type="curve" smooth="yes"/>
      <point x="110" y="280"/>
      <point x="98" y="276"/>
      <point x="98" y="243" type="curve" smooth="yes"/>
      <point x="98" y="208"/>
      <point x="110" y="202"/>
    </contour>
  </outline>
</glyph>
<glyph name="dotbelowcomb" format="2">
  <unicode hex="0323"/>
  <anchor x="-374" y="0" name="_bottom"/>
  <anchor x="-374" y="-130" name="bottom"/>
  <outline>
    <contour>
      <point x="-374" y="-124" type="curve" smooth="yes"/>
      <point x="-364" y="-124"/>
      <point x="-356" y="-119"/>
      <point x="-356" y="-84" type="curve" smooth="yes"/>
      <point x="-356" y="-51"/>
      <point x="-364" y="-44"/>
      <point x="-374" y="-44" type="curve" smooth="yes"/>
      <point x="-383" y="-44"/>
      <point x="-393" y="-51"/>
      <point x="-393" y="-84" type="curve" smooth="yes"/>
      <point x="-393" y="-119"/>
      <point x="-383" y="-124"/>
    </contour>
  </outline>
</glyph>
<glyph name="slashlongoverlaycomb" format="2">
  <unicode hex="0338"/>
  <anchor x="11" y="354" name="_center"/>
  <outline>
    <contour>
      <point x="-184" y="-65" type="line"/>
      <point x="215" y="771" type="line"/>
      <point x="207" y="775" type="line"/>
      <point x="-192" y="-61" type="line"/>
    </contour>
  </outline>
</glyph>
<glyph name="righthalfringabovecomb" format="2">
  <unicode hex="0357"/>
  <anchor x="-1" y="536" name="_top"/>
  <anchor x="-1" y="818" name="top"/>
  <outline>
    <contour>
      <point x="-53" y="636" type="line"/>
      <point x="18" y="636"/>
      <point x="52" y="673"/>
      <point x="52" y="727" type="curve" smooth="yes"/>
      <point x="52" y="780"/>
      <point x="18" y="818"/>
      <point x="-53" y="818" type="curve"/>
      <point x="-53" y="808" type="line"/>
      <point x="-7" y="811"/>
      <point x="28" y="767"/>
      <point x="28" y="727" type="curve" smooth="yes"/>
      <point x="28" y="687"/>
      <point x="-7" y="643"/>
      <point x="-53" y="646" type="curve"/>
    </contour>
  </outline>
</glyph>
<glyph name="Pi" format="2">
  <advance width="865"/>
  <unicode hex="03A0"/>
  <anchor x="433" y="0" name="bottom"/>
  <anchor x="433" y="714" name="top"/>
  <outline>
    <contour>
      <point x="63" y="0" type="line"/>
      <point x="337" y="0" type="line"/>
      <point x="337" y="10" type="line"/>
      <point x="266" y="10" type="line" smooth="yes"/>
      <point x="224" y="10"/>
      <point x="216" y="21"/>
      <point x="216" y="98" type="curve" smooth="yes"/>
      <point x="216" y="704" type="line"/>
      <point x="651" y="704" type="line"/>
      <point x="651" y="98" type="line" smooth="yes"/>
      <point x="651" y="21"/>
      <point x="647" y="10"/>
      <point x="591" y="10" type="curve" smooth="yes"/>
      <point x="526" y="10" type="line"/>
      <point x="526" y="0" type="line"/>
      <point x="798" y="0" type="line"/>
      <point x="798" y="10" type="line"/>
      <point x="735" y="10" type="line" smooth="yes"/>
      <point x="685" y="10"/>
      <point x="679" y="21"/>
      <point x="679" y="98" type="curve" smooth="yes"/>
      <point x="679" y="614" type="line" smooth="yes"/>
      <point x="679" y="693"/>
      <point x="683" y="704"/>
      <point x="739" y="704" type="curve" smooth="yes"/>
      <point x="798" y="704" type="line"/>
      <point x="798" y="714" type="line"/>
      <point x="63" y="714" type="line"/>
      <point x="63" y="704" type="line"/>
      <point x="130" y="704" type="line" smooth="yes"/>
      <point x="184" y="704"/>
      <point x="188" y="693"/>
      <point x="188" y="614" type="curve" smooth="yes"/>
      <point x="188" y="98" type="line" smooth="yes"/>
      <point x="188" y="21"/>
      <point x="180" y="10"/>
      <point x="138" y="10" type="curve" smooth="yes"/>
      <point x="63" y="10" type="line"/>
    </contour>
  </outline>
</glyph>
<glyph name="rho" format="2">
  <advance width="691"/>
  <unicode hex="03C1"/>
  <anchor x="345" y="-240" name="bottom"/>
  <anchor x="345" y="536" name="top"/>
  <outline>
    <contour>
      <point x="117" y="-240" type="line"/>
      <point x="145" y="-240" type="line"/>
      <point x="145" y="-49" type="line" smooth="yes"/>
      <point x="145" y="-13"/>
      <point x="143" y="14"/>
      <point x="144" y="19" type="curve"/>
      <point x="205" y="-7"/>
      <point x="275" y="-10"/>
      <point x="329" y="-10" type="curve" smooth="yes"/>
      <point x="469" y="-10"/>
      <point x="608" y="98"/>
      <point x="608" y="266" type="curve" smooth="yes"/>
      <point x="608" y="450"/>
      <point x="527" y="542"/>
      <point x="361" y="542" type="curve" smooth="yes"/>
      <point x="201" y="542"/>
      <point x="117" y="458"/>
      <point x="117" y="337" type="curve" smooth="yes"/>
    </contour>
    <contour>
      <point x="327" y="0" type="curve" smooth="yes"/>
      <point x="244" y="0"/>
      <point x="197" y="21"/>
      <point x="145" y="27" type="curve"/>
      <point x="145" y="293" type="line" smooth="yes"/>
      <point x="145" y="426"/>
      <point x="186" y="532"/>
      <point x="359" y="532" type="curve" smooth="yes"/>
      <point x="515" y="532"/>
      <point x="580" y="430"/>
      <point x="580" y="264" type="curve" smooth="yes"/>
      <point x="580" y="89"/>
      <point x="443" y="0"/>
    </contour>
  </outline>
</glyph>
<glyph name="uni03D1" format="2">
  <advance width="593"/>
  <unicode hex="03D1"/>
  <outline>
    <contour>
      <point x="264" y="-10" type="curve" smooth="yes"/>
      <point x="406" y="-10"/>
      <point x="501" y="130"/>
      <point x="501" y="371" type="curve" smooth="yes"/>
      <point x="501" y="392"/>
      <point x="500" y="412"/>
      <point x="498" y="443" type="curve"/>
      <point x="581" y="443" type="line"/>
      <point x="581" y="453" type="line"/>
      <point x="495" y="453" type="line"/>
      <point x="477" y="680"/>
      <point x="379" y="764"/>
      <point x="288" y="764" type="curve" smooth="yes"/>
      <point x="178" y="764"/>
      <point x="110" y="698"/>
      <point x="110" y="630" type="curve" smooth="yes"/>
      <point x="110" y="533"/>
      <point x="187" y="446"/>
      <point x="470" y="443" type="curve"/>
      <point x="471" y="411"/>
      <point x="473" y="385"/>
      <point x="473" y="373" type="curve" smooth="yes"/>
      <point x="473" y="100"/>
      <point x="388" y="0"/>
      <point x="250" y="0" type="curve" smooth="yes"/>
      <point x="147" y="0"/>
      <point x="109" y="84"/>
      <point x="109" y="201" type="curve" smooth="yes"/>
      <point x="109" y="232"/>
      <point x="123" y="279"/>
      <point x="123" y="313" type="curve" smooth="yes"/>
      <point x="123" y="369"/>
      <point x="106" y="406"/>
      <point x="17" y="406" type="curve" smooth="yes"/>
      <point x="-1" y="406" type="line"/>
      <point x="-1" y="396" type="line"/>
      <point x="16" y="396" type="line" smooth="yes"/>
      <point x="83" y="396"/>
      <point x="95" y="378"/>
      <point x="95" y="325" type="curve" smooth="yes"/>
      <point x="95" y="321"/>
      <point x="81" y="208"/>
      <point x="81" y="172" type="curve" smooth="yes"/>
      <point x="81" y="81"/>
      <point x="127" y="-10"/>
    </contour>
    <contour>
      <point x="471" y="453" type="curve"/>
      <point x="125" y="458"/>
      <point x="136" y="592"/>
      <point x="136" y="638" type="curve" smooth="yes"/>
      <point x="136" y="688"/>
      <point x="189" y="752"/>
      <point x="273" y="752" type="curve" smooth="yes"/>
      <point x="391" y="752"/>
      <point x="445" y="639"/>
    </contour>
  </outline>
</glyph>
<glyph name="phi1" format="2">
  <advance width="787"/>
  <unicode hex="03D5"/>
  <anchor x="394" y="-240" name="bottom"/>
  <anchor x="394" y="760" name="top"/>
  <anchor x="767" y="536" name="topright"/>
  <outline>
    <contour>
      <point x="384" y="-240" type="line"/>
      <point x="404" y="-240" type="line"/>
      <point x="404" y="-9" type="line"/>
      <point x="590" y="2"/>
      <point x="703" y="101"/>
      <point x="703" y="269" type="curve" smooth="yes"/>
      <point x="703" y="447"/>
      <point x="582" y="535"/>
      <point x="404" y="545" type="curve"/>
      <point x="404" y="760" type="line"/>
      <point x="384" y="760" type="line"/>
      <point x="384" y="545" type="line"/>
      <point x="208" y="535"/>
      <point x="86" y="449"/>
      <point x="86" y="269" type="curve" smooth="yes"/>
      <point x="86" y="93"/>
      <point x="202" y="1"/>
      <point x="384" y="-9" type="curve"/>
    </contour>
    <contour>
      <point x="384" y="1" type="line"/>
      <point x="182" y="12"/>
      <point x="114" y="133"/>
      <point x="114" y="269" type="curve" smooth="yes"/>
      <point x="114" y="423"/>
      <point x="191" y="525"/>
      <point x="384" y="534" type="curve"/>
    </contour>
    <contour>
      <point x="404" y="1" type="curve"/>
      <point x="404" y="535" type="line"/>
      <point x="597" y="524"/>
      <point x="675" y="424"/>
      <point x="675" y="269" type="curve" smooth="yes"/>
      <point x="675" y="137"/>
      <point x="604" y="12"/>
    </contour>
  </outline>
</glyph>
<glyph name="afii10053" format="2">
  <advance width="673"/>
  <unicode hex="0404"/>
  <anchor x="336" y="0" name="bottom"/>
  <anchor x="336" y="714" name="top"/>
  <outline>
    <contour>
      <point x="388" y="-10" type="curve" smooth="yes"/>
      <point x="579" y="-10"/>
      <point x="621" y="77"/>
      <point x="621" y="89" type="curve" smooth="yes"/>
      <point x="621" y="98"/>
      <point x="618" y="111"/>
      <point x="607" y="114" type="curve"/>
      <point x="578" y="32"/>
      <point x="504" y="0"/>
      <point x="382" y="0" type="curve" smooth="yes"/>
      <point x="207" y="0"/>
      <point x="96" y="108"/>
      <point x="98" y="365" type="curve"/>
      <point x="525" y="365" type="line"/>
      <point x="525" y="375" type="line"/>
      <point x="98" y="375" type="line"/>
      <point x="104" y="642"/>
      <point x="234" y="714"/>
      <point x="373" y="714" type="curve" smooth="yes"/>
      <point x="541" y="714"/>
      <point x="603" y="659"/>
      <point x="603" y="550" type="curve"/>
      <point x="618" y="550"/>
      <point x="629" y="548"/>
      <point x="629" y="573" type="curve" smooth="yes"/>
      <point x="629" y="661"/>
      <point x="525" y="724"/>
      <point x="395" y="724" type="curve" smooth="yes"/>
      <point x="163" y="724"/>
      <point x="70" y="570"/>
      <point x="70" y="358" type="curve" smooth="yes"/>
      <point x="70" y="117"/>
      <point x="183" y="-10"/>
    </contour>
  </outline>
</glyph>
<glyph name="afii10059" format="2">
  <advance width="1126"/>
  <unicode hex="040A"/>
  <anchor x="563" y="0" name="bottom"/>
  <anchor x="563" y="714" name="top"/>
  <outline>
    <contour>
      <point x="63" y="0" type="line"/>
      <point x="337" y="0" type="line"/>
      <point x="337" y="10" type="line"/>
      <point x="270" y="10" type="line" smooth="yes"/>
      <point x="222" y="10"/>
      <point x="216" y="21"/>
      <point x="216" y="98" type="curve" smooth="yes"/>
      <point x="216" y="379" type="line"/>
      <point x="659" y="379" type="line"/>
      <point x="659" y="98" type="line" smooth="yes"/>
      <point x="659" y="21"/>
      <point x="651" y="10"/>
      <point x="607" y="10" type="curve" smooth="yes"/>
      <point x="534" y="10" type="line"/>
      <point x="534" y="0" type="line"/>
      <point x="775" y="0" type="line" smooth="yes"/>
      <point x="972" y="0"/>
      <point x="1061" y="87"/>
      <point x="1061" y="191" type="curve" smooth="yes"/>
      <point x="1061" y="320"/>
      <point x="973" y="389"/>
      <point x="808" y="389" type="curve" smooth="yes"/>
      <point x="687" y="389" type="line"/>
      <point x="687" y="614" type="line" smooth="yes"/>
      <point x="687" y="693"/>
      <point x="691" y="704"/>
      <point x="747" y="704" type="curve" smooth="yes"/>
      <point x="806" y="704" type="line"/>
      <point x="806" y="714" type="line"/>
      <point x="534" y="714" type="line"/>
      <point x="534" y="704" type="line"/>
      <point x="595" y="704" type="line" smooth="yes"/>
      <point x="657" y="704"/>
      <point x="659" y="693"/>
      <point x="659" y="614" type="curve" smooth="yes"/>
      <point x="659" y="389" type="line"/>
      <point x="216" y="389" type="line"/>
      <point x="216" y="614" type="line" smooth="yes"/>
      <point x="216" y="693"/>
      <point x="224" y="704"/>
      <point x="270" y="704" type="curve" smooth="yes"/>
      <point x="337" y="704" type="line"/>
      <point x="337" y="714" type="line"/>
      <point x="63" y="714" type="line"/>
      <point x="63" y="704" type="line"/>
      <point x="132" y="704" type="line" smooth="yes"/>
      <point x="184" y="704"/>
      <point x="188" y="693"/>
      <point x="188" y="614" type="curve" smooth="yes"/>
      <point x="188" y="98" type="line" smooth="yes"/>
      <point x="188" y="21"/>
      <point x="180" y="10"/>
      <point x="136" y="10" type="curve" smooth="yes"/>
      <point x="63" y="10" type="line"/>
    </contour>
    <contour>
      <point x="687" y="10" type="line"/>
      <point x="687" y="379" type="line"/>
      <point x="793" y="379" type="line" smooth="yes"/>
      <point x="943" y="379"/>
      <point x="1033" y="318"/>
      <point x="1033" y="191" type="curve" smooth="yes"/>
      <point x="1033" y="58"/>
      <point x="948" y="10"/>
      <point x="763" y="10" type="curve" smooth="yes"/>
    </contour>
  </outline>
</glyph>
<glyph name="afii10077" format="2">
  <advance width="724"/>
  <unicode hex="043B"/>
  <anchor x="362" y="0" name="bottom"/>
  <anchor x="362" y="536" name="top"/>
  <outline>
    <contour>
      <point x="89" y="-7" type="curve" smooth="yes"/>
      <point x="155" y="-7"/>
      <point x="191" y="39"/>
      <point x="233" y="136" type="curve" smooth="yes"/>
      <point x="271" y="227"/>
      <point x="295" y="352"/>
      <point x="313" y="521" type="curve"/>
      <point x="523" y="521" type="line"/>
      <point x="523" y="82" type="line" smooth="yes"/>
      <point x="523" y="12"/>
      <point x="519" y="10"/>
      <point x="436" y="10" type="curve" smooth="yes"/>
      <point x="394" y="10" type="line"/>
      <point x="394" y="0" type="line"/>
      <point x="685" y="0" type="line"/>
      <point x="685" y="10" type="line"/>
      <point x="633" y="10" type="line" smooth="yes"/>
      <point x="555" y="10"/>
      <point x="551" y="12"/>
      <point x="551" y="82" type="curve" smooth="yes"/>
      <point x="551" y="427" type="line" smooth="yes"/>
      <point x="551" y="521"/>
      <point x="547" y="526"/>
      <point x="631" y="526" type="curve" smooth="yes"/>
      <point x="685" y="526" type="line"/>
      <point x="685" y="536" type="line"/>
      <point x="162" y="536" type="line"/>
      <point x="162" y="526" type="line"/>
      <point x="234" y="526" type="line" smooth="yes"/>
      <point x="300" y="526"/>
      <point x="290" y="521"/>
      <point x="290" y="433" type="curve" smooth="yes"/>
      <point x="290" y="379"/>
      <point x="266" y="272"/>
      <point x="249" y="218" type="curve" smooth="yes"/>
      <point x="220" y="139"/>
      <point x="175" y="22"/>
      <point x="103" y="22" type="curve" smooth="yes"/>
      <point x="57" y="22"/>
      <point x="32" y="38"/>
      <point x="32" y="124" type="curve"/>
      <point x="13" y="124"/>
      <point x="2" y="111"/>
      <point x="2" y="73" type="curve" smooth="yes"/>
      <point x="2" y="47"/>
      <point x="23" y="-7"/>
    </contour>
  </outline>
</glyph>
<glyph name="afii10093" format="2">
  <advance width="885"/>
  <unicode hex="044B"/>
  <anchor x="442" y="0" name="bottom"/>
  <anchor x="442" y="536" name="top"/>
  <outline>
    <contour>
      <point x="41" y="0" type="line"/>
      <point x="336" y="0" type="line" smooth="yes"/>
      <point x="484" y="0"/>
      <point x="543" y="69"/>
      <point x="543" y="163" type="curve" smooth="yes"/>
      <point x="543" y="267"/>
      <point x="452" y="293"/>
      <point x="337" y="293" type="curve" smooth="yes"/>
      <point x="201" y="293" type="line"/>
      <point x="201" y="454" type="line" smooth="yes"/>
      <point x="201" y="521"/>
      <point x="211" y="526"/>
      <point x="266" y="526" type="curve" smooth="yes"/>
      <point x="313" y="526" type="line"/>
      <point x="313" y="536" type="line"/>
      <point x="41" y="536" type="line"/>
      <point x="41" y="526" type="line"/>
      <point x="104" y="526" type="line" smooth="yes"/>
      <point x="167" y="526"/>
      <point x="173" y="521"/>
      <point x="173" y="454" type="curve" smooth="yes"/>
      <point x="173" y="82" type="line" smooth="yes"/>
      <point x="173" y="12"/>
      <point x="171" y="10"/>
      <point x="90" y="10" type="curve" smooth="yes"/>
      <point x="41" y="10" type="line"/>
    </contour>
    <contour>
      <point x="201" y="10" type="line"/>
      <point x="201" y="283" type="line"/>
      <point x="321" y="283" type="line" smooth="yes"/>
      <point x="458" y="283"/>
      <point x="515" y="246"/>
      <point x="515" y="163" type="curve" smooth="yes"/>
      <point x="515" y="55"/>
      <point x="466" y="10"/>
      <point x="281" y="10" type="curve" smooth="yes"/>
    </contour>
    <contour>
      <point x="585" y="0" type="line"/>
      <point x="824" y="0" type="line"/>
      <point x="824" y="10" type="line"/>
      <point x="800" y="10" type="line" smooth="yes"/>
      <point x="714" y="10"/>
      <point x="712" y="12"/>
      <point x="712" y="82" type="curve" smooth="yes"/>
      <point x="712" y="454" type="line" smooth="yes"/>
      <point x="712" y="523"/>
      <point x="716" y="526"/>
      <point x="788" y="526" type="curve" smooth="yes"/>
      <point x="824" y="526" type="line"/>
      <point x="824" y="536" type="line"/>
      <point x="585" y="536" type="line"/>
      <point x="585" y="526" type="line"/>
      <point x="602" y="526" type="line" smooth="yes"/>
      <point x="680" y="526"/>
      <point x="684" y="523"/>
      <point x="684" y="454" type="curve" smooth="yes"/>
      <point x="684" y="82" type="line" smooth="yes"/>
      <point x="684" y="14"/>
      <point x="682" y="10"/>
      <point x="604" y="10" type="curve" smooth="yes"/>
      <point x="585" y="10" type="line"/>
    </contour>
  </outline>
</glyph>
<glyph name="uni0468" format="2">
  <advance width="1188"/>
  <unicode hex="0468"/>
  <anchor x="589" y="0" name="bottom"/>
  <anchor x="589" y="714" name="top"/>
  <outline>
    <contour>
      <point x="63" y="0" type="line"/>
      <point x="327" y="0" type="line"/>
      <point x="327" y="10" type="line"/>
      <point x="266" y="10" type="line" smooth="yes"/>
      <point x="224" y="10"/>
      <point x="216" y="21"/>
      <point x="216" y="98" type="curve" smooth="yes"/>
      <point x="216" y="371" type="line"/>
      <point x="646" y="371" type="line"/>
      <point x="640" y="381" type="line"/>
      <point x="218" y="381" type="line"/>
      <point x="216" y="614" type="line" smooth="yes"/>
      <point x="216" y="693"/>
      <point x="218" y="704"/>
      <point x="272" y="704" type="curve" smooth="yes"/>
      <point x="327" y="704" type="line"/>
      <point x="327" y="714" type="line"/>
      <point x="63" y="714" type="line"/>
      <point x="63" y="704" type="line"/>
      <point x="134" y="704" type="line" smooth="yes"/>
      <point x="180" y="704"/>
      <point x="188" y="693"/>
      <point x="188" y="614" type="curve" smooth="yes"/>
      <point x="188" y="98" type="line" smooth="yes"/>
      <point x="188" y="21"/>
      <point x="184" y="10"/>
      <point x="128" y="10" type="curve" smooth="yes"/>
      <point x="63" y="10" type="line"/>
    </contour>
    <component base="uni0466" xOffset="407"/>
  </outline>
</glyph>
<glyph name="uni0482" format="2">
  <advance width="756"/>
  <unicode hex="0482"/>
  <outline>
    <contour>
      <point x="130" y="33" type="line"/>
      <point x="279" y="199" type="line"/>
      <point x="460" y="50" type="line"/>
      <point x="474" y="66" type="line"/>
      <point x="293" y="216" type="line"/>
      <point x="477" y="403" type="line"/>
      <point x="657" y="254" type="line"/>
      <point x="671" y="271" type="line"/>
      <point x="492" y="420" type="line"/>
      <point x="651" y="596" type="line"/>
      <point x="636" y="611" type="line"/>
      <point x="476" y="435" type="line"/>
      <point x="296" y="582" type="line"/>
      <point x="282" y="567" type="line"/>
      <point x="461" y="418" type="line"/>
      <point x="279" y="230" type="line"/>
      <point x="99" y="378" type="line"/>
      <point x="83" y="363" type="line"/>
      <point x="264" y="214" type="line"/>
      <point x="115" y="48" type="line"/>
    </contour>
  </outline>
</glyph>
<glyph name="uni0488" format="2">
  <advance width="1229"/>
  <unicode hex="0488"/>
  <outline>
    <contour>
      <point x="133" y="462" type="curve"/>
      <point x="162" y="462" type="line"/>
      <point x="167" y="511"/>
      <point x="214" y="525"/>
      <point x="262" y="525" type="curve" smooth="yes"/>
      <point x="302" y="525"/>
      <point x="353" y="514"/>
      <point x="356" y="462" type="curve"/>
      <point x="389" y="462" type="line"/>
      <point x="385" y="518"/>
      <point x="339" y="557"/>
      <point x="260" y="557" type="curve" smooth="yes"/>
      <point x="177" y="557"/>
      <point x="137" y="520"/>
    </contour>
    <contour>
      <point x="26" y="224" type="curve"/>
      <point x="55" y="224" type="line"/>
      <point x="61" y="272"/>
      <point x="107" y="287"/>
      <point x="154" y="287" type="curve" smooth="yes"/>
      <point x="192" y="287"/>
      <point x="243" y="275"/>
      <point x="248" y="224" type="curve"/>
      <point x="281" y="224" type="line"/>
      <point x="276" y="280"/>
      <point x="232" y="319"/>
      <point x="152" y="319" type="curve" smooth="yes"/>
      <point x="68" y="319"/>
      <point x="29" y="282"/>
    </contour>
    <contour>
      <point x="133" y="-20" type="curve"/>
      <point x="162" y="-20" type="line"/>
      <point x="167" y="29"/>
      <point x="214" y="43"/>
      <point x="262" y="43" type="curve" smooth="yes"/>
      <point x="302" y="43"/>
      <point x="353" y="32"/>
      <point x="356" y="-20" type="curve"/>
      <point x="389" y="-20" type="line"/>
      <point x="385" y="36"/>
      <point x="339" y="75"/>
      <point x="260" y="75" type="curve" smooth="yes"/>
      <point x="177" y="75"/>
      <point x="137" y="38"/>
    </contour>
    <contour>
      <point x="481" y="-158" type="curve"/>
      <point x="510" y="-158" type="line"/>
      <point x="515" y="-109"/>
      <point x="562" y="-95"/>
      <point x="609" y="-95" type="curve" smooth="yes"/>
      <point x="650" y="-95"/>
      <point x="700" y="-106"/>
      <point x="703" y="-158" type="curve"/>
      <point x="736" y="-158" type="line"/>
      <point x="733" y="-102"/>
      <point x="687" y="-63"/>
      <point x="607" y="-63" type="curve" smooth="yes"/>
      <point x="524" y="-63"/>
      <point x="485" y="-100"/>
    </contour>
    <contour>
      <point x="832" y="-20" type="curve"/>
      <point x="861" y="-20" type="line"/>
      <point x="866" y="29"/>
      <point x="913" y="43"/>
      <point x="961" y="43" type="curve" smooth="yes"/>
      <point x="1000" y="43"/>
      <point x="1051" y="32"/>
      <point x="1055" y="-20" type="curve"/>
      <point x="1088" y="-20" type="line"/>
      <point x="1084" y="36"/>
      <point x="1038" y="75"/>
      <point x="959" y="75" type="curve" smooth="yes"/>
      <point x="874" y="75"/>
      <point x="835" y="38"/>
    </contour>
    <contour>
      <point x="948" y="224" type="curve"/>
      <point x="977" y="224" type="line"/>
      <point x="982" y="273"/>
      <point x="1027" y="287"/>
      <point x="1075" y="287" type="curve" smooth="yes"/>
      <point x="1116" y="287"/>
      <point x="1167" y="276"/>
      <point x="1170" y="224" type="curve"/>
      <point x="1203" y="224" type="line"/>
      <point x="1199" y="280"/>
      <point x="1154" y="319"/>
      <point x="1073" y="319" type="curve" smooth="yes"/>
      <point x="991" y="319"/>
      <point x="952" y="282"/>
    </contour>
    <contour>
      <point x="832" y="462" type="curve"/>
      <point x="861" y="462" type="line"/>
      <point x="866" y="511"/>
      <point x="913" y="525"/>
      <point x="961" y="525" type="curve" smooth="yes"/>
      <point x="1000" y="525"/>
      <point x="1051" y="514"/>
      <point x="1055" y="462" type="curve"/>
      <point x="1088" y="462" type="line"/>
      <point x="1084" y="518"/>
      <point x="1038" y="557"/>
      <point x="959" y="557" type="curve" smooth="yes"/>
      <point x="874" y="557"/>
      <point x="835" y="520"/>
    </contour>
    <contour>
      <point x="481" y="601" type="curve"/>
      <point x="510" y="601" type="line"/>
      <point x="515" y="650"/>
      <point x="562" y="664"/>
      <point x="609" y="664" type="curve" smooth="yes"/>
      <point x="650" y="664"/>
      <point x="700" y="653"/>
      <point x="703" y="601" type="curve"/>
      <point x="736" y="601" type="line"/>
      <point x="733" y="657"/>
      <point x="687" y="696"/>
      <point x="607" y="696" type="curve" smooth="yes"/>
      <point x="524" y="696"/>
      <point x="485" y="659"/>
    </contour>
  </outline>
</glyph>
<glyph name="uni0489" format="2">
  <advance width="956"/>
  <unicode hex="0489"/>
  <outline>
    <contour>
      <point x="683" y="459" type="line"/>
      <point x="722" y="490"/>
      <point x="777" y="530"/>
      <point x="826" y="561" type="curve"/>
      <point x="822" y="566" type="line"/>
      <point x="769" y="548"/>
      <point x="705" y="521"/>
      <point x="659" y="496" type="curve"/>
      <point x="657" y="485" type="line"/>
    </contour>
    <contour>
      <point x="137" y="-45" type="line"/>
      <point x="190" y="-27"/>
      <point x="255" y="-2"/>
      <point x="302" y="21" type="curve"/>
      <point x="303" y="32" type="line"/>
      <point x="277" y="58" type="line"/>
      <point x="238" y="29"/>
      <point x="182" y="-9"/>
      <point x="132" y="-40" type="curve"/>
    </contour>
    <contour>
      <point x="183" y="234" type="curve"/>
      <point x="193" y="241" type="line"/>
      <point x="193" y="276" type="line"/>
      <point x="145" y="282"/>
      <point x="77" y="294"/>
      <point x="22" y="305" type="curve"/>
      <point x="22" y="299" type="line"/>
      <point x="73" y="274"/>
      <point x="134" y="248"/>
    </contour>
    <contour>
      <point x="444" y="-186" type="curve"/>
      <point x="451" y="-186" type="line"/>
      <point x="476" y="-136"/>
      <point x="503" y="-74"/>
      <point x="517" y="-25" type="curve"/>
      <point x="510" y="-15" type="line"/>
      <point x="475" y="-15" type="line"/>
      <point x="469" y="-63"/>
      <point x="456" y="-131"/>
    </contour>
    <contour>
      <point x="778" y="-86" type="curve"/>
      <point x="784" y="-82" type="line"/>
      <point x="765" y="-29"/>
      <point x="740" y="35"/>
      <point x="716" y="81" type="curve"/>
      <point x="705" y="82" type="line"/>
      <point x="679" y="56" type="line"/>
      <point x="709" y="18"/>
      <point x="747" y="-37"/>
    </contour>
    <contour>
      <point x="252" y="437" type="line"/>
      <point x="278" y="463" type="line"/>
      <point x="249" y="502"/>
      <point x="210" y="558"/>
      <point x="180" y="608" type="curve"/>
      <point x="175" y="604" type="line"/>
      <point x="193" y="550"/>
      <point x="218" y="485"/>
      <point x="241" y="439" type="curve"/>
    </contour>
    <contour>
      <point x="936" y="237" type="curve"/>
      <point x="936" y="244" type="line"/>
      <point x="886" y="268"/>
      <point x="825" y="293"/>
      <point x="776" y="306" type="curve"/>
      <point x="766" y="299" type="line"/>
      <point x="766" y="264" type="line"/>
      <point x="814" y="258"/>
      <point x="881" y="247"/>
    </contour>
    <contour>
      <point x="443" y="557" type="line"/>
      <point x="479" y="557" type="line"/>
      <point x="486" y="605"/>
      <point x="501" y="673"/>
      <point x="514" y="728" type="curve"/>
      <point x="507" y="728" type="line"/>
      <point x="480" y="678"/>
      <point x="452" y="616"/>
      <point x="436" y="566" type="curve"/>
    </contour>
  </outline>
</glyph>
<glyph name="uni048D" format="2">
  <advance width="660"/>
  <unicode hex="048D"/>
  <anchor x="331" y="0" name="bottom"/>
  <anchor x="331" y="644" name="top"/>
  <outline>
    <contour>
      <point x="40" y="0" type="line"/>
      <point x="388" y="0" type="line" smooth="yes"/>
      <point x="537" y="0"/>
      <point x="593" y="64"/>
      <point x="593" y="168" type="curve" smooth="yes"/>
      <point x="593" y="263"/>
      <point x="516" y="290"/>
      <point x="380" y="290" type="curve" smooth="yes"/>
      <point x="209" y="290" type="line"/>
      <point x="209" y="487" type="line"/>
      <point x="358" y="487" type="line"/>
      <point x="358" y="497" type="line"/>
      <point x="209" y="497" type="line"/>
      <point x="209" y="644" type="line"/>
      <point x="181" y="644" type="line"/>
      <point x="181" y="497" type="line"/>
      <point x="48" y="497" type="line"/>
      <point x="48" y="487" type="line"/>
      <point x="181" y="487" type="line"/>
      <point x="181" y="82" type="line" smooth="yes"/>
      <point x="181" y="12"/>
      <point x="181" y="10"/>
      <point x="92" y="10" type="curve" smooth="yes"/>
      <point x="40" y="10" type="line"/>
    </contour>
    <contour>
      <point x="209" y="10" type="line"/>
      <point x="209" y="280" type="line"/>
      <point x="374" y="280" type="line" smooth="yes"/>
      <point x="518" y="280"/>
      <point x="565" y="244"/>
      <point x="565" y="168" type="curve" smooth="yes"/>
      <point x="565" y="51"/>
      <point x="521" y="10"/>
      <point x="334" y="10" type="curve" smooth="yes"/>
    </contour>
  </outline>
</glyph>
<glyph name="afii10098" format="2">
  <advance width="561"/>
  <unicode hex="0491"/>
  <anchor x="281" y="0" name="bottom"/>
  <anchor x="281" y="622" name="top"/>
  <outline>
    <contour>
      <point x="41" y="0" type="line"/>
      <point x="355" y="0" type="line"/>
      <point x="355" y="10" type="line"/>
      <point x="278" y="10" type="line" smooth="yes"/>
      <point x="205" y="10"/>
      <point x="201" y="14"/>
      <point x="201" y="82" type="curve" smooth="yes"/>
      <point x="201" y="521" type="line"/>
      <point x="544" y="521" type="line"/>
      <point x="554" y="622" type="line"/>
      <point x="544" y="622" type="line"/>
      <point x="530" y="504" type="line" smooth="yes"/>
      <point x="524" y="538"/>
      <point x="512" y="536"/>
      <point x="502" y="536" type="curve" smooth="yes"/>
      <point x="41" y="536" type="line"/>
      <point x="41" y="526" type="line"/>
      <point x="112" y="526" type="line" smooth="yes"/>
      <point x="165" y="526"/>
      <point x="173" y="522"/>
      <point x="173" y="454" type="curve" smooth="yes"/>
      <point x="173" y="82" type="line" smooth="yes"/>
      <point x="173" y="12"/>
      <point x="167" y="10"/>
      <point x="100" y="10" type="curve" smooth="yes"/>
      <point x="41" y="10" type="line"/>
    </contour>
  </outline>
</glyph>
<glyph name="uni049D" format="2">
  <advance width="704"/>
  <unicode hex="049D"/>
  <anchor x="353" y="0" name="bottom"/>
  <anchor x="353" y="536" name="top"/>
  <outline>
    <contour>
      <point x="33" y="0" type="line"/>
      <point x="318" y="0" type="line"/>
      <point x="318" y="10" type="line"/>
      <point x="283" y="10" type="line" smooth="yes"/>
      <point x="206" y="10"/>
      <point x="200" y="13"/>
      <point x="200" y="82" type="curve" smooth="yes"/>
      <point x="200" y="262" type="line"/>
      <point x="302" y="262" type="line"/>
      <point x="302" y="137" type="line"/>
      <point x="312" y="137" type="line"/>
      <point x="312" y="262" type="line"/>
      <point x="413" y="263"/>
      <point x="456" y="250"/>
      <point x="500" y="164" type="curve" smooth="yes"/>
      <point x="558" y="50" type="line" smooth="yes"/>
      <point x="560" y="52"/>
      <point x="592" y="0"/>
      <point x="678" y="0" type="curve" smooth="yes"/>
      <point x="693" y="0" type="line"/>
      <point x="693" y="10" type="line"/>
      <point x="672" y="10" type="line" smooth="yes"/>
      <point x="625" y="10"/>
      <point x="610" y="5"/>
      <point x="565" y="94" type="curve" smooth="yes"/>
      <point x="523" y="173" type="line" smooth="yes"/>
      <point x="484" y="251"/>
      <point x="445" y="270"/>
      <point x="330" y="272" type="curve"/>
      <point x="422" y="292"/>
      <point x="454" y="368"/>
      <point x="476" y="396" type="curve" smooth="yes"/>
      <point x="521" y="464"/>
      <point x="554" y="521"/>
      <point x="608" y="521" type="curve" smooth="yes"/>
      <point x="669" y="521"/>
      <point x="679" y="488"/>
      <point x="678" y="433" type="curve"/>
      <point x="699" y="439"/>
      <point x="696" y="461"/>
      <point x="696" y="475" type="curve" smooth="yes"/>
      <point x="696" y="515"/>
      <point x="653" y="542"/>
      <point x="616" y="542" type="curve" smooth="yes"/>
      <point x="536" y="542"/>
      <point x="510" y="489"/>
      <point x="476" y="430" type="curve" smooth="yes"/>
      <point x="429" y="348"/>
      <point x="417" y="303"/>
      <point x="312" y="275" type="curve"/>
      <point x="312" y="425" type="line"/>
      <point x="302" y="425" type="line"/>
      <point x="302" y="272" type="line"/>
      <point x="200" y="272" type="line"/>
      <point x="200" y="454" type="line" smooth="yes"/>
      <point x="200" y="520"/>
      <point x="204" y="526"/>
      <point x="275" y="526" type="curve" smooth="yes"/>
      <point x="311" y="526" type="line"/>
      <point x="311" y="536" type="line"/>
      <point x="41" y="536" type="line"/>
      <point x="41" y="526" type="line"/>
      <point x="110" y="526" type="line" smooth="yes"/>
      <point x="165" y="526"/>
      <point x="172" y="522"/>
      <point x="172" y="454" type="curve" smooth="yes"/>
      <point x="172" y="83" type="line" smooth="yes"/>
      <point x="172" y="12"/>
      <point x="170" y="10"/>
      <point x="83" y="10" type="curve" smooth="yes"/>
      <point x="33" y="10" type="line"/>
    </contour>
  </outline>
</glyph>
<glyph name="uni04A1" format="2">
  <advance width="714"/>
  <unicode hex="04A1"/>
  <anchor x="357" y="0" name="bottom"/>
  <anchor x="357" y="536" name="top"/>
  <outline>
    <contour>
      <point x="80" y="0" type="line"/>
      <point x="365" y="0" type="line"/>
      <point x="365" y="10" type="line"/>
      <point x="330" y="10" type="line" smooth="yes"/>
      <point x="253" y="10"/>
      <point x="247" y="12"/>
      <point x="247" y="82" type="curve" smooth="yes"/>
      <point x="247" y="265" type="line"/>
      <point x="413" y="265"/>
      <point x="464" y="256"/>
      <point x="511" y="164" type="curve" smooth="yes"/>
      <point x="569" y="50" type="line" smooth="yes"/>
      <point x="571" y="52"/>
      <point x="603" y="0"/>
      <point x="689" y="0" type="curve" smooth="yes"/>
      <point x="704" y="0" type="line"/>
      <point x="704" y="10" type="line"/>
      <point x="683" y="10" type="line" smooth="yes"/>
      <point x="636" y="10"/>
      <point x="621" y="5"/>
      <point x="576" y="94" type="curve" smooth="yes"/>
      <point x="534" y="173" type="line"/>
      <point x="497" y="250"/>
      <point x="457" y="269"/>
      <point x="340" y="272" type="curve"/>
      <point x="424" y="289"/>
      <point x="451" y="342"/>
      <point x="487" y="396" type="curve" smooth="yes"/>
      <point x="532" y="464"/>
      <point x="565" y="521"/>
      <point x="619" y="521" type="curve" smooth="yes"/>
      <point x="680" y="521"/>
      <point x="690" y="488"/>
      <point x="689" y="433" type="curve"/>
      <point x="710" y="439"/>
      <point x="707" y="461"/>
      <point x="707" y="475" type="curve" smooth="yes"/>
      <point x="707" y="515"/>
      <point x="664" y="542"/>
      <point x="627" y="542" type="curve" smooth="yes"/>
      <point x="547" y="542"/>
      <point x="521" y="489"/>
      <point x="487" y="430" type="curve" smooth="yes"/>
      <point x="462" y="387"/>
      <point x="450" y="352"/>
      <point x="424" y="330" type="curve" smooth="yes"/>
      <point x="364" y="273"/>
      <point x="312" y="275"/>
      <point x="247" y="275" type="curve"/>
      <point x="247" y="424" type="line" smooth="yes"/>
      <point x="247" y="509"/>
      <point x="249" y="526"/>
      <point x="298" y="526" type="curve" smooth="yes"/>
      <point x="364" y="526" type="line"/>
      <point x="364" y="536" type="line"/>
      <point x="27" y="536" type="line"/>
      <point x="21" y="416" type="line"/>
      <point x="31" y="416" type="line"/>
      <point x="31" y="453" type="line" smooth="yes"/>
      <point x="29" y="510"/>
      <point x="41" y="526"/>
      <point x="83" y="526" type="curve" smooth="yes"/>
      <point x="219" y="526" type="line"/>
      <point x="219" y="83" type="line" smooth="yes"/>
      <point x="219" y="12"/>
      <point x="217" y="10"/>
      <point x="130" y="10" type="curve" smooth="yes"/>
      <point x="80" y="10" type="line"/>
    </contour>
  </outline>
</glyph>
<glyph name="uni04A3" format="2">
  <advance width="855"/>
  <unicode hex="04A3"/>
  <anchor x="427" y="0" name="bottom"/>
  <anchor x="427" y="536" name="top"/>
  <outline>
    <contour>
      <point x="807" y="-210" type="line"/>
      <point x="817" y="-210" type="line"/>
      <point x="817" y="20" type="line"/>
      <point x="696" y="20" type="line" smooth="yes"/>
      <point x="690" y="20"/>
      <point x="684" y="30"/>
      <point x="684" y="82" type="curve" smooth="yes"/>
      <point x="684" y="454" type="line" smooth="yes"/>
      <point x="684" y="522"/>
      <point x="684" y="526"/>
      <point x="768" y="526" type="curve" smooth="yes"/>
      <point x="817" y="526" type="line"/>
      <point x="817" y="536" type="line"/>
      <point x="530" y="536" type="line"/>
      <point x="530" y="526" type="line"/>
      <point x="571" y="526" type="line" smooth="yes"/>
      <point x="654" y="526"/>
      <point x="656" y="522"/>
      <point x="656" y="454" type="curve" smooth="yes"/>
      <point x="656" y="280" type="line"/>
      <point x="201" y="280" type="line"/>
      <point x="201" y="454" type="line" smooth="yes"/>
      <point x="201" y="502"/>
      <point x="199" y="526"/>
      <point x="253" y="526" type="curve" smooth="yes"/>
      <point x="328" y="526" type="line"/>
      <point x="328" y="536" type="line"/>
      <point x="41" y="536" type="line"/>
      <point x="41" y="526" type="line"/>
      <point x="130" y="526" type="line" smooth="yes"/>
      <point x="173" y="526"/>
      <point x="173" y="502"/>
      <point x="173" y="454" type="curve" smooth="yes"/>
      <point x="173" y="82" type="line" smooth="yes"/>
      <point x="173" y="13"/>
      <point x="171" y="10"/>
      <point x="88" y="10" type="curve" smooth="yes"/>
      <point x="41" y="10" type="line"/>
      <point x="41" y="0" type="line"/>
      <point x="328" y="0" type="line"/>
      <point x="328" y="10" type="line"/>
      <point x="278" y="10" type="line" smooth="yes"/>
      <point x="208" y="10"/>
      <point x="201" y="13"/>
      <point x="201" y="82" type="curve" smooth="yes"/>
      <point x="201" y="270" type="line"/>
      <point x="656" y="270" type="line"/>
      <point x="656" y="82" type="line" smooth="yes"/>
      <point x="656" y="12"/>
      <point x="652" y="10"/>
      <point x="569" y="10" type="curve" smooth="yes"/>
      <point x="530" y="10" type="line"/>
      <point x="530" y="0" type="line"/>
      <point x="854" y="0" type="line" smooth="yes"/>
      <point x="801" y="0"/>
      <point x="795" y="12"/>
      <point x="792" y="100" type="curve" smooth="yes"/>
    </contour>
  </outline>
</glyph>
<glyph name="uni04A9" format="2">
  <advance width="638"/>
  <unicode hex="04A9"/>
  <anchor x="320" y="0" name="bottom"/>
  <anchor x="320" y="536" name="top"/>
  <outline>
    <contour>
      <point x="499" y="-30" type="curve" smooth="yes"/>
      <point x="528" y="-30"/>
      <point x="570" y="-28"/>
      <point x="570" y="11" type="curve" smooth="yes"/>
      <point x="570" y="18"/>
      <point x="567" y="25"/>
      <point x="554" y="31" type="curve"/>
      <point x="545" y="1"/>
      <point x="526" y="-22"/>
      <point x="497" y="-22" type="curve" smooth="yes"/>
      <point x="458" y="-22"/>
      <point x="427" y="-10"/>
      <point x="399" y="10" type="curve"/>
      <point x="501" y="59"/>
      <point x="560" y="150"/>
      <point x="560" y="230" type="curve" smooth="yes"/>
      <point x="560" y="388"/>
      <point x="524" y="434"/>
      <point x="435" y="434" type="curve" smooth="yes"/>
      <point x="349" y="434"/>
      <point x="289" y="366"/>
      <point x="289" y="216" type="curve" smooth="yes"/>
      <point x="289" y="138"/>
      <point x="313" y="71"/>
      <point x="384" y="15" type="curve"/>
      <point x="347" y="1"/>
      <point x="336" y="0"/>
      <point x="308" y="0" type="curve" smooth="yes"/>
      <point x="158" y="0"/>
      <point x="110" y="121"/>
      <point x="110" y="266" type="curve" smooth="yes"/>
      <point x="110" y="460"/>
      <point x="176" y="531"/>
      <point x="327" y="531" type="curve" smooth="yes"/>
      <point x="363" y="531"/>
      <point x="394" y="520"/>
      <point x="394" y="490" type="curve"/>
      <point x="406" y="492"/>
      <point x="409" y="495"/>
      <point x="409" y="503" type="curve" smooth="yes"/>
      <point x="409" y="531"/>
      <point x="369" y="541"/>
      <point x="327" y="541" type="curve" smooth="yes"/>
      <point x="181" y="541"/>
      <point x="82" y="464"/>
      <point x="82" y="265" type="curve" smooth="yes"/>
      <point x="82" y="84"/>
      <point x="188" y="-10"/>
      <point x="306" y="-10" type="curve" smooth="yes"/>
      <point x="333" y="-10"/>
      <point x="354" y="-6"/>
      <point x="393" y="8" type="curve"/>
      <point x="427" y="-17"/>
      <point x="459" y="-30"/>
    </contour>
    <contour>
      <point x="390" y="16" type="curve"/>
      <point x="339" y="49"/>
      <point x="315" y="118"/>
      <point x="315" y="218" type="curve" smooth="yes"/>
      <point x="315" y="384"/>
      <point x="363" y="424"/>
      <point x="435" y="424" type="curve" smooth="yes"/>
      <point x="489" y="424"/>
      <point x="534" y="407"/>
      <point x="534" y="230" type="curve" smooth="yes"/>
      <point x="534" y="118"/>
      <point x="479" y="46"/>
    </contour>
  </outline>
</glyph>
<glyph name="uni04B2" format="2">
  <advance width="723"/>
  <unicode hex="04B2"/>
  <anchor x="407" y="0" name="bottom"/>
  <anchor x="407" y="714" name="top"/>
  <outline>
    <contour>
      <point x="717" y="-210" type="curve"/>
      <point x="727" y="-210" type="line"/>
      <point x="727" y="20" type="line"/>
      <point x="677" y="20" type="line" smooth="yes"/>
      <point x="615" y="20"/>
      <point x="588" y="35"/>
      <point x="560" y="78" type="curve" smooth="yes"/>
      <point x="358" y="388" type="line"/>
      <point x="528" y="658" type="line" smooth="yes"/>
      <point x="554" y="698"/>
      <point x="555" y="704"/>
      <point x="609" y="704" type="curve" smooth="yes"/>
      <point x="655" y="704" type="line"/>
      <point x="655" y="714" type="line"/>
      <point x="450" y="714" type="line"/>
      <point x="450" y="704" type="line"/>
      <point x="485" y="704" type="line" smooth="yes"/>
      <point x="523" y="704"/>
      <point x="526" y="696"/>
      <point x="526" y="684" type="curve" smooth="yes"/>
      <point x="526" y="668"/>
      <point x="507" y="645"/>
      <point x="490" y="617" type="curve" smooth="yes"/>
      <point x="352" y="397" type="line"/>
      <point x="210" y="618" type="line" smooth="yes"/>
      <point x="190" y="648"/>
      <point x="180" y="659"/>
      <point x="180" y="682" type="curve" smooth="yes"/>
      <point x="180" y="694"/>
      <point x="183" y="704"/>
      <point x="220" y="704" type="curve" smooth="yes"/>
      <point x="246" y="704" type="line"/>
      <point x="246" y="714" type="line"/>
      <point x="15" y="714" type="line"/>
      <point x="15" y="704" type="line"/>
      <point x="73" y="704" type="line" smooth="yes"/>
      <point x="124" y="704"/>
      <point x="123" y="701"/>
      <point x="151" y="657" type="curve" smooth="yes"/>
      <point x="334" y="370" type="line"/>
      <point x="140" y="57" type="line" smooth="yes"/>
      <point x="112" y="13"/>
      <point x="112" y="10"/>
      <point x="72" y="10" type="curve" smooth="yes"/>
      <point x="8" y="10" type="line"/>
      <point x="8" y="0" type="line"/>
      <point x="237" y="0" type="line"/>
      <point x="237" y="10" type="line"/>
      <point x="179" y="10" type="line" smooth="yes"/>
      <point x="145" y="10"/>
      <point x="143" y="19"/>
      <point x="143" y="30" type="curve" smooth="yes"/>
      <point x="143" y="49"/>
      <point x="158" y="70"/>
      <point x="199" y="133" type="curve" smooth="yes"/>
      <point x="341" y="361" type="line"/>
      <point x="491" y="129" type="line" smooth="yes"/>
      <point x="517" y="90"/>
      <point x="530" y="75"/>
      <point x="530" y="54" type="curve" smooth="yes"/>
      <point x="530" y="8"/>
      <point x="510" y="10"/>
      <point x="445" y="10" type="curve" smooth="yes"/>
      <point x="457" y="10" type="line"/>
      <point x="457" y="0" type="line"/>
      <point x="744" y="0" type="line" smooth="yes"/>
      <point x="712" y="0"/>
      <point x="717" y="-26"/>
    </contour>
  </outline>
</glyph>
<glyph name="uni04B9" format="2">
  <advance width="739"/>
  <unicode hex="04B9"/>
  <anchor x="370" y="0" name="bottom"/>
  <anchor x="370" y="536" name="top"/>
  <outline>
    <contour>
      <point x="334" y="88" type="line"/>
      <point x="344" y="88" type="line"/>
      <point x="344" y="335" type="line"/>
      <point x="334" y="335" type="line"/>
    </contour>
    <component base="afii10089"/>
  </outline>
</glyph>
<glyph name="uni04BF" format="2">
  <advance width="714"/>
  <unicode hex="04BF"/>
  <anchor x="435" y="-210" name="bottom"/>
  <anchor x="418" y="536" name="top"/>
  <outline>
    <contour>
      <point x="433" y="-210" type="curve"/>
      <point x="443" y="-210" type="line"/>
      <point x="443" y="-64"/>
      <point x="454" y="-34"/>
      <point x="469" y="-11" type="curve" smooth="yes"/>
      <point x="579" y="-8"/>
      <point x="637" y="62"/>
      <point x="637" y="91" type="curve" smooth="yes"/>
      <point x="637" y="99"/>
      <point x="635" y="110"/>
      <point x="624" y="113" type="curve"/>
      <point x="598" y="36"/>
      <point x="541" y="0"/>
      <point x="447" y="0" type="curve" smooth="yes"/>
      <point x="319" y="0"/>
      <point x="224" y="94"/>
      <point x="228" y="288" type="curve"/>
      <point x="652" y="288" type="line"/>
      <point x="652" y="295" type="line" smooth="yes"/>
      <point x="652" y="451"/>
      <point x="563" y="542"/>
      <point x="435" y="542" type="curve" smooth="yes"/>
      <point x="292" y="542"/>
      <point x="209" y="463"/>
      <point x="199" y="298" type="curve"/>
      <point x="82" y="297"/>
      <point x="40" y="325"/>
      <point x="40" y="360" type="curve" smooth="yes"/>
      <point x="40" y="378"/>
      <point x="55" y="393"/>
      <point x="67" y="398" type="curve"/>
      <point x="64" y="408"/>
      <point x="60" y="411"/>
      <point x="50" y="411" type="curve" smooth="yes"/>
      <point x="34" y="411"/>
      <point x="12" y="398"/>
      <point x="12" y="362" type="curve" smooth="yes"/>
      <point x="12" y="306"/>
      <point x="38" y="287"/>
      <point x="198" y="288" type="curve"/>
      <point x="198" y="97"/>
      <point x="282" y="0"/>
      <point x="408" y="-11" type="curve" smooth="yes"/>
      <point x="422" y="-29"/>
      <point x="433" y="-56"/>
    </contour>
    <contour>
      <point x="232" y="298" type="line"/>
      <point x="242" y="448"/>
      <point x="287" y="532"/>
      <point x="433" y="532" type="curve" smooth="yes"/>
      <point x="550" y="532"/>
      <point x="624" y="446"/>
      <point x="624" y="298" type="curve"/>
    </contour>
  </outline>
</glyph>
<glyph name="uni04CC" format="2">
  <advance width="738"/>
  <unicode hex="04CC"/>
  <anchor x="369" y="-210" name="bottom"/>
  <anchor x="369" y="536" name="top"/>
  <outline>
    <contour>
      <point x="402" y="-210" type="line"/>
      <point x="412" y="-210" type="line"/>
      <point x="429" y="110" type="line" smooth="yes"/>
      <point x="429" y="18"/>
      <point x="424" y="0"/>
      <point x="363" y="0" type="curve" smooth="yes"/>
      <point x="694" y="0" type="line"/>
      <point x="694" y="10" type="line"/>
      <point x="649" y="10" type="line" smooth="yes"/>
      <point x="564" y="10"/>
      <point x="562" y="12"/>
      <point x="562" y="82" type="curve" smooth="yes"/>
      <point x="562" y="454" type="line" smooth="yes"/>
      <point x="562" y="522"/>
      <point x="562" y="526"/>
      <point x="642" y="526" type="curve" smooth="yes"/>
      <point x="695" y="526" type="line"/>
      <point x="695" y="536" type="line"/>
      <point x="410" y="536" type="line"/>
      <point x="410" y="526" type="line"/>
      <point x="449" y="526" type="line" smooth="yes"/>
      <point x="532" y="526"/>
      <point x="534" y="522"/>
      <point x="534" y="454" type="curve" smooth="yes"/>
      <point x="534" y="247" type="line"/>
      <point x="471" y="229"/>
      <point x="398" y="201"/>
      <point x="319" y="201" type="curve" smooth="yes"/>
      <point x="227" y="201"/>
      <point x="176" y="229"/>
      <point x="176" y="316" type="curve" smooth="yes"/>
      <point x="176" y="454" type="line" smooth="yes"/>
      <point x="176" y="522"/>
      <point x="180" y="526"/>
      <point x="252" y="526" type="curve" smooth="yes"/>
      <point x="296" y="526" type="line"/>
      <point x="296" y="536" type="line"/>
      <point x="10" y="536" type="line"/>
      <point x="10" y="526" type="line"/>
      <point x="69" y="526" type="line" smooth="yes"/>
      <point x="146" y="526"/>
      <point x="148" y="522"/>
      <point x="148" y="454" type="curve" smooth="yes"/>
      <point x="148" y="312" type="line" smooth="yes"/>
      <point x="148" y="234"/>
      <point x="207" y="191"/>
      <point x="323" y="191" type="curve" smooth="yes"/>
      <point x="392" y="191"/>
      <point x="470" y="212"/>
      <point x="534" y="239" type="curve"/>
      <point x="534" y="82" type="line" smooth="yes"/>
      <point x="534" y="22"/>
      <point x="534" y="20"/>
      <point x="452" y="20" type="curve" smooth="yes"/>
      <point x="402" y="20" type="line"/>
    </contour>
  </outline>
</glyph>
<glyph name="uni04CD" format="2">
  <advance width="1115"/>
  <unicode hex="04CD"/>
  <anchor x="517" y="0" name="bottom"/>
  <anchor x="557" y="714" name="top"/>
  <anchor x="1065" y="714" name="topright"/>
  <outline>
    <contour>
      <point x="865" y="-210" type="line"/>
      <point x="891" y="-210" type="line"/>
      <point x="983" y="0" type="line"/>
      <point x="983" y="10" type="line"/>
      <point x="973" y="10" type="line"/>
      <point x="973" y="0" type="line"/>
    </contour>
    <component base="M"/>
  </outline>
</glyph>
<glyph name="uni04D9" format="2">
  <advance width="599"/>
  <unicode hex="04D9"/>
  <anchor x="300" y="0" name="bottom"/>
  <anchor x="300" y="536" name="top"/>
  <outline>
    <contour>
      <point x="282" y="-10" type="curve" smooth="yes"/>
      <point x="435" y="-10"/>
      <point x="519" y="80"/>
      <point x="519" y="270" type="curve" smooth="yes"/>
      <point x="519" y="446"/>
      <point x="424" y="542"/>
      <point x="272" y="542" type="curve" smooth="yes"/>
      <point x="145" y="542"/>
      <point x="80" y="476"/>
      <point x="80" y="439" type="curve" smooth="yes"/>
      <point x="80" y="434"/>
      <point x="81" y="424"/>
      <point x="93" y="425" type="curve"/>
      <point x="119" y="496"/>
      <point x="176" y="532"/>
      <point x="270" y="532" type="curve" smooth="yes"/>
      <point x="398" y="532"/>
      <point x="493" y="438"/>
      <point x="489" y="245" type="curve"/>
      <point x="65" y="245" type="line"/>
      <point x="65" y="238" type="line" smooth="yes"/>
      <point x="65" y="81"/>
      <point x="154" y="-10"/>
    </contour>
    <contour>
      <point x="284" y="0" type="curve" smooth="yes"/>
      <point x="167" y="0"/>
      <point x="93" y="86"/>
      <point x="93" y="235" type="curve"/>
      <point x="489" y="235" type="line"/>
      <point x="479" y="84"/>
      <point x="430" y="0"/>
    </contour>
  </outline>
</glyph>
<glyph name="uni04E1" format="2">
  <advance width="538"/>
  <unicode hex="04E1"/>
  <anchor x="270" y="-238" name="bottom"/>
  <anchor x="270" y="536" name="top"/>
  <outline>
    <contour>
      <point x="262" y="-238" type="curve" smooth="yes"/>
      <point x="415" y="-238"/>
      <point x="520" y="-129"/>
      <point x="520" y="-13" type="curve" smooth="yes"/>
      <point x="520" y="79"/>
      <point x="484" y="201"/>
      <point x="236" y="205" type="curve"/>
      <point x="512" y="522" type="line"/>
      <point x="512" y="536" type="line"/>
      <point x="85" y="536" type="line"/>
      <point x="82" y="409" type="line"/>
      <point x="92" y="409" type="line"/>
      <point x="103" y="510" type="line" smooth="yes"/>
      <point x="105" y="515"/>
      <point x="112" y="514"/>
      <point x="122" y="514" type="curve" smooth="yes"/>
      <point x="492" y="514" type="line"/>
      <point x="200" y="176" type="line"/>
      <point x="200" y="178" type="line"/>
      <point x="227" y="178" type="line" smooth="yes"/>
      <point x="414" y="178"/>
      <point x="492" y="95"/>
      <point x="492" y="-5" type="curve" smooth="yes"/>
      <point x="492" y="-125"/>
      <point x="389" y="-228"/>
      <point x="262" y="-228" type="curve" smooth="yes"/>
      <point x="149" y="-228"/>
      <point x="75" y="-177"/>
      <point x="74" y="-69" type="curve"/>
      <point x="42" y="-69"/>
      <point x="37" y="-75"/>
      <point x="37" y="-93" type="curve" smooth="yes"/>
      <point x="37" y="-184"/>
      <point x="133" y="-238"/>
    </contour>
  </outline>
</glyph>
<glyph name="uni04E8" format="2">
  <advance width="842"/>
  <unicode hex="04E8"/>
  <anchor x="421" y="0" name="bottom"/>
  <anchor x="421" y="714" name="top"/>
  <outline>
    <contour>
      <point x="422" y="-10" type="curve" smooth="yes"/>
      <point x="686" y="-10"/>
      <point x="769" y="145"/>
      <point x="769" y="358" type="curve" smooth="yes"/>
      <point x="769" y="570"/>
      <point x="680" y="725"/>
      <point x="423" y="725" type="curve" smooth="yes"/>
      <point x="196" y="725"/>
      <point x="72" y="588"/>
      <point x="72" y="359" type="curve" smooth="yes"/>
      <point x="72" y="113"/>
      <point x="190" y="-10"/>
    </contour>
    <contour>
      <point x="422" y="0" type="curve" smooth="yes"/>
      <point x="202" y="0"/>
      <point x="100" y="121"/>
      <point x="100" y="359" type="curve"/>
      <point x="741" y="359" type="line"/>
      <point x="741" y="129"/>
      <point x="657" y="0"/>
    </contour>
    <contour>
      <point x="100" y="369" type="line"/>
      <point x="109" y="599"/>
      <point x="219" y="715"/>
      <point x="423" y="715" type="curve" smooth="yes"/>
      <point x="646" y="715"/>
      <point x="734" y="599"/>
      <point x="739" y="369" type="curve"/>
    </contour>
  </outline>
</glyph>
<glyph name="uni0505" format="2">
  <advance width="866"/>
  <unicode hex="0505"/>
  <anchor x="433" y="0" name="bottom"/>
  <anchor x="433" y="536" name="top"/>
  <outline>
    <contour>
      <point x="568" y="-10" type="curve" smooth="yes"/>
      <point x="646" y="-10"/>
      <point x="719" y="31"/>
      <point x="719" y="83" type="curve" smooth="yes"/>
      <point x="719" y="267" type="line" smooth="yes"/>
      <point x="719" y="315"/>
      <point x="731" y="325"/>
      <point x="736" y="325" type="curve" smooth="yes"/>
      <point x="841" y="325" type="line"/>
      <point x="841" y="335" type="line"/>
      <point x="577" y="335" type="line"/>
      <point x="577" y="325" type="line"/>
      <point x="668" y="325" type="line" smooth="yes"/>
      <point x="679" y="325"/>
      <point x="691" y="314"/>
      <point x="691" y="267" type="curve" smooth="yes"/>
      <point x="691" y="84" type="line" smooth="yes"/>
      <point x="691" y="24"/>
      <point x="643" y="0"/>
      <point x="568" y="0" type="curve" smooth="yes"/>
      <point x="499" y="0"/>
      <point x="450" y="5"/>
      <point x="433" y="134" type="curve" smooth="yes"/>
      <point x="421" y="238"/>
      <point x="392" y="278"/>
      <point x="302" y="289" type="curve"/>
      <point x="302" y="291" type="line"/>
      <point x="366" y="302"/>
      <point x="415" y="330"/>
      <point x="415" y="413" type="curve" smooth="yes"/>
      <point x="415" y="489"/>
      <point x="356" y="543"/>
      <point x="235" y="543" type="curve" smooth="yes"/>
      <point x="150" y="543"/>
      <point x="43" y="515"/>
      <point x="43" y="441" type="curve" smooth="yes"/>
      <point x="43" y="422"/>
      <point x="42" y="410"/>
      <point x="66" y="410" type="curve"/>
      <point x="66" y="494"/>
      <point x="163" y="533"/>
      <point x="239" y="533" type="curve" smooth="yes"/>
      <point x="344" y="533"/>
      <point x="387" y="472"/>
      <point x="387" y="419" type="curve" smooth="yes"/>
      <point x="387" y="319"/>
      <point x="324" y="295"/>
      <point x="249" y="295" type="curve" smooth="yes"/>
      <point x="205" y="295" type="line"/>
      <point x="205" y="285" type="line"/>
      <point x="243" y="285" type="line" smooth="yes"/>
      <point x="348" y="285"/>
      <point x="389" y="239"/>
      <point x="403" y="133" type="curve" smooth="yes"/>
      <point x="424" y="-13"/>
      <point x="495" y="-10"/>
    </contour>
  </outline>
</glyph>
<glyph name="uni051E" format="2">
  <advance width="814"/>
  <unicode hex="051E"/>
  <anchor x="407" y="0" name="bottom"/>
  <anchor x="407" y="714" name="top"/>
  <outline>
    <contour>
      <point x="576" y="409" type="line"/>
      <point x="581" y="417" type="line"/>
      <point x="310" y="597" type="line"/>
      <point x="305" y="585" type="line"/>
    </contour>
    <component base="afii10028"/>
  </outline>
</glyph>
<glyph name="uni0524" format="2">
  <advance width="866"/>
  <unicode hex="0524"/>
  <anchor x="424" y="0" name="bottom"/>
  <anchor x="434" y="714" name="top"/>
  <outline>
    <contour>
      <point x="805" y="-210" type="curve"/>
      <point x="815" y="-210" type="line"/>
      <point x="815" y="20" type="line"/>
      <point x="725" y="20" type="line" smooth="yes"/>
      <point x="681" y="20"/>
      <point x="679" y="21"/>
      <point x="679" y="98" type="curve" smooth="yes"/>
      <point x="679" y="614" type="line" smooth="yes"/>
      <point x="679" y="693"/>
      <point x="683" y="704"/>
      <point x="737" y="704" type="curve" smooth="yes"/>
      <point x="798" y="704" type="line"/>
      <point x="798" y="714" type="line"/>
      <point x="63" y="714" type="line"/>
      <point x="63" y="704" type="line"/>
      <point x="132" y="704" type="line" smooth="yes"/>
      <point x="182" y="704"/>
      <point x="188" y="693"/>
      <point x="188" y="614" type="curve" smooth="yes"/>
      <point x="188" y="98" type="line" smooth="yes"/>
      <point x="188" y="21"/>
      <point x="184" y="10"/>
      <point x="128" y="10" type="curve" smooth="yes"/>
      <point x="63" y="10" type="line"/>
      <point x="63" y="0" type="line"/>
      <point x="337" y="0" type="line"/>
      <point x="337" y="10" type="line"/>
      <point x="270" y="10" type="line" smooth="yes"/>
      <point x="222" y="10"/>
      <point x="216" y="21"/>
      <point x="216" y="98" type="curve" smooth="yes"/>
      <point x="216" y="704" type="line"/>
      <point x="651" y="704" type="line"/>
      <point x="651" y="98" type="line" smooth="yes"/>
      <point x="651" y="21"/>
      <point x="645" y="10"/>
      <point x="593" y="10" type="curve" smooth="yes"/>
      <point x="530" y="10" type="line"/>
      <point x="530" y="0" type="line"/>
      <point x="836" y="0" type="line" smooth="yes"/>
      <point x="804" y="0"/>
      <point x="805" y="-32"/>
    </contour>
  </outline>
</glyph>
<glyph name="uni052F" format="2">
  <advance width="725"/>
  <unicode hex="052F"/>
  <anchor x="352" y="0" name="bottom"/>
  <anchor x="362" y="536" name="top"/>
  <outline>
    <contour>
      <point x="674" y="-210" type="line"/>
      <point x="684" y="-210" type="line"/>
      <point x="684" y="20" type="line"/>
      <point x="578" y="20" type="line" smooth="yes"/>
      <point x="546" y="20"/>
      <point x="547" y="24"/>
      <point x="547" y="82" type="curve" smooth="yes"/>
      <point x="547" y="447" type="line" smooth="yes"/>
      <point x="547" y="521"/>
      <point x="547" y="526"/>
      <point x="631" y="526" type="curve" smooth="yes"/>
      <point x="681" y="526" type="line"/>
      <point x="681" y="536" type="line"/>
      <point x="190" y="536" type="line"/>
      <point x="190" y="526" type="line"/>
      <point x="216" y="526" type="line" smooth="yes"/>
      <point x="310" y="526"/>
      <point x="302" y="515"/>
      <point x="302" y="502" type="curve" smooth="yes"/>
      <point x="302" y="398"/>
      <point x="273" y="252"/>
      <point x="260" y="218" type="curve" smooth="yes"/>
      <point x="218" y="89"/>
      <point x="178" y="22"/>
      <point x="111" y="22" type="curve" smooth="yes"/>
      <point x="57" y="22"/>
      <point x="28" y="51"/>
      <point x="28" y="124" type="curve"/>
      <point x="13" y="124"/>
      <point x="-2" y="110"/>
      <point x="-2" y="79" type="curve" smooth="yes"/>
      <point x="-2" y="23"/>
      <point x="44" y="-7"/>
      <point x="88" y="-7" type="curve" smooth="yes"/>
      <point x="173" y="-7"/>
      <point x="206" y="39"/>
      <point x="245" y="136" type="curve" smooth="yes"/>
      <point x="280" y="227"/>
      <point x="307" y="377"/>
      <point x="325" y="526" type="curve"/>
      <point x="519" y="526" type="line"/>
      <point x="519" y="82" type="line" smooth="yes"/>
      <point x="519" y="12"/>
      <point x="515" y="10"/>
      <point x="432" y="10" type="curve" smooth="yes"/>
      <point x="390" y="10" type="line"/>
      <point x="390" y="0" type="line"/>
      <point x="680" y="0" type="line" smooth="yes"/>
      <point x="656" y="0"/>
      <point x="663" y="18"/>
      <point x="663" y="82" type="curve" smooth="yes"/>
    </contour>
  </outline>
</glyph>
<glyph name="uni1AB8" format="2">
  <unicode hex="1AB8"/>
  <anchor x="-313" y="0" name="_bottom"/>
  <anchor x="-313" y="-231" name="bottom"/>
  <outline>
    <contour>
      <point x="-233" y="-231" type="curve" smooth="yes"/>
      <point x="-195" y="-231"/>
      <point x="-183" y="-217"/>
      <point x="-183" y="-207" type="curve" smooth="yes"/>
      <point x="-183" y="-204"/>
      <point x="-185" y="-195"/>
      <point x="-193" y="-194" type="curve"/>
      <point x="-195" y="-203"/>
      <point x="-210" y="-206"/>
      <point x="-236" y="-206" type="curve" smooth="yes"/>
      <point x="-283" y="-206"/>
      <point x="-294" y="-191"/>
      <point x="-294" y="-159" type="curve" smooth="yes"/>
      <point x="-294" y="-40" type="line"/>
      <point x="-304" y="-40" type="line"/>
      <point x="-304" y="-156" type="line" smooth="yes"/>
      <point x="-304" y="-206"/>
      <point x="-284" y="-231"/>
    </contour>
    <contour>
      <point x="-369" y="-231" type="curve" smooth="yes"/>
      <point x="-331" y="-231"/>
      <point x="-319" y="-217"/>
      <point x="-319" y="-207" type="curve" smooth="yes"/>
      <point x="-319" y="-204"/>
      <point x="-321" y="-195"/>
      <point x="-329" y="-194" type="curve"/>
      <point x="-331" y="-203"/>
      <point x="-346" y="-206"/>
      <point x="-372" y="-206" type="curve" smooth="yes"/>
      <point x="-419" y="-206"/>
      <point x="-430" y="-191"/>
      <point x="-430" y="-159" type="curve" smooth="yes"/>
      <point x="-430" y="-40" type="line"/>
      <point x="-440" y="-40" type="line"/>
      <point x="-440" y="-156" type="line" smooth="yes"/>
      <point x="-440" y="-206"/>
      <point x="-420" y="-231"/>
    </contour>
  </outline>
</glyph>
<glyph name="uni1C80" format="2">
  <advance width="554"/>
  <unicode hex="1C80"/>
  <anchor x="276" y="0" name="bottom"/>
  <anchor x="276" y="546" name="top"/>
  <outline>
    <contour>
      <point x="328" y="-12" type="curve" smooth="yes"/>
      <point x="412" y="-12"/>
      <point x="465" y="32"/>
      <point x="465" y="105" type="curve" smooth="yes"/>
      <point x="465" y="174"/>
      <point x="416" y="216"/>
      <point x="333" y="216" type="curve" smooth="yes"/>
      <point x="233" y="216"/>
      <point x="162" y="154"/>
      <point x="128" y="126" type="curve"/>
      <point x="111" y="174"/>
      <point x="106" y="218"/>
      <point x="106" y="254" type="curve" smooth="yes"/>
      <point x="106" y="304"/>
      <point x="113" y="349"/>
      <point x="124" y="386" type="curve"/>
      <point x="160" y="362"/>
      <point x="230" y="318"/>
      <point x="335" y="318" type="curve" smooth="yes"/>
      <point x="416" y="318"/>
      <point x="465" y="362"/>
      <point x="465" y="434" type="curve" smooth="yes"/>
      <point x="465" y="504"/>
      <point x="416" y="546"/>
      <point x="333" y="546" type="curve" smooth="yes"/>
      <point x="198" y="546"/>
      <point x="80" y="441"/>
      <point x="80" y="254" type="curve" smooth="yes"/>
      <point x="80" y="91"/>
      <point x="177" y="-12"/>
    </contour>
    <contour>
      <point x="328" y="-2" type="curve" smooth="yes"/>
      <point x="268" y="-2"/>
      <point x="172" y="32"/>
      <point x="133" y="117" type="curve"/>
      <point x="154" y="135"/>
      <point x="231" y="206"/>
      <point x="333" y="206" type="curve" smooth="yes"/>
      <point x="408" y="206"/>
      <point x="455" y="168"/>
      <point x="455" y="105" type="curve" smooth="yes"/>
      <point x="455" y="40"/>
      <point x="407" y="-2"/>
    </contour>
    <contour>
      <point x="331" y="328" type="curve" smooth="yes"/>
      <point x="243" y="328"/>
      <point x="160" y="373"/>
      <point x="128" y="397" type="curve"/>
      <point x="178" y="518"/>
      <point x="249" y="536"/>
      <point x="333" y="536" type="curve" smooth="yes"/>
      <point x="408" y="536"/>
      <point x="455" y="496"/>
      <point x="455" y="430" type="curve" smooth="yes"/>
      <point x="455" y="368"/>
      <point x="408" y="328"/>
    </contour>
  </outline>
</glyph>
<glyph name="uni1C81" format="2">
  <advance width="686"/>
  <unicode hex="1C81"/>
  <anchor x="344" y="-210" name="bottom"/>
  <anchor x="344" y="536" name="top"/>
  <outline>
    <contour>
      <point x="15" y="-210" type="line"/>
      <point x="25" y="-210" type="line"/>
      <point x="35" y="207" type="line" smooth="yes"/>
      <point x="34" y="121"/>
      <point x="31" y="86"/>
      <point x="10" y="86" type="curve" smooth="yes"/>
      <point x="602" y="86" type="line" smooth="yes"/>
      <point x="584" y="86"/>
      <point x="581" y="125"/>
      <point x="580" y="217" type="curve" smooth="yes"/>
      <point x="590" y="-210" type="line"/>
      <point x="600" y="-210" type="line"/>
      <point x="600" y="96" type="line"/>
      <point x="527" y="96" type="line" smooth="yes"/>
      <point x="481" y="96"/>
      <point x="485" y="108"/>
      <point x="485" y="134" type="curve" smooth="yes"/>
      <point x="485" y="442" type="line" smooth="yes"/>
      <point x="485" y="522"/>
      <point x="481" y="526"/>
      <point x="550" y="526" type="curve" smooth="yes"/>
      <point x="627" y="526" type="line"/>
      <point x="627" y="536" type="line"/>
      <point x="102" y="536" type="line"/>
      <point x="102" y="526" type="line"/>
      <point x="184" y="526" type="line" smooth="yes"/>
      <point x="233" y="526"/>
      <point x="242" y="521"/>
      <point x="242" y="502" type="curve" smooth="yes"/>
      <point x="242" y="421"/>
      <point x="221" y="351"/>
      <point x="179" y="238" type="curve" smooth="yes"/>
      <point x="163" y="209"/>
      <point x="146" y="163"/>
      <point x="118" y="91" type="curve"/>
      <point x="15" y="91" type="line"/>
    </contour>
    <contour>
      <point x="126" y="91" type="line"/>
      <point x="209" y="288"/>
      <point x="257" y="426"/>
      <point x="254" y="526" type="curve"/>
      <point x="457" y="526" type="line"/>
      <point x="457" y="91" type="line"/>
    </contour>
  </outline>
</glyph>
<glyph name="uni1C84" format="2">
  <advance width="696"/>
  <unicode hex="1C84"/>
  <anchor x="348" y="0" name="bottom"/>
  <anchor x="348" y="714" name="top"/>
  <outline>
    <contour>
      <point x="234" y="0" type="line"/>
      <point x="463" y="0" type="line"/>
      <point x="463" y="10" type="line"/>
      <point x="391" y="10" type="line" smooth="yes"/>
      <point x="350" y="10"/>
      <point x="342" y="5"/>
      <point x="342" y="21" type="curve" smooth="yes"/>
      <point x="342" y="27"/>
      <point x="351" y="52"/>
      <point x="355" y="57" type="curve" smooth="yes"/>
      <point x="631" y="723" type="line"/>
      <point x="631" y="714" type="line"/>
      <point x="80" y="714" type="line"/>
      <point x="74" y="526" type="line"/>
      <point x="84" y="526" type="line"/>
      <point x="99" y="666" type="line" smooth="yes"/>
      <point x="104" y="685"/>
      <point x="100" y="699"/>
      <point x="128" y="699" type="curve" smooth="yes"/>
      <point x="592" y="699" type="line"/>
      <point x="347" y="119" type="line" smooth="yes"/>
      <point x="307" y="13"/>
      <point x="307" y="10"/>
      <point x="283" y="10" type="curve" smooth="yes"/>
      <point x="234" y="10" type="line"/>
    </contour>
  </outline>
</glyph>
<glyph name="uni1D0A" format="2">
  <advance width="360"/>
  <unicode hex="1D0A"/>
  <anchor x="177" y="-177" name="bottom"/>
  <anchor x="177" y="536" name="top"/>
  <outline>
    <contour>
      <point x="20" y="-10" type="line"/>
      <point x="29" y="-10" type="line" smooth="yes"/>
      <point x="179" y="-10"/>
      <point x="204" y="50"/>
      <point x="204" y="154" type="curve" smooth="yes"/>
      <point x="204" y="454" type="line" smooth="yes"/>
      <point x="204" y="522"/>
      <point x="202" y="526"/>
      <point x="259" y="526" type="curve" smooth="yes"/>
      <point x="305" y="526" type="line"/>
      <point x="305" y="536" type="line"/>
      <point x="75" y="536" type="line"/>
      <point x="75" y="526" type="line"/>
      <point x="121" y="526" type="line" smooth="yes"/>
      <point x="178" y="526"/>
      <point x="176" y="522"/>
      <point x="176" y="454" type="curve" smooth="yes"/>
      <point x="176" y="141" type="line" smooth="yes"/>
      <point x="176" y="56"/>
      <point x="156" y="0"/>
      <point x="32" y="0" type="curve" smooth="yes"/>
      <point x="20" y="0" type="line"/>
    </contour>
  </outline>
</glyph>
<glyph name="uni1D0C" format="2">
  <advance width="618"/>
  <unicode hex="1D0C"/>
  <anchor x="310" y="0" name="bottom"/>
  <anchor x="310" y="536" name="top"/>
  <outline>
    <contour>
      <point x="71" y="0" type="line"/>
      <point x="561" y="0" type="line"/>
      <point x="573" y="155" type="line"/>
      <point x="563" y="155" type="line"/>
      <point x="549" y="-8" type="line" smooth="yes"/>
      <point x="545" y="16"/>
      <point x="539" y="8"/>
      <point x="483" y="8" type="curve" smooth="yes"/>
      <point x="202" y="8" type="line"/>
      <point x="202" y="247" type="line"/>
      <point x="383" y="325" type="line"/>
      <point x="382" y="335" type="line"/>
      <point x="202" y="260" type="line"/>
      <point x="202" y="454" type="line" smooth="yes"/>
      <point x="202" y="522"/>
      <point x="200" y="526"/>
      <point x="257" y="526" type="curve" smooth="yes"/>
      <point x="301" y="526" type="line"/>
      <point x="301" y="536" type="line"/>
      <point x="71" y="536" type="line"/>
      <point x="71" y="526" type="line"/>
      <point x="116" y="526" type="line" smooth="yes"/>
      <point x="176" y="526"/>
      <point x="174" y="522"/>
      <point x="174" y="454" type="curve" smooth="yes"/>
      <point x="174" y="251" type="line"/>
      <point x="57" y="201" type="line"/>
      <point x="57" y="193" type="line"/>
      <point x="174" y="241" type="line"/>
      <point x="174" y="82" type="line" smooth="yes"/>
      <point x="174" y="12"/>
      <point x="176" y="10"/>
      <point x="116" y="10" type="curve" smooth="yes"/>
      <point x="71" y="10" type="line"/>
    </contour>
  </outline>
</glyph>
<glyph name="uni1D18" format="2">
  <advance width="570"/>
  <unicode hex="1D18"/>
  <anchor x="285" y="0" name="bottom"/>
  <anchor x="285" y="536" name="top"/>
  <outline>
    <contour>
      <point x="53" y="0" type="line"/>
      <point x="301" y="0" type="line"/>
      <point x="301" y="10" type="line"/>
      <point x="247" y="10" type="line" smooth="yes"/>
      <point x="184" y="10"/>
      <point x="184" y="12"/>
      <point x="184" y="82" type="curve" smooth="yes"/>
      <point x="184" y="208" type="line"/>
      <point x="292" y="208" type="line" smooth="yes"/>
      <point x="484" y="208"/>
      <point x="531" y="304"/>
      <point x="531" y="378" type="curve" smooth="yes"/>
      <point x="531" y="471"/>
      <point x="471" y="536"/>
      <point x="319" y="536" type="curve" smooth="yes"/>
      <point x="53" y="536" type="line"/>
      <point x="53" y="526" type="line"/>
      <point x="98" y="526" type="line" smooth="yes"/>
      <point x="156" y="526"/>
      <point x="156" y="522"/>
      <point x="156" y="454" type="curve" smooth="yes"/>
      <point x="156" y="82" type="line" smooth="yes"/>
      <point x="156" y="12"/>
      <point x="156" y="10"/>
      <point x="98" y="10" type="curve" smooth="yes"/>
      <point x="53" y="10" type="line"/>
    </contour>
    <contour>
      <point x="184" y="218" type="line"/>
      <point x="184" y="526" type="line"/>
      <point x="317" y="526" type="line" smooth="yes"/>
      <point x="453" y="526"/>
      <point x="503" y="476"/>
      <point x="503" y="378" type="curve" smooth="yes"/>
      <point x="503" y="301"/>
      <point x="465" y="218"/>
      <point x="286" y="218" type="curve" smooth="yes"/>
    </contour>
  </outline>
</glyph>
<glyph name="uni1D23" format="2">
  <advance width="497"/>
  <unicode hex="1D23"/>
  <anchor x="248" y="0" name="bottom"/>
  <anchor x="248" y="536" name="top"/>
  <outline>
    <contour>
      <point x="213" y="-12" type="curve" smooth="yes"/>
      <point x="351" y="-12"/>
      <point x="445" y="37"/>
      <point x="445" y="155" type="curve" smooth="yes"/>
      <point x="445" y="230"/>
      <point x="395" y="304"/>
      <point x="244" y="306" type="curve"/>
      <point x="472" y="530" type="line"/>
      <point x="472" y="536" type="line"/>
      <point x="87" y="536" type="line"/>
      <point x="75" y="411" type="line"/>
      <point x="85" y="411" type="line"/>
      <point x="92" y="467" type="line" smooth="yes"/>
      <point x="99" y="507"/>
      <point x="120" y="521"/>
      <point x="158" y="521" type="curve" smooth="yes"/>
      <point x="450" y="521" type="line"/>
      <point x="219" y="294" type="line"/>
      <point x="219" y="277" type="line"/>
      <point x="251" y="277" type="line" smooth="yes"/>
      <point x="377" y="277"/>
      <point x="417" y="210"/>
      <point x="417" y="140" type="curve" smooth="yes"/>
      <point x="417" y="31"/>
      <point x="335" y="-4"/>
      <point x="222" y="-4" type="curve" smooth="yes"/>
      <point x="127" y="-4"/>
      <point x="67" y="43"/>
      <point x="67" y="117" type="curve"/>
      <point x="51" y="117"/>
      <point x="32" y="117"/>
      <point x="32" y="87" type="curve" smooth="yes"/>
      <point x="32" y="8"/>
      <point x="126" y="-12"/>
    </contour>
  </outline>
</glyph>
<glyph name="uni1D28" format="2">
  <advance width="733"/>
  <unicode hex="1D28"/>
  <outline>
    <contour>
      <point x="54" y="0" type="line"/>
      <point x="289" y="0" type="line"/>
      <point x="289" y="10" type="line"/>
      <point x="236" y="10" type="line" smooth="yes"/>
      <point x="185" y="10"/>
      <point x="185" y="12"/>
      <point x="185" y="82" type="curve" smooth="yes"/>
      <point x="185" y="516" type="line"/>
      <point x="546" y="516" type="line"/>
      <point x="546" y="82" type="line" smooth="yes"/>
      <point x="546" y="12"/>
      <point x="546" y="10"/>
      <point x="492" y="10" type="curve" smooth="yes"/>
      <point x="439" y="10" type="line"/>
      <point x="439" y="0" type="line"/>
      <point x="674" y="0" type="line"/>
      <point x="674" y="10" type="line"/>
      <point x="629" y="10" type="line" smooth="yes"/>
      <point x="574" y="10"/>
      <point x="574" y="12"/>
      <point x="574" y="82" type="curve" smooth="yes"/>
      <point x="574" y="454" type="line" smooth="yes"/>
      <point x="574" y="522"/>
      <point x="574" y="526"/>
      <point x="629" y="526" type="curve" smooth="yes"/>
      <point x="674" y="526" type="line"/>
      <point x="674" y="536" type="line"/>
      <point x="54" y="536" type="line"/>
      <point x="54" y="526" type="line"/>
      <point x="101" y="526" type="line" smooth="yes"/>
      <point x="157" y="526"/>
      <point x="157" y="522"/>
      <point x="157" y="454" type="curve" smooth="yes"/>
      <point x="157" y="82" type="line" smooth="yes"/>
      <point x="157" y="12"/>
      <point x="157" y="10"/>
      <point x="101" y="10" type="curve" smooth="yes"/>
      <point x="54" y="10" type="line"/>
    </contour>
  </outline>
</glyph>
<glyph name="uni1D3B" format="2">
  <advance width="587"/>
  <unicode hex="1D3B"/>
  <anchor x="299" y="287" name="bottom"/>
  <anchor x="299" y="715" name="top"/>
  <anchor x="579" y="715" name="topright"/>
  <outline>
    <contour>
      <point x="114" y="287" type="line"/>
      <point x="112" y="287" type="line"/>
      <point x="459" y="667" type="line"/>
      <point x="459" y="346" type="line" smooth="yes"/>
      <point x="459" y="300"/>
      <point x="455" y="293"/>
      <point x="421" y="293" type="curve" smooth="yes"/>
      <point x="388" y="293" type="line"/>
      <point x="388" y="287" type="line"/>
      <point x="546" y="287" type="line"/>
      <point x="546" y="293" type="line"/>
      <point x="502" y="293" type="line" smooth="yes"/>
      <point x="469" y="293"/>
      <point x="464" y="300"/>
      <point x="464" y="346" type="curve" smooth="yes"/>
      <point x="464" y="657" type="line" smooth="yes"/>
      <point x="464" y="703"/>
      <point x="469" y="709"/>
      <point x="502" y="709" type="curve" smooth="yes"/>
      <point x="546" y="709" type="line"/>
      <point x="546" y="715" type="line"/>
      <point x="470" y="715" type="line"/>
      <point x="122" y="333" type="line"/>
      <point x="122" y="657" type="line" smooth="yes"/>
      <point x="122" y="703"/>
      <point x="126" y="709"/>
      <point x="157" y="709" type="curve" smooth="yes"/>
      <point x="193" y="709" type="line"/>
      <point x="193" y="715" type="line"/>
      <point x="36" y="715" type="line"/>
      <point x="36" y="709" type="line"/>
      <point x="78" y="709" type="line" smooth="yes"/>
      <point x="110" y="709"/>
      <point x="114" y="703"/>
      <point x="114" y="657" type="curve" smooth="yes"/>
    </contour>
  </outline>
</glyph>
<glyph name="uni1D70" format="2">
  <advance width="761"/>
  <unicode hex="1D70"/>
  <anchor x="391" y="536" name="top"/>
  <anchor x="671" y="536" name="topright"/>
  <anchor x="391" y="0" name="bottom"/>
  <outline>
    <contour>
      <point x="5" y="230" type="curve"/>
      <point x="15" y="230" type="line"/>
      <point x="21" y="260"/>
      <point x="12" y="310"/>
      <point x="141" y="310" type="curve" smooth="yes"/>
      <point x="327" y="310"/>
      <point x="419" y="233"/>
      <point x="649" y="233" type="curve" smooth="yes"/>
      <point x="760" y="233"/>
      <point x="769" y="293"/>
      <point x="777" y="336" type="curve"/>
      <point x="767" y="336" type="line"/>
      <point x="755" y="307"/>
      <point x="760" y="255"/>
      <point x="642" y="255" type="curve" smooth="yes"/>
      <point x="414" y="255"/>
      <point x="322" y="332"/>
      <point x="134" y="332" type="curve" smooth="yes"/>
      <point x="18" y="332"/>
      <point x="13" y="270"/>
    </contour>
    <component base="n" xOffset="10"/>
  </outline>
</glyph>
<glyph name="uni1D73" format="2">
  <advance width="467"/>
  <unicode hex="1D73"/>
  <anchor x="234" y="536" name="top"/>
  <anchor x="234" y="0" name="bottom"/>
  <outline>
    <contour>
      <point x="-26" y="212" type="curve"/>
      <point x="-16" y="212" type="line"/>
      <point x="-11" y="240"/>
      <point x="-3" y="270"/>
      <point x="65" y="270" type="curve" smooth="yes"/>
      <point x="125" y="270"/>
      <point x="200" y="231"/>
      <point x="272" y="231" type="curve" smooth="yes"/>
      <point x="329" y="231"/>
      <point x="348" y="264"/>
      <point x="354" y="306" type="curve"/>
      <point x="344" y="306" type="line"/>
      <point x="338" y="279"/>
      <point x="327" y="258"/>
      <point x="265" y="258" type="curve" smooth="yes"/>
      <point x="208" y="258"/>
      <point x="144" y="297"/>
      <point x="64" y="297" type="curve" smooth="yes"/>
      <point x="3" y="297"/>
      <point x="-21" y="244"/>
    </contour>
    <component base="uni027E"/>
  </outline>
</glyph>
<glyph name="uni1D7A" format="2">
  <advance width="1125"/>
  <unicode hex="1D7A"/>
  <anchor x="780" y="760" name="top_2"/>
  <anchor x="1006" y="760" name="topright_2"/>
  <anchor x="303" y="657" name="topright_1"/>
  <anchor x="211" y="0" name="bottom_1"/>
  <anchor x="780" y="0" name="bottom_2"/>
  <anchor x="177" y="657" name="top_1"/>
  <anchor x="780" y="268" name="center_2"/>
  <anchor x="211" y="268" name="center_1"/>
  <outline>
    <contour>
      <point x="-5" y="-110" type="line"/>
      <point x="10" y="-110" type="line"/>
      <point x="818" y="760" type="line"/>
      <point x="803" y="760" type="line"/>
    </contour>
    <component base="t" xOffset="40"/>
    <component base="h" xOffset="413"/>
  </outline>
</glyph>
<glyph name="ogonekabove" format="2">
  <unicode hex="1DCE"/>
  <anchor x="-297" y="536" name="_top"/>
  <anchor x="-297" y="750" name="top"/>
  <outline>
    <contour>
      <point x="-330" y="533" type="curve"/>
      <point x="-313" y="533" type="line"/>
      <point x="-250" y="567"/>
      <point x="-199" y="603"/>
      <point x="-199" y="654" type="curve" smooth="yes"/>
      <point x="-199" y="698"/>
      <point x="-243" y="749"/>
      <point x="-315" y="749" type="curve" smooth="yes"/>
      <point x="-344" y="749"/>
      <point x="-369" y="741"/>
      <point x="-395" y="732" type="curve"/>
      <point x="-395" y="723" type="line"/>
      <point x="-367" y="728"/>
      <point x="-347" y="733"/>
      <point x="-327" y="733" type="curve" smooth="yes"/>
      <point x="-276" y="733"/>
      <point x="-223" y="701"/>
      <point x="-223" y="649" type="curve" smooth="yes"/>
      <point x="-223" y="589"/>
      <point x="-295" y="558"/>
    </contour>
  </outline>
</glyph>
<glyph name="uni1FFE" format="2">
  <advance width="58"/>
  <unicode hex="1FFE"/>
  <anchor x="16" y="536" name="_top"/>
  <anchor x="16" y="733" name="top"/>
  <outline>
    <contour>
      <point x="65" y="550" type="curve"/>
      <point x="65" y="562" type="line"/>
      <point x="11" y="576"/>
      <point x="-10" y="608"/>
      <point x="-10" y="624" type="curve" smooth="yes"/>
      <point x="-10" y="667"/>
      <point x="46" y="641"/>
      <point x="46" y="694" type="curve" smooth="yes"/>
      <point x="46" y="719"/>
      <point x="35" y="733"/>
      <point x="12" y="733" type="curve" smooth="yes"/>
      <point x="-10" y="733"/>
      <point x="-26" y="712"/>
      <point x="-26" y="664" type="curve" smooth="yes"/>
      <point x="-26" y="600"/>
      <point x="-9" y="575"/>
    </contour>
  </outline>
</glyph>
<glyph name="quotedblleft" format="2">
  <advance width="362"/>
  <unicode hex="201C"/>
  <outline>
    <contour>
      <point x="221" y="512" type="curve" smooth="yes"/>
      <point x="235" y="512"/>
      <point x="245" y="522"/>
      <point x="245" y="547" type="curve" smooth="yes"/>
      <point x="245" y="568"/>
      <point x="202" y="585"/>
      <point x="202" y="597" type="curve" smooth="yes"/>
      <point x="202" y="626"/>
      <point x="242" y="698"/>
      <point x="292" y="703" type="curve"/>
      <point x="292" y="714" type="line"/>
      <point x="221" y="699"/>
      <point x="182" y="627"/>
      <point x="182" y="570" type="curve" smooth="yes"/>
      <point x="182" y="528"/>
      <point x="197" y="512"/>
    </contour>
    <contour>
      <point x="86" y="512" type="curve" smooth="yes"/>
      <point x="100" y="512"/>
      <point x="110" y="522"/>
      <point x="110" y="547" type="curve" smooth="yes"/>
      <point x="110" y="568"/>
      <point x="67" y="585"/>
      <point x="67" y="597" type="curve" smooth="yes"/>
      <point x="67" y="626"/>
      <point x="107" y="698"/>
      <point x="157" y="703" type="curve"/>
      <point x="157" y="714" type="line"/>
      <point x="86" y="699"/>
      <point x="47" y="627"/>
      <point x="47" y="570" type="curve" smooth="yes"/>
      <point x="47" y="528"/>
      <point x="62" y="512"/>
    </contour>
  </outline>
</glyph>
<glyph name="uni202A" format="2">
  <unicode hex="202A"/>
  <outline>
    <contour>
      <point x="-10" y="-133" type="line"/>
      <point x="11" y="-133" type="line"/>
      <point x="11" y="573" type="line"/>
      <point x="212" y="573" type="line"/>
      <point x="212" y="593" type="line"/>
      <point x="-10" y="593" type="line"/>
    </contour>
  </outline>
</glyph>
<glyph name="pertenthousand" format="2">
  <advance width="1917"/>
  <unicode hex="2031"/>
  <outline>
    <contour>
      <point x="284" y="0" type="line"/>
      <point x="298" y="0" type="line"/>
      <point x="754" y="714" type="line"/>
      <point x="740" y="714" type="line"/>
    </contour>
    <contour>
      <point x="221" y="280" type="curve" smooth="yes"/>
      <point x="323" y="280"/>
      <point x="365" y="379"/>
      <point x="365" y="503" type="curve" smooth="yes"/>
      <point x="365" y="625"/>
      <point x="324" y="724"/>
      <point x="222" y="724" type="curve" smooth="yes"/>
      <point x="120" y="724"/>
      <point x="75" y="627"/>
      <point x="75" y="503" type="curve" smooth="yes"/>
      <point x="75" y="384"/>
      <point x="117" y="280"/>
    </contour>
    <contour>
      <point x="221" y="290" type="curve" smooth="yes"/>
      <point x="145" y="290"/>
      <point x="103" y="351"/>
      <point x="103" y="503" type="curve" smooth="yes"/>
      <point x="103" y="654"/>
      <point x="143" y="714"/>
      <point x="219" y="714" type="curve" smooth="yes"/>
      <point x="292" y="714"/>
      <point x="337" y="654"/>
      <point x="337" y="503" type="curve" smooth="yes"/>
      <point x="337" y="351"/>
      <point x="294" y="290"/>
    </contour>
    <contour>
      <point x="816" y="-10" type="curve" smooth="yes"/>
      <point x="918" y="-10"/>
      <point x="960" y="89"/>
      <point x="960" y="213" type="curve" smooth="yes"/>
      <point x="960" y="335"/>
      <point x="919" y="434"/>
      <point x="817" y="434" type="curve" smooth="yes"/>
      <point x="715" y="434"/>
      <point x="670" y="337"/>
      <point x="670" y="213" type="curve" smooth="yes"/>
      <point x="670" y="94"/>
      <point x="712" y="-10"/>
    </contour>
    <contour>
      <point x="816" y="0" type="curve" smooth="yes"/>
      <point x="740" y="0"/>
      <point x="698" y="61"/>
      <point x="698" y="213" type="curve" smooth="yes"/>
      <point x="698" y="364"/>
      <point x="738" y="424"/>
      <point x="814" y="424" type="curve" smooth="yes"/>
      <point x="887" y="424"/>
      <point x="932" y="364"/>
      <point x="932" y="213" type="curve" smooth="yes"/>
      <point x="932" y="61"/>
      <point x="889" y="0"/>
    </contour>
    <contour>
      <point x="1256" y="-10" type="curve" smooth="yes"/>
      <point x="1358" y="-10"/>
      <point x="1400" y="89"/>
      <point x="1400" y="213" type="curve" smooth="yes"/>
      <point x="1400" y="335"/>
      <point x="1359" y="434"/>
      <point x="1257" y="434" type="curve" smooth="yes"/>
      <point x="1155" y="434"/>
      <point x="1110" y="337"/>
      <point x="1110" y="213" type="curve" smooth="yes"/>
      <point x="1110" y="94"/>
      <point x="1152" y="-10"/>
    </contour>
    <contour>
      <point x="1256" y="0" type="curve" smooth="yes"/>
      <point x="1180" y="0"/>
      <point x="1138" y="61"/>
      <point x="1138" y="213" type="curve" smooth="yes"/>
      <point x="1138" y="364"/>
      <point x="1178" y="424"/>
      <point x="1254" y="424" type="curve" smooth="yes"/>
      <point x="1327" y="424"/>
      <point x="1372" y="364"/>
      <point x="1372" y="213" type="curve" smooth="yes"/>
      <point x="1372" y="61"/>
      <point x="1329" y="0"/>
    </contour>
    <contour>
      <point x="1698" y="-10" type="curve" smooth="yes"/>
      <point x="1800" y="-10"/>
      <point x="1842" y="89"/>
      <point x="1842" y="213" type="curve" smooth="yes"/>
      <point x="1842" y="335"/>
      <point x="1801" y="434"/>
      <point x="1699" y="434" type="curve" smooth="yes"/>
      <point x="1597" y="434"/>
      <point x="1552" y="337"/>
      <point x="1552" y="213" type="curve" smooth="yes"/>
      <point x="1552" y="94"/>
      <point x="1594" y="-10"/>
    </contour>
    <contour>
      <point x="1698" y="0" type="curve" smooth="yes"/>
      <point x="1622" y="0"/>
      <point x="1580" y="61"/>
      <point x="1580" y="213" type="curve" smooth="yes"/>
      <point x="1580" y="364"/>
      <point x="1620" y="424"/>
      <point x="1696" y="424" type="curve" smooth="yes"/>
      <point x="1769" y="424"/>
      <point x="1814" y="364"/>
      <point x="1814" y="213" type="curve" smooth="yes"/>
      <point x="1814" y="61"/>
      <point x="1771" y="0"/>
    </contour>
  </outline>
</glyph>
<glyph name="closeup" format="2">
  <advance width="836"/>
  <unicode hex="2050"/>
  <outline>
    <contour>
      <point x="77" y="532" type="curve"/>
      <point x="111" y="532" type="line"/>
      <point x="169" y="674"/>
      <point x="292" y="715"/>
      <point x="423" y="715" type="curve" smooth="yes"/>
      <point x="556" y="715"/>
      <point x="673" y="672"/>
      <point x="730" y="532" type="curve"/>
      <point x="764" y="532" type="line"/>
      <point x="698" y="681"/>
      <point x="584" y="727"/>
      <point x="423" y="727" type="curve" smooth="yes"/>
      <point x="263" y="727"/>
      <point x="143" y="681"/>
    </contour>
    <contour>
      <point x="417" y="-10" type="curve" smooth="yes"/>
      <point x="578" y="-10"/>
      <point x="698" y="45"/>
      <point x="764" y="192" type="curve"/>
      <point x="730" y="192" type="line"/>
      <point x="673" y="51"/>
      <point x="550" y="2"/>
      <point x="417" y="2" type="curve" smooth="yes"/>
      <point x="286" y="2"/>
      <point x="169" y="50"/>
      <point x="111" y="192" type="curve"/>
      <point x="77" y="192" type="line"/>
      <point x="143" y="45"/>
      <point x="257" y="-10"/>
    </contour>
  </outline>
</glyph>
<glyph name="sixsuperior" format="2">
  <advance width="497"/>
  <unicode hex="2076"/>
  <outline>
    <contour>
      <point x="267" y="382" type="curve" smooth="yes"/>
      <point x="332" y="382"/>
      <point x="411" y="440"/>
      <point x="411" y="515" type="curve" smooth="yes"/>
      <point x="411" y="609"/>
      <point x="347" y="638"/>
      <point x="283" y="638" type="curve" smooth="yes"/>
      <point x="209" y="638"/>
      <point x="153" y="600"/>
      <point x="122" y="586" type="curve"/>
      <point x="134" y="778"/>
      <point x="178" y="817"/>
      <point x="278" y="817" type="curve" smooth="yes"/>
      <point x="337" y="817"/>
      <point x="353" y="800"/>
      <point x="353" y="747" type="curve"/>
      <point x="382" y="747"/>
      <point x="390" y="753"/>
      <point x="390" y="760" type="curve" smooth="yes"/>
      <point x="390" y="804"/>
      <point x="329" y="827"/>
      <point x="276" y="827" type="curve" smooth="yes"/>
      <point x="155" y="827"/>
      <point x="94" y="714"/>
      <point x="94" y="589" type="curve" smooth="yes"/>
      <point x="94" y="424"/>
      <point x="188" y="382"/>
    </contour>
    <contour>
      <point x="261" y="392" type="curve" smooth="yes"/>
      <point x="174" y="392"/>
      <point x="121" y="466"/>
      <point x="122" y="577" type="curve"/>
      <point x="157" y="596"/>
      <point x="220" y="628"/>
      <point x="274" y="628" type="curve" smooth="yes"/>
      <point x="352" y="628"/>
      <point x="387" y="587"/>
      <point x="387" y="511" type="curve" smooth="yes"/>
      <point x="387" y="444"/>
      <point x="332" y="392"/>
    </contour>
  </outline>
</glyph>
<glyph name="franc" format="2">
  <advance width="695"/>
  <unicode hex="20A3"/>
  <outline>
    <contour>
      <point x="84" y="0" type="line"/>
      <point x="396" y="0" type="line"/>
      <point x="396" y="10" type="line"/>
      <point x="299" y="10" type="line" smooth="yes"/>
      <point x="241" y="10"/>
      <point x="237" y="19"/>
      <point x="237" y="98" type="curve" smooth="yes"/>
      <point x="237" y="202" type="line"/>
      <point x="436" y="202" type="line"/>
      <point x="436" y="212" type="line"/>
      <point x="237" y="212" type="line"/>
      <point x="237" y="346" type="line"/>
      <point x="538" y="346" type="line"/>
      <point x="538" y="356" type="line"/>
      <point x="237" y="356" type="line"/>
      <point x="237" y="704" type="line"/>
      <point x="560" y="704" type="line" smooth="yes"/>
      <point x="596" y="704"/>
      <point x="614" y="700"/>
      <point x="616" y="643" type="curve" smooth="yes"/>
      <point x="619" y="551" type="line"/>
      <point x="629" y="551" type="line"/>
      <point x="624" y="714" type="line"/>
      <point x="84" y="714" type="line"/>
      <point x="84" y="704" type="line"/>
      <point x="147" y="704" type="line" smooth="yes"/>
      <point x="207" y="704"/>
      <point x="209" y="693"/>
      <point x="209" y="614" type="curve" smooth="yes"/>
      <point x="209" y="212" type="line"/>
      <point x="101" y="212" type="line"/>
      <point x="101" y="202" type="line"/>
      <point x="209" y="202" type="line"/>
      <point x="209" y="98" type="line" smooth="yes"/>
      <point x="209" y="15"/>
      <point x="199" y="10"/>
      <point x="151" y="10" type="curve" smooth="yes"/>
      <point x="84" y="10" type="line"/>
    </contour>
  </outline>
</glyph>
<glyph name="uni20B0" format="2">
  <advance width="710"/>
  <unicode hex="20B0"/>
  <outline>
    <contour>
      <point x="429" y="-240" type="curve" smooth="yes"/>
      <point x="545" y="-240"/>
      <point x="617" y="-168"/>
      <point x="617" y="-55" type="curve" smooth="yes"/>
      <point x="617" y="12"/>
      <point x="590" y="78"/>
      <point x="469" y="262" type="curve"/>
      <point x="626" y="514"/>
      <point x="627" y="510"/>
      <point x="627" y="583" type="curve" smooth="yes"/>
      <point x="627" y="674"/>
      <point x="552" y="725"/>
      <point x="462" y="725" type="curve" smooth="yes"/>
      <point x="385" y="725"/>
      <point x="304" y="668"/>
      <point x="304" y="567" type="curve" smooth="yes"/>
      <point x="304" y="467"/>
      <point x="336" y="432"/>
      <point x="449" y="248" type="curve"/>
      <point x="303" y="26" type="line"/>
      <point x="174" y="259" type="line"/>
      <point x="7" y="0" type="line"/>
      <point x="20" y="0" type="line"/>
      <point x="166" y="231" type="line"/>
      <point x="296" y="1" type="line"/>
      <point x="454" y="242" type="line"/>
      <point x="571" y="16"/>
      <point x="589" y="10"/>
      <point x="589" y="-56" type="curve" smooth="yes"/>
      <point x="589" y="-160"/>
      <point x="545" y="-230"/>
      <point x="424" y="-230" type="curve" smooth="yes"/>
      <point x="334" y="-230"/>
      <point x="283" y="-197"/>
      <point x="283" y="-86" type="curve"/>
      <point x="261" y="-86"/>
      <point x="250" y="-105"/>
      <point x="250" y="-131" type="curve" smooth="yes"/>
      <point x="250" y="-222"/>
      <point x="360" y="-240"/>
    </contour>
    <contour>
      <point x="462" y="270" type="curve"/>
      <point x="397" y="401"/>
      <point x="332" y="408"/>
      <point x="332" y="563" type="curve" smooth="yes"/>
      <point x="332" y="654"/>
      <point x="387" y="715"/>
      <point x="461" y="715" type="curve" smooth="yes"/>
      <point x="526" y="715"/>
      <point x="589" y="671"/>
      <point x="599" y="603" type="curve" smooth="yes"/>
      <point x="611" y="496"/>
      <point x="578" y="459"/>
    </contour>
  </outline>
</glyph>
<glyph name="manat" format="2">
  <advance width="892"/>
  <unicode hex="20BC"/>
  <outline>
    <contour>
      <point x="109" y="0" type="line"/>
      <point x="137" y="0" type="line"/>
      <point x="137" y="151" type="line" smooth="yes"/>
      <point x="137" y="458"/>
      <point x="226" y="543"/>
      <point x="434" y="552" type="curve"/>
      <point x="434" y="0" type="line"/>
      <point x="456" y="0" type="line"/>
      <point x="456" y="554" type="line"/>
      <point x="663" y="545"/>
      <point x="755" y="468"/>
      <point x="755" y="151" type="curve" smooth="yes"/>
      <point x="755" y="0" type="line"/>
      <point x="783" y="0" type="line"/>
      <point x="783" y="151" type="line" smooth="yes"/>
      <point x="783" y="394"/>
      <point x="731" y="547"/>
      <point x="456" y="564" type="curve"/>
      <point x="456" y="636" type="line"/>
      <point x="434" y="636" type="line"/>
      <point x="434" y="562" type="line"/>
      <point x="160" y="545"/>
      <point x="109" y="406"/>
      <point x="109" y="151" type="curve" smooth="yes"/>
    </contour>
  </outline>
</glyph>
<glyph name="accountof" format="2">
  <advance width="817"/>
  <unicode hex="2100"/>
  <anchor x="642" y="331" name="top"/>
  <outline>
    <contour>
      <point x="170" y="380" type="curve" smooth="yes"/>
      <point x="249" y="380"/>
      <point x="282" y="435"/>
      <point x="298" y="453" type="curve"/>
      <point x="298" y="453" type="line"/>
      <point x="298" y="386" type="line"/>
      <point x="369" y="386" type="line"/>
      <point x="369" y="396" type="line"/>
      <point x="323" y="396"/>
      <point x="320" y="409"/>
      <point x="320" y="464" type="curve" smooth="yes"/>
      <point x="320" y="624" type="line" smooth="yes"/>
      <point x="320" y="674"/>
      <point x="296" y="721"/>
      <point x="203" y="721" type="curve" smooth="yes"/>
      <point x="115" y="721"/>
      <point x="95" y="667"/>
      <point x="95" y="650" type="curve" smooth="yes"/>
      <point x="95" y="634"/>
      <point x="104" y="630"/>
      <point x="106" y="630" type="curve"/>
      <point x="106" y="696"/>
      <point x="128" y="711"/>
      <point x="205" y="711" type="curve" smooth="yes"/>
      <point x="297" y="711"/>
      <point x="300" y="681"/>
      <point x="300" y="612" type="curve" smooth="yes"/>
      <point x="300" y="563" type="line"/>
      <point x="242" y="561" type="line" smooth="yes"/>
      <point x="121" y="557"/>
      <point x="62" y="535"/>
      <point x="62" y="485" type="curve" smooth="yes"/>
      <point x="62" y="398"/>
      <point x="124" y="380"/>
    </contour>
    <contour>
      <point x="169" y="385" type="curve" smooth="yes"/>
      <point x="98" y="385"/>
      <point x="84" y="429"/>
      <point x="84" y="481" type="curve" smooth="yes"/>
      <point x="84" y="532"/>
      <point x="123" y="547"/>
      <point x="243" y="551" type="curve" smooth="yes"/>
      <point x="300" y="553" type="line"/>
      <point x="300" y="486" type="line" smooth="yes"/>
      <point x="300" y="463"/>
      <point x="247" y="385"/>
    </contour>
    <contour>
      <point x="646" y="-15" type="curve" smooth="yes"/>
      <point x="695" y="-15"/>
      <point x="756" y="17"/>
      <point x="756" y="46" type="curve" smooth="yes"/>
      <point x="756" y="51"/>
      <point x="754" y="55"/>
      <point x="745" y="59" type="curve"/>
      <point x="717" y="10"/>
      <point x="686" y="-5"/>
      <point x="646" y="-5" type="curve" smooth="yes"/>
      <point x="570" y="-5"/>
      <point x="552" y="90"/>
      <point x="552" y="154" type="curve" smooth="yes"/>
      <point x="552" y="258"/>
      <point x="592" y="326"/>
      <point x="651" y="326" type="curve" smooth="yes"/>
      <point x="707" y="326"/>
      <point x="721" y="303"/>
      <point x="721" y="248" type="curve"/>
      <point x="735" y="248"/>
      <point x="746" y="252"/>
      <point x="746" y="272" type="curve" smooth="yes"/>
      <point x="746" y="311"/>
      <point x="706" y="336"/>
      <point x="660" y="336" type="curve" smooth="yes"/>
      <point x="589" y="336"/>
      <point x="528" y="278"/>
      <point x="528" y="155" type="curve" smooth="yes"/>
      <point x="528" y="48"/>
      <point x="567" y="-15"/>
    </contour>
    <contour>
      <point x="184" y="0" type="line"/>
      <point x="198" y="0" type="line"/>
      <point x="706" y="714" type="line"/>
      <point x="692" y="714" type="line"/>
    </contour>
  </outline>
</glyph>
<glyph name="centrelinesymbol" format="2">
  <advance width="720"/>
  <unicode hex="2104"/>
  <outline>
    <contour>
      <point x="189" y="0" type="line"/>
      <point x="663" y="0" type="line"/>
      <point x="674" y="156" type="line"/>
      <point x="664" y="156" type="line"/>
      <point x="656" y="87" type="line" smooth="yes"/>
      <point x="649" y="18"/>
      <point x="643" y="10"/>
      <point x="585" y="10" type="curve" smooth="yes"/>
      <point x="341" y="10" type="line"/>
      <point x="341" y="146" type="line"/>
      <point x="404" y="153"/>
      <point x="480" y="172"/>
      <point x="517" y="178" type="curve"/>
      <point x="517" y="188" type="line"/>
      <point x="483" y="185"/>
      <point x="399" y="163"/>
      <point x="341" y="156" type="curve"/>
      <point x="341" y="586" type="line"/>
      <point x="433" y="578"/>
      <point x="488" y="516"/>
      <point x="488" y="477" type="curve"/>
      <point x="506" y="479"/>
      <point x="508" y="491"/>
      <point x="508" y="487" type="curve" smooth="yes"/>
      <point x="508" y="538"/>
      <point x="448" y="590"/>
      <point x="341" y="596" type="curve"/>
      <point x="341" y="614" type="line" smooth="yes"/>
      <point x="341" y="693"/>
      <point x="345" y="704"/>
      <point x="401" y="704" type="curve" smooth="yes"/>
      <point x="455" y="704" type="line"/>
      <point x="455" y="714" type="line"/>
      <point x="189" y="714" type="line"/>
      <point x="189" y="704" type="line"/>
      <point x="261" y="704" type="line" smooth="yes"/>
      <point x="305" y="704"/>
      <point x="313" y="693"/>
      <point x="313" y="614" type="curve" smooth="yes"/>
      <point x="313" y="597" type="line"/>
      <point x="176" y="599"/>
      <point x="72" y="553"/>
      <point x="72" y="361" type="curve" smooth="yes"/>
      <point x="72" y="205"/>
      <point x="187" y="143"/>
      <point x="313" y="145" type="curve"/>
      <point x="313" y="98" type="line" smooth="yes"/>
      <point x="313" y="21"/>
      <point x="305" y="10"/>
      <point x="265" y="10" type="curve" smooth="yes"/>
      <point x="189" y="10" type="line"/>
    </contour>
    <contour>
      <point x="313" y="155" type="line"/>
      <point x="209" y="153"/>
      <point x="100" y="224"/>
      <point x="100" y="362" type="curve" smooth="yes"/>
      <point x="100" y="537"/>
      <point x="189" y="589"/>
      <point x="313" y="587" type="curve"/>
    </contour>
  </outline>
</glyph>
<glyph name="lbbarsymbol" format="2">
  <advance width="785"/>
  <unicode hex="2114"/>
  <outline>
    <contour>
      <point x="294" y="-10" type="curve" smooth="yes"/>
      <point x="344" y="-10"/>
      <point x="396" y="8"/>
      <point x="443" y="34" type="curve"/>
      <point x="462" y="7"/>
      <point x="508" y="-10"/>
      <point x="555" y="-10" type="curve" smooth="yes"/>
      <point x="653" y="-10"/>
      <point x="710" y="66"/>
      <point x="710" y="151" type="curve" smooth="yes"/>
      <point x="710" y="254"/>
      <point x="627" y="301"/>
      <point x="508" y="326" type="curve"/>
      <point x="565" y="536" type="line"/>
      <point x="535" y="536" type="line"/>
      <point x="480" y="335" type="line"/>
      <point x="419" y="346"/>
      <point x="349" y="359"/>
      <point x="278" y="371" type="curve"/>
      <point x="324" y="536" type="line"/>
      <point x="294" y="536" type="line"/>
      <point x="250" y="377" type="line"/>
      <point x="126" y="406"/>
      <point x="97" y="460"/>
      <point x="97" y="527" type="curve" smooth="yes"/>
      <point x="97" y="652"/>
      <point x="204" y="714"/>
      <point x="387" y="714" type="curve" smooth="yes"/>
      <point x="545" y="714"/>
      <point x="624" y="667"/>
      <point x="689" y="588" type="curve"/>
      <point x="696" y="589"/>
      <point x="703" y="595"/>
      <point x="703" y="605" type="curve" smooth="yes"/>
      <point x="703" y="630"/>
      <point x="660" y="661"/>
      <point x="616" y="682" type="curve" smooth="yes"/>
      <point x="561" y="708"/>
      <point x="484" y="724"/>
      <point x="389" y="724" type="curve" smooth="yes"/>
      <point x="189" y="724"/>
      <point x="66" y="655"/>
      <point x="66" y="528" type="curve" smooth="yes"/>
      <point x="66" y="452"/>
      <point x="111" y="398"/>
      <point x="248" y="367" type="curve"/>
      <point x="200" y="191" type="line" smooth="yes"/>
      <point x="193" y="163"/>
      <point x="183" y="119"/>
      <point x="183" y="88" type="curve" smooth="yes"/>
      <point x="183" y="25"/>
      <point x="224" y="-10"/>
    </contour>
    <contour>
      <point x="297" y="0" type="curve" smooth="yes"/>
      <point x="240" y="0"/>
      <point x="212" y="32"/>
      <point x="212" y="93" type="curve" smooth="yes"/>
      <point x="212" y="124"/>
      <point x="219" y="154"/>
      <point x="230" y="194" type="curve" smooth="yes"/>
      <point x="276" y="361" type="line"/>
      <point x="312" y="354"/>
      <point x="419" y="332"/>
      <point x="478" y="323" type="curve"/>
      <point x="443" y="191" type="line" smooth="yes"/>
      <point x="433" y="155"/>
      <point x="427" y="128"/>
      <point x="427" y="100" type="curve" smooth="yes"/>
      <point x="427" y="87"/>
      <point x="428" y="59"/>
      <point x="438" y="43" type="curve"/>
      <point x="391" y="17"/>
      <point x="339" y="0"/>
    </contour>
    <contour>
      <point x="550" y="0" type="curve" smooth="yes"/>
      <point x="486" y="0"/>
      <point x="454" y="29"/>
      <point x="454" y="91" type="curve" smooth="yes"/>
      <point x="454" y="125"/>
      <point x="464" y="161"/>
      <point x="472" y="194" type="curve" smooth="yes"/>
      <point x="506" y="316" type="line"/>
      <point x="623" y="290"/>
      <point x="679" y="248"/>
      <point x="679" y="144" type="curve" smooth="yes"/>
      <point x="679" y="41"/>
      <point x="625" y="0"/>
    </contour>
  </outline>
</glyph>
<glyph name="trademark" format="2">
  <advance width="844"/>
  <unicode hex="2122"/>
  <outline>
    <contour>
      <point x="385" y="368" type="line"/>
      <point x="486" y="368" type="line"/>
      <point x="486" y="378" type="line"/>
      <point x="474" y="378"/>
      <point x="447" y="383"/>
      <point x="447" y="404" type="curve" smooth="yes"/>
      <point x="447" y="693" type="line"/>
      <point x="585" y="368" type="line"/>
      <point x="587" y="368" type="line"/>
      <point x="711" y="708" type="line"/>
      <point x="711" y="396" type="line" smooth="yes"/>
      <point x="711" y="384"/>
      <point x="687" y="378"/>
      <point x="672" y="378" type="curve"/>
      <point x="672" y="368" type="line"/>
      <point x="787" y="368" type="line"/>
      <point x="787" y="378" type="line"/>
      <point x="774" y="378" type="line" smooth="yes"/>
      <point x="759" y="378"/>
      <point x="735" y="382"/>
      <point x="735" y="402" type="curve" smooth="yes"/>
      <point x="735" y="684" type="line" smooth="yes"/>
      <point x="735" y="702"/>
      <point x="759" y="705"/>
      <point x="774" y="705" type="curve" smooth="yes"/>
      <point x="787" y="705" type="line"/>
      <point x="787" y="714" type="line"/>
      <point x="706" y="714" type="line"/>
      <point x="593" y="413" type="line"/>
      <point x="466" y="714" type="line"/>
      <point x="381" y="714" type="line"/>
      <point x="381" y="704" type="line"/>
      <point x="395" y="704" type="line" smooth="yes"/>
      <point x="406" y="704"/>
      <point x="437" y="701"/>
      <point x="437" y="685" type="curve" smooth="yes"/>
      <point x="437" y="401" type="line" smooth="yes"/>
      <point x="437" y="383"/>
      <point x="406" y="378"/>
      <point x="395" y="378" type="curve" smooth="yes"/>
      <point x="385" y="378" type="line"/>
    </contour>
    <contour>
      <point x="103" y="368" type="line"/>
      <point x="234" y="368" type="line"/>
      <point x="234" y="378" type="line"/>
      <point x="217" y="378" type="line" smooth="yes"/>
      <point x="207" y="378"/>
      <point x="181" y="380"/>
      <point x="181" y="402" type="curve" smooth="yes"/>
      <point x="181" y="704" type="line"/>
      <point x="247" y="704" type="line" smooth="yes"/>
      <point x="272" y="704"/>
      <point x="290" y="681"/>
      <point x="291" y="669" type="curve" smooth="yes"/>
      <point x="294" y="634" type="line"/>
      <point x="304" y="634" type="line"/>
      <point x="300" y="714" type="line"/>
      <point x="37" y="714" type="line"/>
      <point x="33" y="634" type="line"/>
      <point x="43" y="634" type="line"/>
      <point x="50" y="669" type="line" smooth="yes"/>
      <point x="53" y="682"/>
      <point x="66" y="704"/>
      <point x="93" y="704" type="curve" smooth="yes"/>
      <point x="157" y="704" type="line"/>
      <point x="157" y="398" type="line" smooth="yes"/>
      <point x="157" y="382"/>
      <point x="130" y="378"/>
      <point x="119" y="378" type="curve" smooth="yes"/>
      <point x="103" y="378" type="line"/>
    </contour>
  </outline>
</glyph>
<glyph name="uni2C6B" format="2">
  <advance width="574"/>
  <unicode hex="2C6B"/>
  <anchor x="288" y="-211" name="bottom"/>
  <anchor x="288" y="714" name="top"/>
  <outline>
    <contour>
      <point x="559" y="-210" type="curve"/>
      <point x="569" y="-210" type="line"/>
      <point x="569" y="15" type="line"/>
      <point x="63" y="15" type="line"/>
      <point x="546" y="677" type="line"/>
      <point x="546" y="714" type="line"/>
      <point x="63" y="714" type="line"/>
      <point x="57" y="582" type="line"/>
      <point x="67" y="582" type="line"/>
      <point x="72" y="630" type="line" smooth="yes"/>
      <point x="77" y="685"/>
      <point x="81" y="699"/>
      <point x="133" y="699" type="curve" smooth="yes"/>
      <point x="525" y="699" type="line"/>
      <point x="34" y="22" type="line"/>
      <point x="34" y="0" type="line"/>
      <point x="582" y="0" type="line" smooth="yes"/>
      <point x="558" y="0"/>
      <point x="559" y="-32"/>
    </contour>
  </outline>
</glyph>
<glyph name="uni2C72" format="2">
  <advance width="1251"/>
  <unicode hex="2C72"/>
  <anchor x="628" y="0" name="bottom"/>
  <anchor x="628" y="714" name="top"/>
  <outline>
    <contour>
      <point x="401" y="0" type="line"/>
      <point x="409" y="0" type="line"/>
      <point x="604" y="670" type="line"/>
      <point x="800" y="0" type="line"/>
      <point x="802" y="0" type="line"/>
      <point x="1006" y="491" type="line" smooth="yes"/>
      <point x="1065" y="658"/>
      <point x="1084" y="686"/>
      <point x="1130" y="686" type="curve" smooth="yes"/>
      <point x="1142" y="686"/>
      <point x="1168" y="695"/>
      <point x="1194" y="702" type="curve"/>
      <point x="1195" y="712"/>
      <point x="1190" y="722"/>
      <point x="1190" y="711" type="curve" smooth="yes"/>
      <point x="1190" y="720"/>
      <point x="1168" y="719"/>
      <point x="1144" y="719" type="curve" smooth="yes"/>
      <point x="1093" y="719"/>
      <point x="1061" y="681"/>
      <point x="1002" y="521" type="curve" smooth="yes"/>
      <point x="869" y="186" type="line" smooth="yes"/>
      <point x="851" y="149"/>
      <point x="818" y="54"/>
      <point x="816" y="63" type="curve"/>
      <point x="799" y="107"/>
      <point x="784" y="165"/>
      <point x="773" y="195" type="curve" smooth="yes"/>
      <point x="617" y="714" type="line"/>
      <point x="607" y="714" type="line"/>
      <point x="453" y="188" type="line" smooth="yes"/>
      <point x="436" y="130"/>
      <point x="426" y="94"/>
      <point x="414" y="45" type="curve"/>
      <point x="393" y="103"/>
      <point x="383" y="133"/>
      <point x="359" y="185" type="curve" smooth="yes"/>
      <point x="183" y="609" type="line" smooth="yes"/>
      <point x="166" y="647"/>
      <point x="158" y="663"/>
      <point x="158" y="676" type="curve" smooth="yes"/>
      <point x="158" y="695"/>
      <point x="163" y="704"/>
      <point x="215" y="704" type="curve" smooth="yes"/>
      <point x="286" y="704" type="line"/>
      <point x="286" y="714" type="line"/>
      <point x="28" y="714" type="line"/>
      <point x="28" y="704" type="line"/>
      <point x="63" y="704" type="line" smooth="yes"/>
      <point x="110" y="704"/>
      <point x="113" y="700"/>
      <point x="130" y="656" type="curve" smooth="yes"/>
    </contour>
  </outline>
</glyph>
<glyph name="uni2C74" format="2">
  <advance width="606"/>
  <unicode hex="2C74"/>
  <anchor x="281" y="0" name="bottom"/>
  <anchor x="281" y="536" name="top"/>
  <outline>
    <contour>
      <point x="257" y="0" type="line"/>
      <point x="272" y="0" type="line"/>
      <point x="496" y="478" type="line" smooth="yes"/>
      <point x="517" y="523"/>
      <point x="516" y="526"/>
      <point x="586" y="526" type="curve" smooth="yes"/>
      <point x="596" y="526" type="line"/>
      <point x="596" y="536" type="line"/>
      <point x="393" y="536" type="line"/>
      <point x="393" y="526" type="line"/>
      <point x="442" y="526" type="line" smooth="yes"/>
      <point x="484" y="526"/>
      <point x="488" y="517"/>
      <point x="488" y="506" type="curve" smooth="yes"/>
      <point x="488" y="474"/>
      <point x="466" y="441"/>
      <point x="436" y="378" type="curve" smooth="yes"/>
      <point x="354" y="198" type="line" smooth="yes"/>
      <point x="310" y="104"/>
      <point x="272" y="15"/>
      <point x="274" y="34" type="curve"/>
      <point x="251" y="74"/>
      <point x="225" y="133"/>
      <point x="197" y="196" type="curve" smooth="yes"/>
      <point x="129" y="348" type="line"/>
      <point x="207" y="350"/>
      <point x="255" y="391"/>
      <point x="255" y="450" type="curve" smooth="yes"/>
      <point x="255" y="506"/>
      <point x="219" y="546"/>
      <point x="167" y="546" type="curve" smooth="yes"/>
      <point x="104" y="546"/>
      <point x="66" y="524"/>
      <point x="60" y="477" type="curve" smooth="yes"/>
      <point x="56" y="445"/>
      <point x="68" y="424"/>
      <point x="76" y="405" type="curve" smooth="yes"/>
      <point x="96" y="358" type="line"/>
      <point x="64" y="358"/>
      <point x="31" y="364"/>
      <point x="15" y="369" type="curve"/>
      <point x="12" y="362" type="line"/>
      <point x="41" y="351"/>
      <point x="81" y="348"/>
      <point x="101" y="348" type="curve"/>
    </contour>
    <contour>
      <point x="126" y="358" type="curve"/>
      <point x="117" y="376" type="line" smooth="yes"/>
      <point x="110" y="392"/>
      <point x="82" y="446"/>
      <point x="82" y="476" type="curve" smooth="yes"/>
      <point x="82" y="516"/>
      <point x="114" y="541"/>
      <point x="163" y="541" type="curve" smooth="yes"/>
      <point x="212" y="541"/>
      <point x="245" y="504"/>
      <point x="245" y="449" type="curve" smooth="yes"/>
      <point x="245" y="392"/>
      <point x="200" y="356"/>
    </contour>
  </outline>
</glyph>
<glyph name="uni2C7F" format="2">
  <advance width="607"/>
  <unicode hex="2C7F"/>
  <outline>
    <contour>
      <point x="482" y="-240" type="curve" smooth="yes"/>
      <point x="553" y="-240"/>
      <point x="587" y="-216"/>
      <point x="587" y="-191" type="curve" smooth="yes"/>
      <point x="587" y="-181"/>
      <point x="581" y="-170"/>
      <point x="567" y="-170" type="curve"/>
      <point x="567" y="-213"/>
      <point x="537" y="-245"/>
      <point x="477" y="-245" type="curve" smooth="yes"/>
      <point x="399" y="-245"/>
      <point x="360" y="-188"/>
      <point x="303" y="-112" type="curve" smooth="yes"/>
      <point x="255" y="-51"/>
      <point x="215" y="5"/>
      <point x="57" y="5" type="curve"/>
      <point x="546" y="677" type="line"/>
      <point x="546" y="714" type="line"/>
      <point x="63" y="714" type="line"/>
      <point x="57" y="582" type="line"/>
      <point x="67" y="582" type="line"/>
      <point x="72" y="630" type="line" smooth="yes"/>
      <point x="77" y="685"/>
      <point x="81" y="699"/>
      <point x="133" y="699" type="curve" smooth="yes"/>
      <point x="525" y="699" type="line"/>
      <point x="34" y="22" type="line"/>
      <point x="34" y="0" type="line"/>
      <point x="66" y="0" type="line" smooth="yes"/>
      <point x="197" y="0"/>
      <point x="221" y="-66"/>
      <point x="276" y="-125" type="curve" smooth="yes"/>
      <point x="341" y="-204"/>
      <point x="391" y="-240"/>
    </contour>
  </outline>
</glyph>
<glyph name="forkedparagraphos" format="2">
  <advance width="1242"/>
  <unicode hex="2E10"/>
  <outline>
    <contour>
      <point x="42" y="-277" type="line"/>
      <point x="332" y="-123" type="line"/>
      <point x="1249" y="-123" type="line"/>
      <point x="1249" y="-103" type="line"/>
      <point x="-7" y="-103" type="line"/>
      <point x="-7" y="-123" type="line"/>
      <point x="300" y="-123" type="line"/>
      <point x="31" y="-260" type="line"/>
    </contour>
  </outline>
</glyph>
<glyph name="rightlowparaphrasebracket" format="2">
  <advance width="622"/>
  <unicode hex="2E1D"/>
  <outline>
    <contour>
      <point x="117" y="-53" type="line"/>
      <point x="515" y="258" type="line"/>
      <point x="503" y="274" type="line"/>
      <point x="105" y="-37" type="line"/>
    </contour>
  </outline>
</glyph>
<glyph name="tildedotabove" format="2">
  <advance width="710"/>
  <unicode hex="2E1E"/>
  <outline>
    <contour>
      <point x="62" y="314" type="line"/>
      <point x="110" y="348"/>
      <point x="175" y="374"/>
      <point x="215" y="374" type="curve" smooth="yes"/>
      <point x="237" y="374"/>
      <point x="262" y="374"/>
      <point x="336" y="348" type="curve" smooth="yes"/>
      <point x="419" y="320"/>
      <point x="443" y="315"/>
      <point x="502" y="315" type="curve" smooth="yes"/>
      <point x="551" y="315"/>
      <point x="600" y="337"/>
      <point x="649" y="355" type="curve"/>
      <point x="649" y="384" type="line"/>
      <point x="604" y="355"/>
      <point x="542" y="323"/>
      <point x="496" y="323" type="curve" smooth="yes"/>
      <point x="473" y="323"/>
      <point x="454" y="318"/>
      <point x="378" y="349" type="curve" smooth="yes"/>
      <point x="297" y="379"/>
      <point x="272" y="382"/>
      <point x="210" y="382" type="curve" smooth="yes"/>
      <point x="158" y="382"/>
      <point x="108" y="358"/>
      <point x="62" y="343" type="curve"/>
    </contour>
    <contour>
      <point x="353" y="474" type="curve" smooth="yes"/>
      <point x="364" y="474"/>
      <point x="384" y="479"/>
      <point x="384" y="514" type="curve" smooth="yes"/>
      <point x="384" y="549"/>
      <point x="364" y="556"/>
      <point x="353" y="556" type="curve" smooth="yes"/>
      <point x="339" y="556"/>
      <point x="321" y="549"/>
      <point x="321" y="514" type="curve" smooth="yes"/>
      <point x="321" y="479"/>
      <point x="339" y="474"/>
    </contour>
  </outline>
</glyph>
<glyph name="rightsidewaysubracket" format="2">
  <advance width="1242"/>
  <unicode hex="2E27"/>
  <outline>
    <contour>
      <point x="292" y="207" type="line"/>
      <point x="759" y="207" type="line" smooth="yes"/>
      <point x="884" y="207"/>
      <point x="948" y="257"/>
      <point x="948" y="354" type="curve" smooth="yes"/>
      <point x="948" y="451"/>
      <point x="884" y="501"/>
      <point x="759" y="501" type="curve" smooth="yes"/>
      <point x="292" y="501" type="line"/>
      <point x="292" y="481" type="line"/>
      <point x="759" y="481" type="line" smooth="yes"/>
      <point x="869" y="481"/>
      <point x="926" y="438"/>
      <point x="926" y="354" type="curve" smooth="yes"/>
      <point x="926" y="270"/>
      <point x="869" y="227"/>
      <point x="759" y="227" type="curve" smooth="yes"/>
      <point x="292" y="227" type="line"/>
    </contour>
  </outline>
</glyph>
<glyph name="uniA65B" format="2">
  <advance width="721"/>
  <unicode hex="A65B"/>
  <outline>
    <contour>
      <point x="49" y="0" type="line"/>
      <point x="136" y="0" type="line"/>
      <point x="136" y="155" type="line"/>
      <point x="344" y="155" type="line"/>
      <point x="344" y="93" type="line" smooth="yes"/>
      <point x="344" y="31"/>
      <point x="350" y="11"/>
      <point x="283" y="11" type="curve" smooth="yes"/>
      <point x="260" y="11" type="line"/>
      <point x="260" y="0" type="line"/>
      <point x="456" y="0" type="line"/>
      <point x="456" y="11" type="line"/>
      <point x="433" y="11" type="line" smooth="yes"/>
      <point x="364" y="11"/>
      <point x="370" y="11"/>
      <point x="370" y="95" type="curve" smooth="yes"/>
      <point x="370" y="155" type="line"/>
      <point x="582" y="155" type="line"/>
      <point x="582" y="0" type="line"/>
      <point x="670" y="0" type="line"/>
      <point x="670" y="11" type="line"/>
      <point x="606" y="11"/>
      <point x="609" y="11"/>
      <point x="609" y="1" type="curve" smooth="yes"/>
      <point x="605" y="191" type="line" smooth="yes"/>
      <point x="599" y="306"/>
      <point x="462" y="301"/>
      <point x="383" y="301" type="curve"/>
      <point x="590" y="527" type="line"/>
      <point x="590" y="536" type="line"/>
      <point x="125" y="536" type="line"/>
      <point x="125" y="527" type="line"/>
      <point x="333" y="301" type="line"/>
      <point x="257" y="301"/>
      <point x="120" y="306"/>
      <point x="114" y="191" type="curve" smooth="yes"/>
      <point x="108" y="1" type="line" smooth="yes"/>
      <point x="108" y="31"/>
      <point x="111" y="11"/>
      <point x="49" y="11" type="curve"/>
    </contour>
    <contour>
      <point x="135" y="165" type="line"/>
      <point x="141" y="299"/>
      <point x="256" y="291"/>
      <point x="357" y="291" type="curve" smooth="yes"/>
      <point x="407" y="291" type="line" smooth="yes"/>
      <point x="462" y="291"/>
      <point x="577" y="299"/>
      <point x="583" y="165" type="curve"/>
    </contour>
    <contour>
      <point x="371" y="303" type="line"/>
      <point x="160" y="526" type="line"/>
      <point x="575" y="526" type="line"/>
      <point x="371" y="303" type="line"/>
    </contour>
  </outline>
</glyph>
<glyph name="uniA66A" format="2">
  <advance width="895"/>
  <unicode hex="A66A"/>
  <anchor x="447" y="0" name="bottom"/>
  <anchor x="447" y="714" name="top"/>
  <outline>
    <contour>
      <point x="447" y="-10" type="curve" smooth="yes"/>
      <point x="735" y="-10"/>
      <point x="819" y="145"/>
      <point x="819" y="358" type="curve" smooth="yes"/>
      <point x="819" y="570"/>
      <point x="728" y="725"/>
      <point x="448" y="725" type="curve" smooth="yes"/>
      <point x="210" y="725"/>
      <point x="72" y="588"/>
      <point x="72" y="359" type="curve" smooth="yes"/>
      <point x="72" y="113"/>
      <point x="204" y="-10"/>
    </contour>
    <contour>
      <point x="340" y="329" type="curve" smooth="yes"/>
      <point x="353" y="329"/>
      <point x="372" y="334"/>
      <point x="372" y="367" type="curve" smooth="yes"/>
      <point x="372" y="399"/>
      <point x="353" y="403"/>
      <point x="340" y="403" type="curve" smooth="yes"/>
      <point x="331" y="403"/>
      <point x="311" y="399"/>
      <point x="311" y="367" type="curve" smooth="yes"/>
      <point x="311" y="334"/>
      <point x="331" y="329"/>
    </contour>
    <contour>
      <point x="447" y="0" type="curve" smooth="yes"/>
      <point x="221" y="0"/>
      <point x="100" y="118"/>
      <point x="100" y="358" type="curve" smooth="yes"/>
      <point x="100" y="587"/>
      <point x="227" y="715"/>
      <point x="448" y="715" type="curve" smooth="yes"/>
      <point x="702" y="715"/>
      <point x="791" y="587"/>
      <point x="791" y="358" type="curve" smooth="yes"/>
      <point x="791" y="129"/>
      <point x="704" y="0"/>
    </contour>
    <contour>
      <point x="554" y="329" type="curve" smooth="yes"/>
      <point x="567" y="329"/>
      <point x="586" y="334"/>
      <point x="586" y="367" type="curve" smooth="yes"/>
      <point x="586" y="399"/>
      <point x="567" y="403"/>
      <point x="554" y="403" type="curve" smooth="yes"/>
      <point x="545" y="403"/>
      <point x="525" y="399"/>
      <point x="525" y="367" type="curve" smooth="yes"/>
      <point x="525" y="334"/>
      <point x="545" y="329"/>
    </contour>
  </outline>
</glyph>
<glyph name="uniA681" format="2">
  <advance width="656"/>
  <unicode hex="A681"/>
  <anchor x="329" y="536" name="top"/>
  <anchor x="329" y="0" name="bottom"/>
  <outline>
    <contour>
      <point x="215" y="532" type="line"/>
      <point x="235" y="532" type="line"/>
      <point x="241" y="659" type="line"/>
      <point x="219" y="659" type="line"/>
    </contour>
    <component base="afii10069"/>
  </outline>
</glyph>
<glyph name="uniA71B" format="2">
  <advance width="494"/>
  <unicode hex="A71B"/>
  <outline>
    <contour>
      <point x="239" y="589" type="line"/>
      <point x="259" y="589" type="line"/>
      <point x="259" y="836" type="line"/>
      <point x="286" y="765"/>
      <point x="315" y="725"/>
      <point x="338" y="697" type="curve"/>
      <point x="352" y="697" type="line"/>
      <point x="352" y="702" type="line"/>
      <point x="312" y="764"/>
      <point x="283" y="816"/>
      <point x="258" y="897" type="curve"/>
      <point x="239" y="897" type="line"/>
      <point x="214" y="816"/>
      <point x="185" y="764"/>
      <point x="145" y="702" type="curve"/>
      <point x="145" y="697" type="line"/>
      <point x="159" y="697" type="line"/>
      <point x="182" y="725"/>
      <point x="210" y="765"/>
      <point x="239" y="835" type="curve"/>
    </contour>
  </outline>
</glyph>
<glyph name="uniA728" format="2">
  <advance width="906"/>
  <unicode hex="A728"/>
  <outline>
    <contour>
      <point x="633" y="-238" type="curve" smooth="yes"/>
      <point x="786" y="-238"/>
      <point x="891" y="-134"/>
      <point x="891" y="-6" type="curve" smooth="yes"/>
      <point x="891" y="87"/>
      <point x="861" y="198"/>
      <point x="608" y="200" type="curve"/>
      <point x="880" y="483" type="line"/>
      <point x="880" y="478" type="line"/>
      <point x="356" y="478" type="line"/>
      <point x="356" y="694" type="line"/>
      <point x="566" y="694" type="line" smooth="yes"/>
      <point x="608" y="694"/>
      <point x="628" y="694"/>
      <point x="632" y="629" type="curve" smooth="yes"/>
      <point x="636" y="563" type="line"/>
      <point x="646" y="563" type="line"/>
      <point x="638" y="714" type="line"/>
      <point x="49" y="714" type="line"/>
      <point x="41" y="563" type="line"/>
      <point x="51" y="563" type="line"/>
      <point x="57" y="655" type="line" smooth="yes"/>
      <point x="59" y="676"/>
      <point x="77" y="694"/>
      <point x="101" y="694" type="curve" smooth="yes"/>
      <point x="328" y="694" type="line"/>
      <point x="328" y="98" type="line" smooth="yes"/>
      <point x="328" y="21"/>
      <point x="324" y="10"/>
      <point x="268" y="10" type="curve" smooth="yes"/>
      <point x="176" y="10" type="line"/>
      <point x="176" y="0" type="line"/>
      <point x="507" y="0" type="line"/>
      <point x="507" y="10" type="line"/>
      <point x="414" y="10" type="line" smooth="yes"/>
      <point x="360" y="10"/>
      <point x="356" y="21"/>
      <point x="356" y="98" type="curve" smooth="yes"/>
      <point x="356" y="473" type="line"/>
      <point x="858" y="473" type="line"/>
      <point x="574" y="179" type="line"/>
      <point x="574" y="168" type="line"/>
      <point x="611" y="168" type="line" smooth="yes"/>
      <point x="784" y="168"/>
      <point x="863" y="89"/>
      <point x="863" y="2" type="curve" smooth="yes"/>
      <point x="863" y="-132"/>
      <point x="760" y="-228"/>
      <point x="633" y="-228" type="curve" smooth="yes"/>
      <point x="513" y="-228"/>
      <point x="432" y="-180"/>
      <point x="430" y="-70" type="curve"/>
      <point x="409" y="-70"/>
      <point x="400" y="-73"/>
      <point x="400" y="-94" type="curve" smooth="yes"/>
      <point x="400" y="-186"/>
      <point x="498" y="-238"/>
    </contour>
  </outline>
</glyph>
<glyph name="uniA735" format="2">
  <advance width="1038"/>
  <unicode hex="A735"/>
  <outline>
    <contour>
      <point x="265" y="-10" type="curve" smooth="yes"/>
      <point x="374" y="-10"/>
      <point x="477" y="101"/>
      <point x="470" y="189" type="curve"/>
      <point x="496" y="59"/>
      <point x="584" y="-10"/>
      <point x="709" y="-10" type="curve" smooth="yes"/>
      <point x="870" y="-10"/>
      <point x="954" y="85"/>
      <point x="954" y="267" type="curve" smooth="yes"/>
      <point x="954" y="469"/>
      <point x="862" y="542"/>
      <point x="717" y="542" type="curve" smooth="yes"/>
      <point x="608" y="542"/>
      <point x="531" y="499"/>
      <point x="493" y="412" type="curve"/>
      <point x="484" y="492"/>
      <point x="422" y="542"/>
      <point x="292" y="542" type="curve" smooth="yes"/>
      <point x="137" y="542"/>
      <point x="123" y="469"/>
      <point x="123" y="442" type="curve" smooth="yes"/>
      <point x="123" y="408"/>
      <point x="124" y="395"/>
      <point x="139" y="395" type="curve"/>
      <point x="139" y="476"/>
      <point x="159" y="532"/>
      <point x="295" y="532" type="curve" smooth="yes"/>
      <point x="456" y="532"/>
      <point x="465" y="449"/>
      <point x="465" y="371" type="curve" smooth="yes"/>
      <point x="465" y="293" type="line"/>
      <point x="362" y="290" type="line" smooth="yes"/>
      <point x="159" y="284"/>
      <point x="70" y="259"/>
      <point x="70" y="146" type="curve" smooth="yes"/>
      <point x="70" y="37"/>
      <point x="170" y="-10"/>
    </contour>
    <contour>
      <point x="263" y="10" type="curve" smooth="yes"/>
      <point x="158" y="10"/>
      <point x="98" y="80"/>
      <point x="98" y="144" type="curve" smooth="yes"/>
      <point x="98" y="216"/>
      <point x="152" y="273"/>
      <point x="357" y="280" type="curve" smooth="yes"/>
      <point x="465" y="283" type="line"/>
      <point x="465" y="149" type="line" smooth="yes"/>
      <point x="465" y="131"/>
      <point x="386" y="10"/>
    </contour>
    <contour>
      <point x="708" y="0" type="curve" smooth="yes"/>
      <point x="559" y="0"/>
      <point x="494" y="99"/>
      <point x="494" y="267" type="curve" smooth="yes"/>
      <point x="494" y="447"/>
      <point x="562" y="532"/>
      <point x="719" y="532" type="curve" smooth="yes"/>
      <point x="855" y="532"/>
      <point x="926" y="457"/>
      <point x="926" y="267" type="curve" smooth="yes"/>
      <point x="926" y="112"/>
      <point x="869" y="0"/>
    </contour>
  </outline>
</glyph>
<glyph name="uniA736" format="2">
  <advance width="1276"/>
  <unicode hex="A736"/>
  <outline>
    <contour>
      <point x="858" y="-10" type="curve" smooth="yes"/>
      <point x="1005" y="-10"/>
      <point x="1130" y="60"/>
      <point x="1130" y="196" type="curve" smooth="yes"/>
      <point x="1130" y="615" type="line" smooth="yes"/>
      <point x="1130" y="693"/>
      <point x="1136" y="704"/>
      <point x="1186" y="704" type="curve" smooth="yes"/>
      <point x="1239" y="704" type="line"/>
      <point x="1239" y="714" type="line"/>
      <point x="1016" y="714" type="line"/>
      <point x="1016" y="704" type="line"/>
      <point x="1064" y="704" type="line" smooth="yes"/>
      <point x="1114" y="704"/>
      <point x="1120" y="693"/>
      <point x="1120" y="615" type="curve" smooth="yes"/>
      <point x="1120" y="194" type="line" smooth="yes"/>
      <point x="1120" y="50"/>
      <point x="983" y="5"/>
      <point x="855" y="5" type="curve" smooth="yes"/>
      <point x="689" y="5"/>
      <point x="645" y="77"/>
      <point x="576" y="249" type="curve" smooth="yes"/>
      <point x="375" y="714" type="line"/>
      <point x="368" y="714" type="line"/>
      <point x="76" y="22" type="line" smooth="yes"/>
      <point x="65" y="6"/>
      <point x="65" y="10"/>
      <point x="7" y="10" type="curve" smooth="yes"/>
      <point x="-6" y="10" type="line"/>
      <point x="-6" y="0" type="line"/>
      <point x="239" y="0" type="line"/>
      <point x="239" y="10" type="line"/>
      <point x="156" y="10" type="line" smooth="yes"/>
      <point x="99" y="10"/>
      <point x="99" y="20"/>
      <point x="99" y="40" type="curve" smooth="yes"/>
      <point x="99" y="71"/>
      <point x="132" y="145"/>
      <point x="137" y="154" type="curve" smooth="yes"/>
      <point x="185" y="259" type="line"/>
      <point x="534" y="259" type="line"/>
      <point x="556" y="224" type="line" smooth="yes"/>
      <point x="625" y="46"/>
      <point x="670" y="-10"/>
    </contour>
    <contour>
      <point x="190" y="269" type="line"/>
      <point x="283" y="477" type="line" smooth="yes"/>
      <point x="290" y="482"/>
      <point x="351" y="652"/>
      <point x="361" y="678" type="curve"/>
      <point x="378" y="643"/>
      <point x="418" y="531"/>
      <point x="429" y="517" type="curve" smooth="yes"/>
      <point x="531" y="269" type="line"/>
    </contour>
  </outline>
</glyph>
<glyph name="uniA745" format="2">
  <advance width="637"/>
  <unicode hex="A745"/>
  <anchor x="319" y="760" name="top"/>
  <anchor x="637" y="760" name="topright"/>
  <anchor x="319" y="0" name="bottom"/>
  <outline>
    <contour>
      <point x="293" y="134" type="line"/>
      <point x="532" y="308" type="line"/>
      <point x="526" y="316" type="line"/>
      <point x="287" y="142" type="line"/>
    </contour>
    <contour>
      <point x="22" y="625" type="line"/>
      <point x="307" y="625" type="line"/>
      <point x="307" y="635" type="line"/>
      <point x="22" y="635" type="line"/>
    </contour>
    <component base="k"/>
  </outline>
</glyph>
